<?xml version="1.0" encoding="UTF-8"?>
<svg width="40px" height="40px" viewBox="0 0 40 40" version="1.1" xmlns="http://www.w3.org/2000/svg" xmlns:xlink="http://www.w3.org/1999/xlink">
    <!-- Generator: Sketch 60.1 (88133) - https://sketch.com -->
    <title>Icons/Big/brick</title>
    <desc>Created with Sketch.</desc>
    <g id="Icons/Big/brick" stroke="none" stroke-width="1" fill="none" fill-rule="evenodd">
        <polygon id="Path" fill="#FFFFFF" fill-rule="nonzero" points="20.0012715 4.18810242 33.0754895 10.0006024 20.0051775 15.8131024 20.0012715 15.8131024 6.92705266 10.0006024"></polygon>
        <polygon id="Path" fill="#FFFFFF" fill-rule="nonzero" points="4.00127146 13.0787274 18.0012715 19.3013844 18.0012715 34.9224784 4.00127146 28.6998204"></polygon>
        <polygon id="Path" fill="#FFFFFF" fill-rule="nonzero" points="10.8489277 21.2427904 12.2278339 25.9654464 9.48174026 24.7388844"></polygon>
        <path d="M20.0364275,0.000282924837 C19.7447219,-0.00461172954 19.455407,0.0540512141 19.1887715,0.17247742 L1.18877146,8.17247742 C1.17435347,8.18011435 1.16002947,8.1879274 1.14580266,8.19591482 C1.10616096,8.21287616 1.06707807,8.23111489 1.02861526,8.25060242 C1.0115338,8.26076619 0.994604782,8.27118402 0.977833859,8.28185242 C0.935159437,8.30762878 0.893463649,8.33499163 0.852833859,8.36388362 C0.82495751,8.38400847 0.797604687,8.40484873 0.770802659,8.42638362 C0.758982809,8.43536746 0.747263349,8.44448263 0.735646459,8.45372742 C0.691076927,8.48962632 0.648068622,8.52742149 0.606740259,8.56700862 C0.598845827,8.5760527 0.591032977,8.58516767 0.583302659,8.59435242 C0.498285976,8.67967269 0.421149652,8.77249775 0.352833859,8.87169622 C0.344897833,8.88333211 0.33708493,8.8950515 0.329396459,8.90685242 C0.262501289,9.00818507 0.204972107,9.11539852 0.157521459,9.22716482 C0.153547464,9.23625024 0.149641089,9.2453651 0.145802659,9.25450862 C0.128623378,9.29821548 0.112988688,9.3425138 0.0989276588,9.38732122 C0.0906345541,9.41190647 0.0828206085,9.43665075 0.0754902588,9.46154002 C0.066729491,9.49647877 0.0589141073,9.5316478 0.0520526588,9.56700862 C0.0447327568,9.59939354 0.0382203387,9.6319557 0.0325214588,9.66466482 C0.0244392047,9.70999934 0.0179249226,9.75559945 0.0129902588,9.80138362 C0.011606139,9.81178987 0.0103039653,9.82220686 0.00908385878,9.83263362 C0.000766359531,9.91960896 -0.00184336384,10.0070358 0.00127145878,10.0943524 L0.00127145878,30.0006024 C0.00108567904,30.7910937 0.46647143,31.5075424 1.18877146,31.8287264 L19.1887715,39.8287264 C19.2675752,39.8625342 19.3484715,39.8912394 19.4309595,39.9146644 C19.4337195,39.9154924 19.4360075,39.9177544 19.4387715,39.9185704 C19.6214099,39.9725543 19.8108223,40.0001772 20.0012715,40.0006069 C20.0038115,40.0006069 20.0065435,40.0006069 20.0090835,40.0006069 C20.2821002,39.9993186 20.5519637,39.9421557 20.8020535,39.8326344 C20.8059015,39.8309464 20.8099295,39.8304424 20.8137715,39.8287264 L38.8137715,31.8287264 C39.5377715,31.5067264 40.0012715,30.7906024 40.0012715,30.0006024 L40.0012715,10.1060712 C40.0197079,9.73762439 39.9358892,9.37125619 39.7590835,9.04747742 C39.7577135,9.04495222 39.7565575,9.04218422 39.7551775,9.03966482 C39.6777608,8.89724361 39.5833181,8.76476148 39.4739275,8.64513362 C39.4739275,8.64513362 39.4700215,8.64513362 39.4700215,8.64513362 C39.4700215,8.64513362 39.4700215,8.64122742 39.4700215,8.64122742 C39.3572685,8.52051804 39.2299975,8.41424014 39.0911155,8.32482122 C39.0871495,8.32223742 39.0833775,8.31956202 39.0793955,8.31700862 C38.994628,8.26219794 38.905833,8.21388284 38.8137715,8.17247742 L20.8137715,0.17247742 C20.5687912,0.063677252 20.3044413,0.00522803259 20.0364275,0.000282924837 Z M20.0012715,4.18810242 L33.0754895,10.0006024 L20.0051775,15.8131024 L20.0012715,15.8131024 L6.92705266,10.0006024 L20.0012715,4.18810242 Z M4.00127146,13.0787274 L18.0012715,19.3013844 L18.0012715,34.9224784 L4.00127146,28.6998204 L4.00127146,13.0787274 Z M9.79814646,18.0006024 L5.69658386,27.1451344 L8.11064646,28.2232584 L8.86845906,26.2974784 L12.8411153,28.0670084 L13.6028339,30.6646644 L16.0012715,31.7349784 L11.8958027,18.9459144 L9.79814646,18.0006024 Z M10.8489277,21.2427904 L12.2278339,25.9654464 L9.48174026,24.7388844 L10.8489277,21.2427904 Z" id="Shape" fill="#000000" fill-rule="nonzero"></path>
    </g>
</svg>