<?xml version="1.0" encoding="UTF-8"?>
<svg width="40px" height="40px" viewBox="0 0 40 40" version="1.1" xmlns="http://www.w3.org/2000/svg" xmlns:xlink="http://www.w3.org/1999/xlink">
    <!-- Generator: Sketch 60.1 (88133) - https://sketch.com -->
    <title>Icons/Big/check</title>
    <desc>Created with Sketch.</desc>
    <g id="Icons/Big/check" stroke="none" stroke-width="1" fill="none" fill-rule="evenodd">
        <g id="Group" fill-rule="nonzero">
            <path d="M13.8713789,3.90841657 C14.1186735,3.89639302 14.3732495,3.92610024 14.620942,4.00784849 L18.9806442,5.4190154 C19.3742107,5.54628812 19.7993819,5.54628812 20.1929483,5.4190154 L24.5564742,4.00402404 C25.5237489,3.68682144 26.6165497,4.14726715 27.0766896,5.05188253 L29.1647572,9.13623568 C29.3527293,9.50238952 29.6475986,9.80108275 30.0137525,9.98905478 L34.1019287,12.0771229 C35.0280845,12.550969 35.4670834,13.6142163 35.1459645,14.6049858 L33.7347958,18.964688 C33.6075231,19.3562964 33.6075231,19.7777355 33.7347958,20.1693439 L33.9298364,20.773582 L35.1459645,24.5328698 C35.4670834,25.523639 35.0300426,26.5868871 34.1019287,27.0607333 L30.0137525,29.148801 C29.6475986,29.336773 29.3527293,29.6316424 29.1647572,29.9977962 L27.0766896,34.0821484 C26.6165497,34.9848057 25.5395033,35.4530852 24.5526501,35.1300083 L20.1891242,33.7188396 C19.99332,33.6542242 19.7885206,33.6232323 19.5848842,33.6232323 C19.3812479,33.6232323 19.1764484,33.6522681 18.9806442,33.7188396 L14.6171176,35.1338323 C13.6478868,35.4510351 12.5512609,34.9886298 12.0930791,34.0859725 L10.0088353,30.0016203 C9.82086326,29.6354664 9.52217003,29.336773 9.15601618,29.148801 L5.07166303,27.0607333 C4.14550919,26.5868871 3.70268586,25.523639 4.02380474,24.5328698 L5.43497165,20.173168 C5.56224438,19.7815596 5.56224438,19.3601204 5.43497165,18.968512 L4.02380474,14.6049858 C3.70268586,13.6142165 4.14355115,12.550969 5.07166303,12.0771229 L9.15601618,9.98905478 C9.52021198,9.80108275 9.81899705,9.50621378 10.005011,9.14005993 L12.0930791,5.05570678 C12.438184,4.37724524 13.1294952,3.94448743 13.8713789,3.90841657 Z" id="Path" fill="#FFFFFF"></path>
            <path d="M13.7145826,0.00762985921 C14.4185294,-0.0281044065 15.1319602,0.0611394256 15.8255964,0.286803957 L15.8255964,0.286803957 L19.5848842,1.49910723 L23.3479961,0.28297951 C26.1029612,-0.611845665 29.2466896,0.687009328 30.5644518,3.27358275 L30.5644518,3.27358275 L32.3656977,6.7919394 L35.8840543,8.58936063 C38.5352431,9.94236762 39.7891536,12.9783117 38.8708319,15.8096402 L38.8708319,15.8096402 L37.6547058,19.568928 L38.8708319,23.3282158 C39.7891536,26.1556284 38.5332851,29.1935305 35.8840543,30.5484955 L35.8840543,30.5484955 L32.3618736,32.3459174 L30.5644518,35.864274 C29.5286476,37.8908474 27.4742034,39.1493476 25.1989586,39.1493476 C24.5684691,39.1493476 23.9452909,39.0506799 23.3441721,38.8548757 L23.3441721,38.8548757 L19.5848842,37.6387495 L15.8217723,38.8586997 C13.0648493,39.755483 9.9269952,38.4528055 8.60531688,35.864274 L8.60531688,35.864274 L6.8040712,32.3459174 L3.28571456,30.5523196 C0.634525747,29.1973546 -0.619385918,26.1614105 0.298935761,23.3320399 L0.298935761,23.3320399 L1.51506348,19.568928 L0.298935761,15.8096402 C-0.617427876,12.9802697 0.638350194,9.94236762 3.28953901,8.58936063 L3.28953901,8.58936063 L6.80789565,6.7919394 L8.60531688,3.27358275 C9.59510709,1.33365268 11.6027427,0.114832656 13.7145826,0.00762985921 Z M27.0766896,5.05188253 C26.6165497,4.14726715 25.5237489,3.68682144 24.5564742,4.00402404 L24.5564742,4.00402404 L20.1929483,5.4190154 C19.7993819,5.54628812 19.3742107,5.54628812 18.9806442,5.4190154 L18.9806442,5.4190154 L14.620942,4.00784849 C14.3732495,3.92610024 14.1186735,3.89639302 13.8713789,3.90841657 C13.1294952,3.94448743 12.438184,4.37724524 12.0930791,5.05570678 L12.0930791,5.05570678 L10.005011,9.14005993 C9.81899705,9.50621378 9.52021198,9.80108275 9.15601618,9.98905478 L9.15601618,9.98905478 L5.07166303,12.0771229 C4.14355115,12.550969 3.70268586,13.6142165 4.02380474,14.6049858 L4.02380474,14.6049858 L5.43497165,18.968512 C5.56224438,19.3601204 5.56224438,19.7815596 5.43497165,20.173168 L5.43497165,20.173168 L4.02380474,24.5328698 C3.70268586,25.523639 4.14550919,26.5868871 5.07166303,27.0607333 L5.07166303,27.0607333 L9.15601618,29.148801 C9.52217003,29.336773 9.82086326,29.6354664 10.0088353,30.0016203 L10.0088353,30.0016203 L12.0930791,34.0859725 C12.5512609,34.9886298 13.6478868,35.4510351 14.6171176,35.1338323 L14.6171176,35.1338323 L18.9806442,33.7188396 C19.1764484,33.6522681 19.3812479,33.6232323 19.5848842,33.6232323 C19.7885206,33.6232323 19.99332,33.6542242 20.1891242,33.7188396 L20.1891242,33.7188396 L24.5526501,35.1300083 C25.5395033,35.4530852 26.6165497,34.9848057 27.0766896,34.0821484 L27.0766896,34.0821484 L29.1647572,29.9977962 C29.3527293,29.6316424 29.6475986,29.336773 30.0137525,29.148801 L30.0137525,29.148801 L34.1019287,27.0607333 C35.0300426,26.5868871 35.4670834,25.523639 35.1459645,24.5328698 L35.1459645,24.5328698 L33.9298364,20.773582 L33.7347958,20.1693439 C33.6075231,19.7777355 33.6075231,19.3562964 33.7347958,18.964688 L33.7347958,18.964688 L35.1459645,14.6049858 C35.4670834,13.6142163 35.0280845,12.550969 34.1019287,12.0771229 L34.1019287,12.0771229 L30.0137525,9.98905478 C29.6475986,9.80108275 29.3527293,9.50238952 29.1647572,9.13623568 L29.1647572,9.13623568 Z M27.9906977,12.3104054 L17.6268423,22.6742611 L13.1371132,18.1845316 L10.3683196,20.9533243 L17.6268423,28.2118466 L30.7594904,15.0791989 L27.9906977,12.3104054 Z" id="Shape" fill="#000000"></path>
        </g>
    </g>
</svg>