<?xml version="1.0" encoding="UTF-8"?>
<svg width="40px" height="40px" viewBox="0 0 40 40" version="1.1" xmlns="http://www.w3.org/2000/svg" xmlns:xlink="http://www.w3.org/1999/xlink">
    <!-- Generator: Sketch 60.1 (88133) - https://sketch.com -->
    <title>Icons/Big/language</title>
    <desc>Created with Sketch.</desc>
    <g id="Icons" stroke="none" stroke-width="1" fill="none" fill-rule="evenodd">
        <g id="Icons/Big/language">
            <polygon id="Path" fill="#FFFFFF" points="6 6 24 6 24 14 18 20 14 24 6 24"></polygon>
            <polygon id="Path" fill="#FFFFFF" points="24.199218 18.199218 26.800782 18.199218 31.800782 31.601562 28.800782 31.601562 28 28.800782 23.199218 28.800782 22.199218 31.601562 19.199218 31.601562"></polygon>
            <path d="M6,2 C4.9555556,2 3.8907798,2.3826578 3.1367188,3.1367188 C2.3826578,3.8907798 2,4.9555556 2,6 L2,24 C2,25.044444 2.3826578,26.10922 3.1367188,26.863282 C3.8907798,27.617342 4.9555556,28 6,28 L12,28 L12,34 C12,36.2 13.8,38 16,38 L34,38 C36.2,38 38,36.2 38,34 L38,16 C38,13.8 36.2,12 34,12 L28,12 L28,6 C28,4.9555556 27.617342,3.8907798 26.863282,3.1367188 C26.10922,2.3826578 25.044444,2 24,2 L6,2 Z M6,6 L24,6 L24,14 L18,20 L14,24 L6,24 L6,6 Z M18,20 L18,18 C17.449214,18 16.941952,17.948232 16.460938,17.867188 C16.480928,17.85249 16.503538,17.84298 16.523438,17.828124 C18.273452,16.521778 19.64698,14.5379472 19.9375,12 L20,12 L20,11 L20,10 L16,10 L16,8 L14,8 L14,10 L10,10 L10,12 L17.921876,12 C17.658098,13.8541432 16.67212,15.2193932 15.328125,16.222656 C14.9294728,16.520242 14.4991852,16.780384 14.0507812,17.003906 C12.7305358,16.213668 12,15.0742912 12,14 L10,14 C10,15.4388888 10.6715002,16.740616 11.7734376,17.773438 C11.1603694,17.905544 10.5562852,18 10,18 L10,20 C11.2795706,20 12.657644,19.71307 13.9882812,19.191406 C15.1568864,19.691052 16.505866,20 18,20 Z M24.199218,18.199218 L26.800782,18.199218 L31.800782,31.601562 L28.800782,31.601562 L28,28.800782 L23.199218,28.800782 L22.199218,31.601562 L19.199218,31.601562 L24.199218,18.199218 Z M25.601562,21.601562 L23.800782,26.601562 L27.199218,26.601562 L25.601562,21.601562 Z" id="Shape" fill="#000000" fill-rule="nonzero"></path>
        </g>
    </g>
</svg>