<?xml version="1.0" encoding="UTF-8"?>
<svg width="40px" height="40px" viewBox="0 0 40 40" version="1.1" xmlns="http://www.w3.org/2000/svg" xmlns:xlink="http://www.w3.org/1999/xlink">
    <!-- Generator: Sketch 60.1 (88133) - https://sketch.com -->
    <title>Icons/Big/layer</title>
    <desc>Created with Sketch.</desc>
    <g id="Icons/Big/layer" stroke="none" stroke-width="1" fill="none" fill-rule="evenodd">
        <polygon id="Path" fill="#FFFFFF" points="20.4726562 4.46875 32.0000002 10.234375 20.4726562 16 8.9453124 10.234375"></polygon>
        <polygon id="Path" fill="#FFFFFF" points="14.4726562 17.468751 20.4726562 20.468751 26.4726562 17.468751 32.0000002 20.234375 20.4726562 25.999999 8.9453124 20.234375"></polygon>
        <polygon id="Path" fill="#FFFFFF" points="14.4726562 27.468751 20.4726562 30.468751 26.4726562 27.468751 32.0000002 30.234375 20.4726562 35.999999 8.9453124 30.234375"></polygon>
        <path d="M19.5783655,0.447060015 L3.57818665,8.44562303 C2.59019196,8.93952613 2.18965157,10.1408416 2.68355467,11.1288363 C2.87707588,11.5159526 3.1909486,11.8298493 3.57805012,12.0234001 L10,15.234375 L10,15.234375 L3.57770876,18.4455206 C2.58975177,18.9394991 2.18930308,20.1408452 2.68328157,21.1288022 C2.87680898,21.515857 3.19065396,21.829702 3.57770876,22.0232294 L10,25.234375 L10,25.234375 L3.57804994,28.44535 C2.59009295,28.9393285 2.18964425,30.1406746 2.68362275,31.1286316 C2.8771735,31.5157331 3.19107015,31.8296058 3.57818641,32.023127 L19.5783655,40.0216909 C20.1413459,40.3031274 20.8039665,40.3031274 21.3669469,40.0216909 L37.3671258,32.023127 C38.3551205,31.5292239 38.7556608,30.3279084 38.2617577,29.3399137 C38.0682365,28.9527974 37.7543638,28.6389008 37.3672623,28.44535 L30.9453122,25.234375 L30.9453122,25.234375 L37.3676034,22.0232294 C38.3555604,21.5292509 38.7560091,20.3279048 38.2620306,19.3399478 C38.0685032,18.952893 37.7546582,18.639048 37.3676034,18.4455206 L30.9453122,15.234375 L30.9453122,15.234375 L37.3672621,12.0234001 C38.3552191,11.5294216 38.7556678,10.3280755 38.2616893,9.34011848 C38.0681385,8.95301697 37.7542419,8.63914424 37.3671256,8.44562303 L21.3669469,0.447060019 C20.8039665,0.165623538 20.1413459,0.165623537 19.5783655,0.447060015 Z M20.4726562,4.46875 L32.0000002,10.234375 L20.4726562,16 L8.9453124,10.234375 L20.4726562,4.46875 Z M14.4726562,17.468751 L20.4726562,20.468751 L26.4726562,17.468751 L32.0000002,20.234375 L20.4726562,25.999999 L8.9453124,20.234375 L14.4726562,17.468751 Z M14.4726562,27.468751 L20.4726562,30.468751 L26.4726562,27.468751 L32.0000002,30.234375 L20.4726562,35.999999 L8.9453124,30.234375 L14.4726562,27.468751 Z" id="Shape" fill="#000000" fill-rule="nonzero"></path>
    </g>
</svg>