<?xml version="1.0" encoding="UTF-8"?>
<svg width="40px" height="40px" viewBox="0 0 40 40" version="1.1" xmlns="http://www.w3.org/2000/svg" xmlns:xlink="http://www.w3.org/1999/xlink">
    <!-- Generator: Sketch 60.1 (88133) - https://sketch.com -->
    <title>Icons/Big/lock</title>
    <desc>Created with Sketch.</desc>
    <g id="Icons/Big/lock" stroke="none" stroke-width="1" fill="none" fill-rule="evenodd">
        <polygon id="Path" fill="#FFFFFF" fill-rule="nonzero" points="4 7 28 7 28 31 4 31"></polygon>
        <polygon id="Path" fill="#FFFFFF" fill-rule="nonzero" points="32 7 36 7 36 31 32 31 32 27 34 27 34 23 32 23 32 15 34 15 34 11 32 11"></polygon>
        <path d="M16,17 C17.128258,17 18,17.871742 18,19 C18,20.128258 17.128258,21 16,21 C14.8717412,21 14,20.128258 14,19 C14,17.871742 14.8717412,17 16,17 Z" id="Path" fill="#FFFFFF" fill-rule="nonzero"></path>
        <path d="M4,3 C1.8138744,3 0,4.8138744 0,7 L0,31 C0,33.186126 1.8138744,35 4,35 L4,37 L8,37 L8,35 L28,35 L32,35 L32,37 L36,37 L36,35 C38.186126,35 40,33.186126 40,31 L40,7 C40,4.8138744 38.186126,3 36,3 L28,3 L4,3 Z M4,7 L28,7 L28,31 L4,31 L4,7 Z M32,7 L36,7 L36,31 L32,31 L32,27 L34,27 L34,23 L32,23 L32,15 L34,15 L34,11 L32,11 L32,7 Z M10.9140624,11.0859376 L8.0859376,13.9140624 L10.6054688,16.433594 C10.2284492,17.216122 10,18.080286 10,19 C10,19.919714 10.2284492,20.783878 10.6054688,21.566406 L8.0859376,24.0859376 L10.9140624,26.914062 L13.4335938,24.394532 C14.2161214,24.77155 15.0802872,25 16,25 C16.919714,25 17.783878,24.77155 18.566406,24.394532 L21.0859376,26.914062 L23.914062,24.0859376 L21.394532,21.566406 C21.77155,20.783878 22,19.919714 22,19 C22,18.080286 21.77155,17.216122 21.394532,16.433594 L23.914062,13.9140624 L21.0859376,11.0859376 L18.566406,13.6054688 C17.783878,13.2284492 16.919714,13 16,13 C15.0802872,13 14.2161214,13.2284492 13.4335938,13.6054688 L10.9140624,11.0859376 Z M16,17 C17.128258,17 18,17.871742 18,19 C18,20.128258 17.128258,21 16,21 C14.8717412,21 14,20.128258 14,19 C14,17.871742 14.8717412,17 16,17 Z" id="Shape" fill="#000000" fill-rule="nonzero"></path>
    </g>
</svg>