<?xml version="1.0" encoding="UTF-8"?>
<svg width="128px" height="31px" viewBox="0 0 128 31" version="1.1" xmlns="http://www.w3.org/2000/svg" xmlns:xlink="http://www.w3.org/1999/xlink">
    <!-- Generator: Sketch 61.2 (89653) - https://sketch.com -->
    <title>adobe-logo</title>
    <desc>Created with Sketch.</desc>
    <g id="Website" stroke="none" stroke-width="1" fill="none" fill-rule="evenodd">
        <g id="About-us" transform="translate(-466.000000, -1885.000000)" fill="#000000" fill-rule="nonzero">
            <g id="Logos" transform="translate(120.000000, 1704.000000)">
                <g transform="translate(0.000000, 168.000000)" id="adobe-logo">
                    <g transform="translate(346.000000, 13.000000)">
                        <path d="M15.3937582,11.3648698 L22.6180219,30.8148148 L17.8918681,30.8148148 L15.7313407,24.636597 L10.3975385,24.636597 L15.3937582,11.3648698 Z M77.8222841,4.35207426e-13 L77.9648363,24.9453262 C77.9648363,26.5594356 78.0361124,28.9805997 78.1073884,30.4479718 L78.1073884,30.4479718 L74.6148595,30.4479718 L74.3297551,27.8800705 L74.1872028,27.8800705 C73.5457179,29.3474427 71.9063676,30.8148148 69.8393607,30.8148148 C65.9904512,30.8148148 63.6383398,26.5594356 63.6383398,19.8828924 C63.6383398,12.3259259 66.7744883,8.7308642 70.053189,8.7308642 C71.6925393,8.7308642 73.0467853,9.53791887 73.7595463,11.1520282 L73.7595463,11.1520282 L73.8308224,11.1520282 L73.8308224,4.35207426e-13 L77.8222841,4.35207426e-13 Z M87.6583861,8.65749559 C91.721124,8.65749559 94.7147202,12.4726631 94.7147202,19.6627866 C94.7147202,28.173545 90.6519825,30.7414462 87.515834,30.7414462 L87.515834,30.7414462 L87.4445579,30.7414462 C83.310544,30.7414462 80.3169477,27.0730158 80.3169477,19.7361553 C80.3169477,11.9590829 83.8807528,8.65749559 87.6583861,8.65749559 Z M101.129569,4.35207426e-13 L101.129569,11.4455026 L101.200846,11.4455026 C102.269987,9.46455027 103.695509,8.65749559 105.548688,8.65749559 C109.112493,8.65749559 111.322052,12.8395061 111.464604,19.3693121 C111.464604,26.9996473 108.399732,30.7414462 104.978479,30.7414462 C102.911472,30.7414462 101.771054,29.6409171 100.844465,27.7333333 L100.844465,27.7333333 L100.701913,27.7333333 L100.488085,30.4479718 L96.9955556,30.4479718 C97.0668316,28.9805997 97.1381077,26.5594356 97.1381077,24.9453262 L97.1381077,24.9453262 L97.1381077,4.35207426e-13 L101.129569,4.35207426e-13 Z M30.72,4.35207426e-13 L30.72,30.7385406 L19.3772308,4.35207426e-13 L30.72,4.35207426e-13 Z M11.4102857,4.35207426e-13 L1.24344979e-14,30.7385406 L1.24344979e-14,4.35207426e-13 L11.4102857,4.35207426e-13 Z M120.801774,8.65749559 C125.07834,8.65749559 127.145346,12.9862434 127.287899,18.2687831 C127.287899,19.2959436 127.287899,19.956261 127.216623,20.5432098 L127.216623,20.5432098 L117.451797,20.4698413 C117.451797,25.9724868 119.803909,27.3664903 122.227296,27.3664903 C123.652818,27.3664903 124.864512,26.9996473 125.7911,26.5594356 L125.7911,26.5594356 L126.36131,29.5675484 C125.07834,30.227866 123.225161,30.594709 121.371982,30.594709 C116.097551,30.594709 113.389059,26.5594356 113.389059,19.956261 C113.389059,12.9862434 116.453931,8.65749559 120.801774,8.65749559 Z M56.7245579,0.733686067 L62.7830266,30.3746031 L58.7915648,30.3746031 L57.1522145,22.1573192 L51.1650219,22.1573192 L49.4543955,30.3746031 L45.5342099,30.3746031 L52.0203352,0.733686067 L52.0203352,0.733686067 L56.7245579,0.733686067 Z M87.3732818,11.9590829 C84.736066,11.9590829 84.2371333,16.5079365 84.2371333,19.7361553 C84.2371333,23.2578483 84.8786182,27.5132275 87.515834,27.5132275 L87.515834,27.5132275 L87.6758142,27.5068386 C90.0349861,27.3160754 90.5791569,22.8941953 90.5094303,19.7361553 C90.5094303,16.5079365 89.9392215,11.9590829 87.3732818,11.9590829 Z M70.9797783,12.2525573 C68.4851147,12.2525573 67.6298015,15.8476191 67.6298015,19.8095238 C67.6298015,24.2116402 68.7702191,27.2931217 70.9085022,27.2931217 C71.8350916,27.2931217 72.9755091,26.8529101 73.6882702,24.2850088 C73.7595463,23.9181658 73.8308224,23.4045855 73.8308224,22.8910053 C73.8308224,22.8910053 73.8308224,17.168254 73.7595463,17.168254 C73.7595463,16.801411 73.7595463,16.2878306 73.6882702,15.8476191 C73.4744418,13.9400353 72.4053004,12.2525573 70.9797783,12.2525573 Z M103.980614,12.1791887 C102.626368,12.1791887 101.557226,13.793298 101.272122,15.3340388 C101.200846,15.7742504 101.129569,16.3611993 101.129569,16.801411 L101.129569,16.801411 L101.129985,23.0332506 C101.132479,23.4554944 101.149934,23.8238348 101.272122,24.1382716 C101.913607,26.7795415 103.196576,27.2931217 103.980614,27.2931217 C106.404001,27.2931217 107.259314,24.064903 107.33059,19.589418 C107.33059,15.4807761 106.404001,12.1791887 103.980614,12.1791887 Z M54.3011704,5.06243386 L54.1586182,5.06243386 C53.8022377,7.19012346 53.3745811,9.90476191 53.0182005,11.8123457 L53.0182005,11.8123457 L51.6639546,18.9291006 L56.7245579,18.9291006 L55.3703119,11.8123457 C55.0139314,9.8313933 54.5862748,7.19012346 54.3011704,5.06243386 L54.3011704,5.06243386 Z M120.445393,11.8123457 C118.378386,11.8123457 117.451797,14.8938272 117.309245,17.6084657 L117.309245,17.6084657 L123.296437,17.6084657 C123.296437,13.8666667 122.013467,11.8123457 120.445393,11.8123457 Z M126.788966,8.65749559 L126.901509,8.6639408 C127.34104,8.71523538 127.649762,9.06948853 127.715556,9.61128748 C127.715556,10.1248677 127.287899,10.5650794 126.788966,10.5650794 C126.290034,10.5650794 125.862377,10.1248677 125.862377,9.61128748 C125.862377,9.09770724 126.290034,8.65749559 126.788966,8.65749559 L126.788966,8.65749559 Z M126.788966,8.80423281 L126.700077,8.81170553 C126.375664,8.86588282 126.076205,9.20776014 126.076205,9.61128748 C126.076205,10.0514991 126.36131,10.4183422 126.788966,10.4183422 C127.216623,10.4183422 127.501727,10.0514991 127.501727,9.61128748 C127.501727,9.17107584 127.216623,8.80423281 126.788966,8.80423281 L126.788966,8.80423281 Z M126.866515,9.02492557 C126.960029,9.02727336 127.01705,9.03901234 127.074071,9.09770724 C127.145346,9.17107584 127.145346,9.24444444 127.145346,9.31781305 C127.145346,9.46455027 127.074071,9.53791887 126.931519,9.61128748 L126.931519,9.61128748 L126.974284,9.62009171 C127.031305,9.64356966 127.088326,9.71400353 127.145346,9.8313933 C127.145346,10.0514991 127.216623,10.1248677 127.216623,10.1248677 L127.216623,10.1248677 L127.074071,10.1248677 C127.074071,10.0514991 127.002795,9.97813051 127.002795,9.8313933 C127.002795,9.68465608 126.931519,9.61128748 126.788966,9.61128748 L126.788966,9.61128748 L126.646414,9.61128748 L126.646414,10.0514991 L126.503861,10.0514991 L126.503861,9.02433862 L126.503861,9.02433862 Z M126.71769,9.17107584 L126.575138,9.17107584 L126.575138,9.53791887 L126.71769,9.53791887 C126.860242,9.53791887 126.931519,9.46455027 127.002795,9.39118165 C127.002795,9.24444444 126.931519,9.17107584 126.71769,9.17107584 L126.71769,9.17107584 Z M36.4821448,0.807054674 L36.5878382,0.813658918 C37.0399895,0.87031638 37.4087342,1.28395062 37.4087342,1.76084657 C37.4087342,2.27442681 36.9810776,2.71463845 36.4821448,2.71463845 C35.9832122,2.71463845 35.5555556,2.27442681 35.5555556,1.76084657 C35.5555556,1.24726631 35.9832122,0.807054674 36.4821448,0.807054674 L36.4821448,0.807054674 Z M36.4821448,0.953791887 L36.393256,0.961264616 C36.0688425,1.0154419 35.7693838,1.35731922 35.7693838,1.76084657 C35.7693838,2.2010582 36.0544883,2.56790124 36.4821448,2.56790124 C36.9098015,2.56790124 37.194906,2.27442681 37.194906,1.76084657 C37.194906,1.32063492 36.9098015,0.953791887 36.4821448,0.953791887 L36.4821448,0.953791887 Z M36.5065635,1.24760598 C36.6484558,1.24930433 36.7078526,1.25949441 36.7672493,1.32063492 C36.8385254,1.39400353 36.8385254,1.46737214 36.8385254,1.54074074 C36.8385254,1.68747795 36.7672493,1.76084657 36.6246971,1.83421517 L36.6246971,1.83421517 L36.6717505,1.83779762 C36.7672493,1.85485009 36.7672493,1.935097 36.7672493,2.1276896 C36.7672493,2.34779541 36.8385254,2.42116402 36.8385254,2.42116402 L36.8385254,2.42116402 L36.6959732,2.42116402 C36.6959732,2.34779541 36.6246971,2.27442681 36.6246971,2.1276896 C36.6246971,1.98095238 36.553421,1.90758377 36.4108687,1.90758377 L36.4108687,1.90758377 L36.2683166,1.90758377 L36.2683166,2.27442681 L36.1257644,2.27442681 L36.1257644,1.24726631 L36.1257644,1.24726631 Z M36.4108687,1.39400353 L36.2683166,1.39400353 L36.2683166,1.76084657 L36.4108687,1.76084657 C36.553421,1.76084657 36.6959732,1.68747795 36.6959732,1.61410935 C36.6959732,1.46737214 36.6246971,1.39400353 36.4108687,1.39400353 L36.4108687,1.39400353 Z" id="Combined-Shape"></path>
                    </g>
                </g>
            </g>
        </g>
    </g>
</svg>