<?xml version="1.0" encoding="UTF-8"?>
<svg width="235px" height="31px" viewBox="0 0 235 31" version="1.1" xmlns="http://www.w3.org/2000/svg" xmlns:xlink="http://www.w3.org/1999/xlink">
    <!-- Generator: Sketch 61.2 (89653) - https://sketch.com -->
    <title>ac_logo</title>
    <desc>Created with Sketch.</desc>
    <g id="Website" stroke="none" stroke-width="1" fill="none" fill-rule="evenodd">
        <g id="About-us" transform="translate(-169.000000, -1885.000000)" fill="#000000" fill-rule="nonzero">
            <g id="Logos" transform="translate(120.000000, 1704.000000)">
                <g transform="translate(0.000000, 168.000000)" id="ac_logo">
                    <g transform="translate(49.000000, 13.000000)">
                        <path d="M15.5466667,-2.64677169e-13 C24.2,-2.64677169e-13 31.24,6.6031746 31.24,14.9671957 C31.24,22.7442681 25.08,29.0539682 17.16,29.7876543 L17.16,29.7876543 L17.16,28.0268077 C23.9066667,27.2931217 29.1866667,21.7171076 29.1866667,14.9671957 C29.1866667,7.77707231 23.1733333,1.90758377 15.6933333,1.90758377 C8.21333333,1.90758377 2.2,7.77707231 2.2,14.9671957 C2.2,22.010582 7.77333333,27.2931217 14.3733333,28.0268077 C14.8133333,27.1463845 15.1066667,25.6790124 15.1066667,24.2116402 L15.1066667,24.2116402 L15.1066667,21.7171076 C15.1066667,20.8366843 14.52,20.5432098 13.64,21.1301587 C12.0103704,21.9453655 10.3807407,22.8863757 10.1482559,23.0213116 L10.12,23.0377425 C9.97333333,22.5975309 9.53333333,22.010582 8.50666667,22.3040564 C7.48,22.4507936 6.45333333,22.7442681 6.45333333,22.7442681 C6.45333333,22.7442681 7.04,21.4236332 7.33333333,20.8366843 C7.77333333,19.8095238 7.33333333,19.2225749 6.74666667,19.0758377 C6.74666667,19.0758377 7.48,18.6356261 7.77333333,18.3421517 C8.8,17.7552028 8.50666667,17.168254 7.62666667,16.7280423 C6.42144928,16.3261099 5.09396345,15.6795231 4.87220953,15.5701124 L4.84,15.5541446 C5.28,15.2606702 5.86666667,14.3802469 5.28,13.4998236 C4.69333333,12.6194003 3.66666667,11.2987654 3.66666667,11.2987654 L3.66666667,11.2987654 L6.45333333,11.2987654 C7.48,11.1520282 7.77333333,10.4183422 7.77333333,9.8313933 C7.77333333,9.8313933 9.53333333,11.005291 10.7066667,11.7389771 C11.7333333,12.4726631 12.6133333,11.7389771 12.4666667,10.7118166 C12.1733333,8.95097001 12.0266667,6.89664903 12.0266667,6.89664903 C12.6133333,7.33686067 13.64,7.19012346 14.08,6.30970017 C14.8133333,4.84232805 15.5466667,3.08148148 15.5466667,3.08148148 C15.5466667,3.08148148 16.28,4.84232805 17.0133333,6.30970017 C17.6,7.19012346 18.6266667,7.33686067 19.2133333,6.74991182 C19.2133333,6.74991182 19.0666667,8.80423281 18.7733333,10.5650794 C18.6266667,11.7389771 19.5066667,12.4726631 20.5333333,11.7389771 C21.7066667,11.005291 23.32,9.8313933 23.32,9.8313933 C23.32,10.4183422 23.6133333,11.2987654 24.64,11.2987654 L24.64,11.2987654 L27.4266667,11.2987654 C27.4266667,11.2987654 26.4,12.6194003 25.8133333,13.4998236 C25.2266667,14.5269842 25.8133333,15.2606702 26.2533333,15.5541446 C26.2533333,15.5541446 24.64,16.1410935 23.4666667,16.7280423 C22.5866667,17.0215168 22.44,17.7552028 23.32,18.3421517 C23.76,18.6356261 24.3466667,19.0758377 24.3466667,19.0758377 C23.9066667,19.2225749 23.4666667,19.8095238 23.9066667,20.8366843 C24.2,21.4236332 24.7866667,22.7442681 24.7866667,22.7442681 C24.7866667,22.7442681 23.76,22.5975309 22.7333333,22.3040564 C21.7066667,22.010582 21.12,22.4507936 21.12,23.0377425 C21.12,23.0377425 19.36,22.1573192 17.6,21.1301587 C16.5733333,20.5432098 16.1333333,20.6899471 16.1333333,21.7171076 L16.1333333,21.7171076 L16.1333333,24.5051147 C16.1333333,26.1192239 15.9866667,29.0539682 15.2533333,30.5213404 C14.52,29.7876543 13.7866667,29.6409171 12.6133333,29.3474427 C5.42666667,28.0268077 5.32907052e-15,22.010582 5.32907052e-15,14.8204585 C5.32907052e-15,6.6031746 7.04,-2.64677169e-13 15.5466667,-2.64677169e-13 Z M115.72,6.45643739 C117.773333,6.45643739 119.826667,6.6031746 122.026667,7.04338624 L122.026667,9.68465608 C119.68,8.95097001 117.48,8.65749559 115.866667,8.65749559 C113.813333,8.65749559 112.346667,9.24444444 111.173333,10.2716049 C110.146667,11.2987654 109.56,12.9128748 109.56,14.8204585 C109.56,16.7280423 110.146667,18.1954145 111.32,19.3693121 C112.493333,20.3964727 114.106667,20.9834215 116.16,20.9834215 C118.066667,20.9834215 120.12,20.5432098 122.026667,19.8095238 L122.026667,22.1573192 L122.026667,22.1573192 C120.266667,22.8910053 118.066667,23.1844798 115.426667,23.1844798 C112.346667,23.1844798 109.853333,22.4507936 108.093333,20.9834215 C106.333333,19.5160494 105.453333,17.4617284 105.453333,14.8204585 C105.453333,12.1791887 106.333333,9.97813051 108.093333,8.65749559 C109.853333,7.19012346 112.346667,6.45643739 115.72,6.45643739 Z M86.8266667,6.89664903 C90.9333333,6.89664903 92.84,8.65749559 92.9866667,10.8585538 C92.9866667,11.8857143 92.84,12.9128748 92.1066667,13.6465608 C91.3733333,14.3802469 91.08,14.6737214 89.76,15.4074074 L95.6266667,22.8910053 L91.3733333,22.8910053 L86.0933333,16.1410935 L82.5733333,16.1410935 L82.5733333,22.7442681 L79.0533333,22.7442681 L79.0533333,6.89664903 L86.8266667,6.89664903 Z M55.44,6.89664903 L62.3333333,22.7442681 L58.08,22.7442681 L56.1733333,18.4888889 L48.84,18.4888889 L46.9333333,22.7442681 L44.2933333,22.7442681 L51.1866667,6.89664903 L55.44,6.89664903 Z M70.84,6.89664903 L70.84,22.7442681 L67.1733333,22.7442681 L67.1733333,6.89664903 L70.84,6.89664903 Z M137.72,6.89664903 L144.613333,22.7442681 L140.36,22.7442681 L138.453333,18.4888889 L131.12,18.4888889 L129.213333,22.7442681 L126.573333,22.7442681 L133.466667,6.89664903 L137.72,6.89664903 Z M183.626667,6.89664903 L190.52,22.7442681 L186.266667,22.7442681 L184.36,18.4888889 L177.026667,18.4888889 L175.12,22.7442681 L172.48,22.7442681 L179.373333,6.89664903 L183.626667,6.89664903 Z M227.186667,6.89664903 L234.08,22.7442681 L229.826667,22.7442681 L227.92,18.4888889 L220.586667,18.4888889 L218.68,22.7442681 L216.04,22.7442681 L222.933333,6.89664903 L227.186667,6.89664903 Z M154.146667,6.89664903 L164.12,18.1954145 L164.12,6.89664903 L167.2,6.89664903 L167.2,22.7442681 L163.24,22.7442681 L152.973333,10.8585538 L152.973333,22.7442681 L149.893333,22.7442681 L149.893333,6.89664903 L154.146667,6.89664903 Z M203.28,6.89664903 C206.066667,6.89664903 208.12,7.6303351 209.586667,8.80423281 C211.053333,10.1248677 211.786667,12.0324516 211.786667,14.3802469 C211.786667,17.0215168 211.053333,19.0758377 209.44,20.3964727 C207.826667,21.8638447 205.773333,22.5975309 202.986667,22.5975309 L195.653333,22.5975309 L195.653333,6.89664903 L203.28,6.89664903 Z M201.666667,8.95097001 L199.466667,8.95097001 L199.32,20.5432098 L202.106667,20.5432098 C204.013333,20.5432098 205.48,20.1029983 206.506667,19.0758377 C207.533333,18.0486772 207.973333,16.7280423 207.973333,14.6737214 C207.973333,13.2063492 207.533333,11.8857143 206.8,10.8585538 C206.213333,10.1248677 205.626667,9.68465608 204.893333,9.39118165 C204.16,9.09770724 203.133333,8.95097001 201.666667,8.95097001 Z M52.36,10.1248677 L49.72,16.4345679 L55.1466667,16.4345679 L52.36,10.1248677 Z M134.933333,10.1248677 L132.146667,16.4345679 L137.573333,16.4345679 L134.933333,10.1248677 Z M180.546667,10.1248677 L177.906667,16.4345679 L183.333333,16.4345679 L180.546667,10.1248677 Z M224.106667,10.1248677 L221.466667,16.4345679 L226.893333,16.4345679 L224.106667,10.1248677 Z M84.6266667,8.95097001 L82.5733333,8.95097001 L82.5733333,14.0867725 L82.5733333,14.0867725 L84.1866667,14.0867725 C88.44,14.0867725 89.32,13.3530865 89.32,11.2987654 C89.32,9.24444444 87.4133333,8.95097001 84.6266667,8.95097001 Z" id="Combined-Shape"></path>
                    </g>
                </g>
            </g>
        </g>
    </g>
</svg>