<?xml version="1.0" encoding="UTF-8"?>
<svg width="169px" height="27px" viewBox="0 0 169 27" version="1.1" xmlns="http://www.w3.org/2000/svg" xmlns:xlink="http://www.w3.org/1999/xlink">
    <!-- Generator: Sketch 61.2 (89653) - https://sketch.com -->
    <title>decathlon-logo</title>
    <desc>Created with Sketch.</desc>
    <g id="Website" stroke="none" stroke-width="1" fill="none" fill-rule="evenodd">
        <g id="About-us" transform="translate(-1100.000000, -1887.000000)" fill="#000000" fill-rule="nonzero">
            <g id="Logos" transform="translate(120.000000, 1704.000000)">
                <g transform="translate(0.000000, 168.000000)" id="decathlon-logo">
                    <g transform="translate(980.000000, 15.000000)">
                        <path d="M134.273201,26.4375191 L134.273201,19.5675373 L134.800657,19.5675373 L135.959671,19.3389996 L136.778616,19.0412081 L137.555918,18.5979834 L138.249939,18.0924302 L138.881498,17.4622202 L139.429774,16.7489056 L139.95723,15.7655009 L140.227898,14.9483055 L140.415284,14.0895578 L140.436104,13.355467 L140.394463,12.4967193 L140.207078,11.6379716 L139.894769,10.8415524 L139.471416,10.0659092 L138.94396,9.37337071 L137.993152,8.51462299 L137.25749,8.0506222 L136.459366,7.66972603 L135.619601,7.44118834 L134.738194,7.3165314 L134.273201,7.3165314 L134.273201,0.37037037 L135.071324,0.391146524 L136.396904,0.536579603 L137.680843,0.806669618 L138.92314,1.20834194 L140.102975,1.71389504 L141.241169,2.3233289 L142.358542,3.09897202 L143.455095,4.04082436 L144.405903,5.05193055 L145.183206,6.08381289 L145.856407,7.1780237 L146.383861,8.29301068 L146.737812,9.34566918 L146.841915,9.80966996 L146.841915,0.855147307 L153.178324,0.855147307 L161.596796,13.2723624 L161.575975,0.792818844 L168.481481,0.855147307 L168.481481,26.1466529 L162.249176,26.1466529 L153.67802,13.7986917 L153.67802,26.1466529 L146.834975,26.1466529 L146.834975,17.1782795 L146.66841,17.6630565 L146.224237,18.7572672 L145.634319,19.8930304 L144.940299,20.9664649 L144.142175,21.9775712 L143.260769,22.8986473 L142.275259,23.7366189 L141.220347,24.4707098 L140.102975,25.1009198 L138.902318,25.6272491 L137.555918,26.0496975 L136.230338,26.3197875 L134.967221,26.4444444 L134.273201,26.4375191 L134.273201,26.4375191 L134.273201,26.4375191 Z M134.273201,0.377245381 L134.273201,7.2591335 L133.851793,7.2591335 L132.974437,7.38288373 L132.13853,7.6303842 L131.337165,8.00850993 L130.604883,8.4691358 L129.934777,9.05351192 L129.34757,9.69976315 L128.863987,10.4491396 L128.504755,11.2191411 L128.256055,12.0510176 L128.110981,12.9241442 L128.110981,13.7766459 L128.23533,14.6497726 L128.463304,15.4816492 L128.822537,16.2929007 L128.988337,16.6022763 L129.112686,16.7672766 L129.361385,17.1247772 L129.969318,17.7710285 L130.639425,18.3141545 L131.392431,18.7747804 L132.207614,19.104781 L133.04352,19.3316565 L133.920876,19.4347817 L134.259384,19.4141567 L134.259384,26.2341696 L133.672177,26.2341696 L132.414862,26.1310445 L131.157549,25.904169 L129.900235,25.5054183 L128.705096,25.0035423 L127.572132,24.4191662 L126.522067,23.7110399 L125.582536,22.9204134 L125.181854,22.5904127 L124.850254,22.2535371 L124.850254,25.9454191 L110.411869,25.9454191 L110.411869,0.858496296 L117.182021,0.858496296 L117.182021,19.7510323 L122.985009,19.7510323 L122.736308,19.2285313 L122.466885,18.6854053 L122.004027,17.5372781 L121.651703,16.3479008 L121.403003,15.0966484 L121.278654,13.845396 L121.278654,12.6147687 L121.423729,11.3222662 L121.70006,10.0091387 L122.073111,8.73726131 L122.577417,7.56850908 L123.206074,6.46163198 L123.917631,5.41662999 L124.732813,4.43350311 L125.65162,3.53975141 L126.6326,2.74912491 L127.70339,2.0616236 L128.815629,1.49787252 L129.990043,1.01662161 L131.205907,0.679745956 L132.463221,0.473495561 L133.720535,0.37037037 L134.273201,0.377245381 L134.273201,0.377245381 L134.273201,0.377245381 Z M62.4780427,21.8851895 L62.4780427,16.0191447 L64.0165103,16.0191447 L64.0165103,11.3276907 L62.4780427,13.6561442 L62.4780427,2.23497575 L63.3621395,0.790919953 L70.7133696,0.790919953 L70.7133696,26.0238949 L64.0165103,26.0238949 L64.0165103,21.8990082 L62.4780427,21.8851895 L62.4780427,21.8851895 L62.4780427,21.8851895 Z M76.210542,26.0238949 L82.9633077,26.0238949 L82.9633077,6.93333909 L87.8175102,6.93333909 L87.8175102,0.790919953 L71.5580185,0.790919953 L71.5580185,6.93333909 L76.2174964,6.93333909 L76.210542,26.0238949 L76.210542,26.0238949 L76.210542,26.0238949 Z M88.4579575,26.0238949 L95.3420024,26.0238949 L95.3420024,16.5175182 L102.302614,16.5175182 L102.302614,26.0238949 L109.144895,26.0238949 L109.144895,0.811631016 L102.302614,0.790919953 L102.302614,10.5044071 L95.3350417,10.5044071 L95.3350417,0.811631016 L88.4509967,0.811631016 L88.4509967,26.0238949 L88.4579575,26.0238949 Z M11.5948801,7.27031087 L12.2051265,7.47776203 L13.0234113,7.87883425 L13.7792847,8.38363205 L14.4519426,8.97141031 L15.0413851,9.64216903 L15.5268083,10.3959083 L15.9082123,11.1911377 L16.1578585,12.0278573 L16.3034855,12.8438318 L16.3450932,13.597571 L16.2826816,14.3513101 L16.1370547,15.1465395 L15.8388661,15.9625141 L15.4366583,16.7577435 L14.8472158,17.5322278 L14.1121464,18.2444767 L13.2938615,18.8530001 L12.4339688,19.2955625 L11.5948801,19.5929092 L11.5948801,25.9270843 L12.2051265,25.8441038 L13.6336577,25.4845218 L14.9789735,25.0004692 L16.1162508,24.4334361 L17.2119204,23.7211871 L18.2243745,22.9052126 L19.1050709,22.0477478 L19.8817481,21.0796424 L20.6376215,19.9455762 L21.0398293,19.2748174 L21.0398293,26.0238949 L35.0269529,26.0238949 L35.0269529,19.9455762 L27.7872122,19.9455762 L27.7872122,16.4603968 L35.0200183,16.4603968 L35.0200183,10.4581435 L27.7872122,10.4581435 L27.7872122,6.74476796 L35.0200183,6.74476796 L35.0200183,0.790919953 L21.0328947,0.790919953 L21.0328947,7.77510868 L20.8872677,7.37403646 L20.3186291,6.43359124 L19.5419519,5.40325052 L18.5294977,4.33141958 L17.4754359,3.4324646 L16.4005701,2.69947053 L15.1592736,2.07020205 L13.6267231,1.52391401 L12.1149765,1.12284179 L11.5879455,1.03986133 L11.5948801,7.27031087 L11.5948801,7.27031087 L11.5948801,7.27031087 Z M62.6892049,2.34392948 L62.6892049,13.7295115 L61.1466892,16.0920369 L62.6892049,16.0920369 L62.6892049,21.9398041 L58.7286917,21.9398041 L58.2423129,22.4219521 L57.2487105,23.31737 L56.2134184,24.1094703 L55.1155919,24.7775897 L53.9552312,25.3423917 L52.7531807,25.8038763 L51.5094406,26.1344921 L50.2240108,26.3617905 L48.9177363,26.4444444 L47.6323066,26.423781 L46.3677217,26.258473 L45.0614472,25.9691842 L43.7343278,25.5283631 L42.5114325,24.9842246 L41.434451,24.3161051 L40.3991589,23.5653318 L39.495884,22.7319044 L38.6551435,21.7882718 L37.8977822,20.7826487 L37.2446449,19.6737082 L36.6540421,18.3787962 L36.1676632,16.9599034 L35.8480429,15.6443279 L35.7021292,14.3494161 L35.6604396,13.0958311 L35.7646636,11.8215827 L35.9731117,10.5679977 L36.3135769,9.33507629 L36.7999557,8.10215483 L37.4114034,6.91056036 L38.127075,5.8429468 L38.9261259,4.8579872 L39.8085561,3.98323287 L40.8021585,3.19113249 L41.8582953,2.48168607 L43.039501,1.85489359 L44.3666203,1.31075507 L45.7145844,0.931924456 L46.9791693,0.704626086 L48.264599,0.580645156 L49.5500288,0.621972136 L50.8146137,0.745953067 L52.0791986,1.04212973 L53.3437835,1.46228732 L54.545834,1.96509887 L55.6645052,2.59189134 L56.6997972,3.32200126 L57.6447618,4.13476512 L58.4438127,4.92686549 L58.7634331,5.30569611 L55.2684539,10.6988665 L54.8237647,10.2993724 L54.3790756,9.89987828 L53.3854731,9.16976839 L52.2668018,8.50164894 L51.0647513,7.95751041 L49.8627008,7.62000678 L48.806564,7.49602585 L47.7921167,7.55801631 L46.7568248,7.80597817 L45.7423775,8.18480878 L44.9224818,8.70828382 L44.2484998,9.27308583 L43.6787417,9.94120533 L43.1923629,10.6919787 L42.8380012,11.5047425 L42.5878635,12.3588334 L42.4836395,13.2129242 L42.4836395,14.0670151 L42.6295532,14.9211059 L42.9005356,15.7545332 L43.2826904,16.5672972 L43.789914,17.2974071 L44.4013617,17.9448631 L45.0753438,18.468338 L45.8327049,18.9091591 L46.6734456,19.2466628 L47.6184101,19.4532977 L48.5703228,19.5566151 L49.4735977,19.4946246 L50.3143384,19.3293167 L51.1550789,19.0124766 L51.9124402,18.6198702 L52.6281118,18.1170587 L53.1978699,17.6142472 L53.4480075,17.3662854 L62.6892049,2.34392948 L62.6892049,2.34392948 Z M6.77391252,19.94366 L6.77391252,6.93333909 L8.66039861,6.93333909 L9.58966769,6.95406716 L10.4770148,7.03697946 L11.343401,7.18207597 L11.5739716,7.26498827 L11.5739716,1.03965683 L10.5538717,0.89456032 L8.81411228,0.790919953 L0.185185185,0.790919953 L0.185185185,26.0238949 L10.1067046,26.0238949 L11.0359737,25.9824388 L11.5879455,25.9202545 L11.5879455,19.5912827 L11.5041017,19.6120108 L10.4840018,19.8192915 L9.29621429,19.9022039 L8.63943765,19.94366 L6.77391252,19.94366 L6.77391252,19.94366 Z" id="Shape"></path>
                    </g>
                </g>
            </g>
        </g>
    </g>
</svg>