<?xml version="1.0" encoding="UTF-8"?>
<svg viewBox="0 0 2208.7 453.7" version="1.1" xmlns="http://www.w3.org/2000/svg" xmlns:xlink="http://www.w3.org/1999/xlink">
  <path  d="M590.8 290.5v30.6c5.5-7.2 12.5-10.2 20.5-10.2 17.1 0 27.6 13.7 27.6 31.5 0 17.9-10.6 31.6-27.6 31.6-7.9 0-15-3-20.5-10.2v8.9h-12.7v-82.1l12.7-.1zm17.6 72.1c11.5 0 17-9 17-20.1 0-11-5.5-20.2-17-20.2s-17.6 9.2-17.6 20.2c0 11.2 6.1 20.1 17.6 20.1zm72.2 12.4c-4.7 12.4-10 18.7-21.5 18.7-5.3 0-9.8-1.4-13.7-4.1l5.2-9c2.1 1.5 4.5 2.4 7.1 2.4 4.9 0 7.4-3.5 9.5-7.9l1.6-3.3-25.2-59.6h14.6l17.3 43.6 15.4-43.6h13.7l-24 62.8zm101.9-5.5c-3.8 2.9-8.5 4.5-14.4 4.5-7.4 0-13-2.4-16.3-7.7-2.1-3.1-2.9-6.8-2.9-12.7V322h-10.1v-9.8h10.1V296h12.8v16.2h18.6v9.8h-18.6v31.7c0 6.1 2.9 9 8.2 9 3.3 0 5.9-1.3 7.6-2.6l5 9.4zm44-44c-2-1-4.1-1.8-6.9-1.8-7.7 0-14.5 6.7-14.5 18.2v30.7h-12.7v-60.4h12.7v9.8c4-6.3 10-10.9 17-10.9 3.3 0 6.3.9 8.1 2.1l-3.7 12.3zm61.2 48c-5.6 0-10.8-2.6-12.1-9-4.9 7.1-13 9.4-20.1 9.4-12.4 0-20.7-6.8-20.7-18.6 0-15 13.2-17.3 23.6-18.4 8.7-.9 15.3-1.7 15.3-7.6 0-6-6.7-7.7-12.3-7.7-6.2 0-13.2 2.1-18.9 6.1l-5.1-9.5c7.5-4.8 15.4-7.4 24.8-7.4 14.3 0 24.3 5.8 24.3 20.2v27.5c0 3.9 1.3 5.5 4.3 5.5 1.1 0 2.5-.2 3.3-.8l1.4 8.7c-2 1.1-5.5 1.6-7.8 1.6zm-13.9-33c-3.5 4.4-8.6 4.4-15.1 5.4s-11.2 2.9-11.2 9.2 4.8 9 11 9c7.9 0 15.2-4.3 15.2-14.4l.1-9.2zm31.5 32.1v-60.4H918v8.9c4.9-6.6 11.6-10.2 19.8-10.2 13.2 0 20.8 8.9 20.8 22.4v39.3h-12.7v-36.5c0-6.4-2.1-13.7-12-13.7-9 0-16 6.3-16 16.3v33.8h-12.6v.1zm92.1 1.4c-12.3 0-22.3-4.7-28.1-13.6l9-6.3c4.6 6.4 12 9.5 19.8 9.5 7.5 0 12.5-2.8 12.5-8.1 0-5.5-5.5-6.7-15.3-8.3-12.7-2.2-22.8-5.8-22.8-18.2 0-12.5 11.2-18.3 23.7-18.3 12.2 0 21 5.3 26 10.6l-8.1 7.4c-4-4.6-10.5-7.6-18.1-7.6-5.8 0-11.3 2.1-11.3 6.8 0 5.3 6.4 6.4 14.4 7.8 12.9 2.3 23.9 5.6 23.9 18.4.2 11.9-9.5 19.9-25.6 19.9zm38.8-1.4v-82.1h12.7v82.1h-12.7zm78.1.9c-5.6 0-10.8-2.6-12.1-9-4.9 7.1-13 9.4-20.1 9.4-12.4 0-20.7-6.8-20.7-18.6 0-15 13.2-17.3 23.6-18.4 8.7-.9 15.3-1.7 15.3-7.6 0-6-6.7-7.7-12.3-7.7-6.2 0-13.2 2.1-18.9 6.1l-5.1-9.5c7.5-4.8 15.4-7.4 24.8-7.4 14.3 0 24.3 5.8 24.3 20.2v27.5c0 3.9 1.3 5.5 4.3 5.5 1.1 0 2.5-.2 3.3-.8l1.4 8.7c-2.1 1.1-5.6 1.6-7.8 1.6zm-14-33c-3.5 4.4-8.6 4.4-15.1 5.4s-11.2 2.9-11.2 9.2 4.8 9 11 9c7.9 0 15.2-4.3 15.2-14.4l.1-9.2zm68.2 29c-3.8 2.9-8.5 4.5-14.4 4.5-7.4 0-13-2.4-16.3-7.7-2.1-3.1-2.9-6.8-2.9-12.7V322h-10.1v-9.8h10.1V296h12.8v16.2h18.6v9.8h-18.6v31.7c0 6.1 2.9 9 8.2 9 3.3 0 5.9-1.3 7.6-2.6l5 9.4zm65.8-24h-46c.6 11 7.8 17.1 18.5 17.1 7.1 0 13-2.8 17.5-7.6l8.3 7.9c-6.3 6.7-14.7 10.9-26.2 10.9-20.4 0-31.6-13.5-31.6-31.3 0-17.9 11.4-31.9 30.4-31.9 18.3 0 29.4 13 29.4 30.4-.1 2-.2 3.5-.3 4.5zm-12.5-9.2c-.9-10.1-7.9-15.3-16.6-15.3-9.5 0-16 6.3-16.7 15.3h33.3zm69.7 36.3v-8.9c-5.4 7.2-12.5 10.2-20.4 10.2-17.1 0-27.7-13.7-27.7-31.5 0-17.9 10.6-31.6 27.7-31.6 7.9 0 15 3 20.4 10.2v-30.6h12.8v82.1l-12.8.1zm-17.6-50.4c-11.5 0-17 9.1-17 20.2 0 11.2 5.5 20.1 17 20.1 11.6 0 17.6-9 17.6-20.1 0-11.2-6.1-20.2-17.6-20.2zM240.6 184.5v147.8h-37.8V184.5H132v-32.9h108.6v32.9z"/>
  <circle cx="298" cy="172.3" r="21.3"/>
  <path d="M226.8 32c107.6 0 194.8 87.2 194.8 194.8s-87.2 194.8-194.8 194.8S32 334.5 32 226.9C32.1 119.3 119.3 32.1 226.8 32m0-32C101.6 0 0 101.6 0 226.9s101.6 226.8 226.8 226.8 226.9-101.6 226.9-226.9S352.1 0 226.8 0zm349.7 241.8V72.3H612v24.1c13.7-17.9 31-28 52.8-28 24.8 0 42.1 11.7 49.2 32.3 15-20.9 35.5-32.3 59-32.3 37.2 0 56.7 24.4 56.7 61.9v111.5h-35.5v-103c0-18.6-5.2-37.8-31.9-37.8-23.5 0-41.7 17.3-41.7 45.3v95.5h-35.5v-103c0-18.6-5.2-37.8-31.9-37.8-23.8 0-41.7 17.3-41.7 45.3v95.5h-35zm367.4 3.6c-52.5 0-85.7-36.8-85.7-88.3 0-51.8 33.2-88.7 85.7-88.7s85.7 36.8 85.7 88.7c.4 51.8-32.9 88.3-85.7 88.3zm0-146c-30.6 0-48.2 24.8-48.2 57.7 0 32.6 17.3 57.4 48.2 57.4 30.6 0 47.9-24.8 47.9-57.4 0-32.9-17.2-57.7-47.9-57.7zm243.5 142.4V217c-15.3 20.2-35.2 28.7-57 28.7-48.2 0-77.9-38.5-77.9-88.3 0-50.2 29.7-88.7 77.9-88.7 22.2 0 42.1 8.5 57 28.7V11.7h35.9v230.5h-35.9v-.4zm-49.5-141.4c-32.3 0-47.9 25.4-47.9 56.7s15.6 56.4 47.9 56.4c32.6 0 49.2-25.1 49.2-56.4.3-31.6-17-56.7-49.2-56.7zm282.6 65.5h-129.1c1.6 31 21.8 48.2 51.8 48.2 19.9 0 36.5-7.8 48.9-21.2l23.1 22.2c-17.6 18.6-41.4 30.6-73.7 30.6-57 0-88.7-37.8-88.7-87.7 0-50.2 31.9-89.3 85.1-89.3 51.2 0 82.5 36.5 82.5 85.1.7 4.9.4 9.2.1 12.1zm-35.2-25.8c-2.6-28.4-22.2-43-46.6-43-26.7 0-45 17.6-46.9 43h93.5zm160.4-30.3c-5.5-2.9-11.7-5.2-19.2-5.2-21.5 0-40.7 18.6-40.7 50.9v86.1h-35.5V72h35.5v27.4c11.4-17.6 28-30.6 47.9-30.6 9.5 0 17.6 2.6 22.5 5.9l-10.5 35.1zm35.5 132V72.3h35.5v24.8c14-18.3 32.6-28.7 55.4-28.7 37.2 0 58.3 24.8 58.3 62.9v110.5h-35.5V139.5c0-17.9-5.9-38.5-33.6-38.5-25.1 0-45 17.6-45 46v94.9l-35.1-.1z"/>
  <path class="violet" d="M1963.6 241.8V66.5l-63.9 175.4h-31.6l-63.6-175v175h-36.8V27h55.4l61.3 167.9L1945.6 27h54.4v214.8h-36.4zM2138 59.6v181.9h-37.8V59.6h-70.7V26.7h179.3v32.9H2138z"/>
</svg>
