<?xml version="1.0" encoding="utf-8"?>
<!-- Generator: Adobe Illustrator 27.3.0, SVG Export Plug-In . SVG Version: 6.00 Build 0)  -->
<svg version="1.1" id="Layer_1" xmlns="http://www.w3.org/2000/svg" xmlns:xlink="http://www.w3.org/1999/xlink" x="0px" y="0px"
	 viewBox="0 0 780.8 642.9" style="enable-background:new 0 0 780.8 642.9;" xml:space="preserve">
<style type="text/css">
	.st0{fill:#6610F2;}
</style>
<g>
	<g>
		<g>
			<g>
				<path d="M401.5,148.7v119.1H371V148.7h-57v-26.5h87.5V148.7L401.5,148.7z"/>
			</g>
			<circle cx="447.7" cy="138.8" r="17.2"/>
			<g>
				<path d="M390.3,25.8c86.7,0,157,70.3,157,157s-70.2,157.1-157,157.1s-157-70.3-157-157l0,0C233.5,96.1,303.7,25.9,390.3,25.8
					 M390.3,0C289.4,0,207.6,81.8,207.6,182.8s81.8,182.9,182.8,182.9s182.9-81.8,182.9-182.9S491.4,0,390.3,0z"/>
			</g>
		</g>
	</g>
	<g>
		<path d="M234.5,597v13.6c2.4-3.2,5.6-4.5,9.1-4.5c7.6,0,12.3,6.1,12.3,14c0,8-4.7,14.1-12.3,14.1c-3.5,0-6.7-1.3-9.1-4.5v4h-5.7
			V597L234.5,597L234.5,597z M242.3,629.1c5.1,0,7.6-4,7.6-8.9c0-4.9-2.4-9-7.6-9c-5.1,0-7.8,4.1-7.8,9
			C234.5,625.1,237.2,629.1,242.3,629.1z"/>
		<path d="M274.4,634.6c-2.1,5.5-4.4,8.3-9.6,8.3c-2.4,0-4.4-0.6-6.1-1.8l2.3-4c0.9,0.7,2,1.1,3.2,1.1c2.2,0,3.3-1.6,4.2-3.5
			l0.7-1.5L258,606.6h6.5l7.7,19.4l6.9-19.4h6.1L274.4,634.6z"/>
		<path d="M319.8,632.1c-1.7,1.3-3.8,2-6.4,2c-3.3,0-5.8-1.1-7.3-3.4c-0.9-1.4-1.3-3-1.3-5.7V611h-4.5v-4.4h4.5v-7.2h5.7v7.2h8.3
			v4.4h-8.3v14.1c0,2.7,1.3,4,3.6,4c1.5,0,2.6-0.6,3.4-1.2L319.8,632.1z"/>
		<path d="M339.4,612.5c-0.9-0.4-1.8-0.8-3.1-0.8c-3.4,0-6.5,3-6.5,8.1v13.7h-5.7v-26.9h5.7v4.4c1.8-2.8,4.4-4.8,7.6-4.8
			c1.5,0,2.8,0.4,3.6,0.9L339.4,612.5z"/>
		<path d="M366.6,633.9c-2.5,0-4.8-1.2-5.4-4c-2.2,3.2-5.8,4.2-8.9,4.2c-5.5,0-9.2-3-9.2-8.3c0-6.7,5.9-7.7,10.5-8.2
			c3.9-0.4,6.8-0.8,6.8-3.4c0-2.7-3-3.4-5.5-3.4c-2.8,0-5.9,0.9-8.4,2.7l-2.3-4.2c3.3-2.1,6.9-3.3,11-3.3c6.4,0,10.8,2.6,10.8,9
			v12.2c0,1.7,0.6,2.4,1.9,2.4c0.5,0,1.1-0.1,1.5-0.4l0.6,3.9C369.2,633.7,367.6,633.9,366.6,633.9z M360.4,619.2
			c-1.6,2-3.8,2-6.7,2.4s-5,1.3-5,4.1c0,2.8,2.1,4,4.9,4c3.5,0,6.8-1.9,6.8-6.4L360.4,619.2L360.4,619.2z"/>
		<path d="M374.4,633.5v-26.9h5.7v4c2.2-2.9,5.2-4.5,8.8-4.5c5.9,0,9.3,4,9.3,10v17.5h-5.7v-16.2c0-2.8-0.9-6.1-5.3-6.1
			c-4,0-7.1,2.8-7.1,7.3v15L374.4,633.5L374.4,633.5z"/>
		<path d="M415.4,634.1c-5.5,0-9.9-2.1-12.5-6.1l4-2.8c2,2.8,5.3,4.2,8.8,4.2c3.3,0,5.6-1.2,5.6-3.6c0-2.4-2.4-3-6.8-3.7
			c-5.7-1-10.1-2.6-10.1-8.1c0-5.6,5-8.1,10.5-8.1c5.4,0,9.3,2.4,11.6,4.7l-3.6,3.3c-1.8-2-4.7-3.4-8.1-3.4c-2.6,0-5,0.9-5,3
			c0,2.4,2.8,2.8,6.4,3.5c5.7,1,10.6,2.5,10.6,8.2C426.9,630.6,422.6,634.1,415.4,634.1z"/>
		<path d="M432.7,633.5V597h5.7v36.5H432.7z"/>
		<path d="M467.4,633.9c-2.5,0-4.8-1.2-5.4-4c-2.2,3.2-5.8,4.2-8.9,4.2c-5.5,0-9.2-3-9.2-8.3c0-6.7,5.9-7.7,10.5-8.2
			c3.9-0.4,6.8-0.8,6.8-3.4c0-2.7-3-3.4-5.5-3.4c-2.8,0-5.9,0.9-8.4,2.7l-2.3-4.2c3.3-2.1,6.9-3.3,11-3.3c6.4,0,10.8,2.6,10.8,9
			v12.2c0,1.7,0.6,2.4,1.9,2.4c0.5,0,1.1-0.1,1.5-0.4l0.6,3.9C469.9,633.7,468.4,633.9,467.4,633.9z M461.2,619.2
			c-1.6,2-3.8,2-6.7,2.4s-5,1.3-5,4.1c0,2.8,2.1,4,4.9,4c3.5,0,6.8-1.9,6.8-6.4L461.2,619.2L461.2,619.2z"/>
		<path d="M491.5,632.1c-1.7,1.3-3.8,2-6.4,2c-3.3,0-5.8-1.1-7.3-3.4c-0.9-1.4-1.3-3-1.3-5.7V611h-4.5v-4.4h4.5v-7.2h5.7v7.2h8.3
			v4.4h-8.3v14.1c0,2.7,1.3,4,3.6,4c1.5,0,2.6-0.6,3.4-1.2L491.5,632.1z"/>
		<path d="M520.8,621.4h-20.5c0.3,4.9,3.5,7.6,8.2,7.6c3.2,0,5.8-1.2,7.8-3.4l3.7,3.5c-2.8,3-6.5,4.8-11.7,4.8
			c-9.1,0-14.1-6-14.1-13.9c0-8,5.1-14.2,13.5-14.2c8.1,0,13.1,5.8,13.1,13.5C520.9,620.3,520.8,621,520.8,621.4z M515.2,617.3
			c-0.4-4.5-3.5-6.8-7.4-6.8c-4.2,0-7.1,2.8-7.4,6.8H515.2z"/>
		<path d="M546.2,633.5v-4c-2.4,3.2-5.6,4.5-9.1,4.5c-7.6,0-12.3-6.1-12.3-14c0-8,4.7-14.1,12.3-14.1c3.5,0,6.7,1.3,9.1,4.5v-13.6
			h5.7v36.5L546.2,633.5L546.2,633.5z M538.4,611.1c-5.1,0-7.6,4-7.6,9c0,5,2.4,8.9,7.6,8.9c5.2,0,7.8-4,7.8-8.9
			C546.2,615.1,543.5,611.1,538.4,611.1z"/>
	</g>
	<g>
		<path d="M0,572v-81.1h17v11.5c6.6-8.6,14.8-13.4,25.3-13.4c11.9,0,20.1,5.6,23.5,15.4c7.2-10,17-15.4,28.2-15.4
			c17.8,0,27.1,11.7,27.1,29.6V572h-17v-49.3c0-8.9-2.5-18.1-15.3-18.1c-11.2,0-19.9,8.3-19.9,21.7V572h-17v-49.3
			c0-8.9-2.5-18.1-15.3-18.1c-11.4,0-19.9,8.3-19.9,21.7V572H0L0,572z"/>
		<path d="M175.7,573.7c-25.1,0-41-17.6-41-42.2c0-24.8,15.9-42.4,41-42.4s41,17.6,41,42.4C216.9,556.2,201,573.7,175.7,573.7z
			 M175.7,503.8c-14.6,0-23.1,11.9-23.1,27.6c0,15.6,8.3,27.5,23.1,27.5c14.6,0,22.9-11.9,22.9-27.5
			C198.6,515.7,190.4,503.8,175.7,503.8z"/>
		<path d="M292.2,572v-11.9c-7.3,9.7-16.8,13.7-27.3,13.7c-23.1,0-37.3-18.4-37.3-42.2c0-24,14.2-42.4,37.3-42.4
			c10.6,0,20.1,4.1,27.3,13.7v-41h17.2v110.3h-17.2V572z M268.5,504.3c-15.4,0-22.9,12.1-22.9,27.1c0,15,7.5,27,22.9,27
			c15.6,0,23.5-12,23.5-27C292.2,516.3,283.9,504.3,268.5,504.3z"/>
		<path d="M403.7,535.6H342c0.8,14.8,10.4,23.1,24.8,23.1c9.5,0,17.5-3.7,23.4-10.1l11,10.6c-8.4,8.9-19.8,14.6-35.3,14.6
			c-27.3,0-42.4-18.1-42.4-41.9c0-24,15.3-42.7,40.7-42.7c24.5,0,39.5,17.5,39.5,40.7C404,532.2,403.9,534.3,403.7,535.6z
			 M386.9,523.3c-1.2-13.6-10.6-20.6-22.3-20.6c-12.8,0-21.5,8.4-22.4,20.6H386.9z"/>
		<path d="M463.6,508.8c-2.6-1.4-5.6-2.5-9.2-2.5c-10.3,0-19.5,8.9-19.5,24.3v41.2h-17v-81.1h17v13.1c5.5-8.4,13.4-14.6,22.9-14.6
			c4.5,0,8.4,1.2,10.8,2.8L463.6,508.8z"/>
		<path d="M480.6,572v-81.1h17v11.9c6.7-8.8,15.6-13.7,26.5-13.7c17.8,0,27.9,11.9,27.9,30.1V572h-17V523c0-8.6-2.8-18.4-16.1-18.4
			c-12,0-21.5,8.4-21.5,22V572L480.6,572L480.6,572z"/>
		<path class="st0" d="M663.5,572v-83.9L632.9,572h-15.1l-30.4-83.7V572h-17.6V469.2h26.5l29.3,80.3l29.3-80.3h26V572H663.5z"/>
		<path class="st0" d="M746.9,484.8v87h-18.1v-87H695v-15.7h85.8v15.7C780.8,484.8,746.9,484.8,746.9,484.8z"/>
	</g>
</g>
</svg>
