<?xml version="1.0" encoding="UTF-8"?>
<svg width="108px" height="31px" viewBox="0 0 108 31" version="1.1" xmlns="http://www.w3.org/2000/svg" xmlns:xlink="http://www.w3.org/1999/xlink">
    <!-- Generator: Sketch 61.2 (89653) - https://sketch.com -->
    <title>shopify_logo_whitebg</title>
    <desc>Created with Sketch.</desc>
    <g id="Website" stroke="none" stroke-width="1" fill="none" fill-rule="evenodd">
        <g id="About-us" transform="translate(-657.000000, -1885.000000)" fill="#000000" fill-rule="nonzero">
            <g id="Logos" transform="translate(120.000000, 1704.000000)">
                <g transform="translate(0.000000, 168.000000)" id="shopify_logo_whitebg">
                    <g transform="translate(537.000000, 13.000000)">
                        <path d="M23.2375134,5.85081289 C23.215877,5.7002405 23.0860584,5.61419913 22.9778763,5.61419913 C22.8696942,5.61419913 20.5545975,5.4421164 20.5545975,5.4421164 C20.5545975,5.4421164 18.9535025,3.85035113 18.7587748,3.6782684 C18.5856834,3.50618567 18.2395007,3.54920635 18.1096821,3.59222703 C18.0880457,3.59222703 17.7634995,3.69977874 17.2009527,3.87186148 C16.6600422,2.30160654 15.7080397,0.881924002 14.0420356,0.881924002 C13.9987627,0.881924002 13.9554899,0.881924002 13.8905806,0.881924002 C13.4362158,0.279634439 12.8303961,-4.03233003e-13 12.3327585,-4.03233003e-13 C8.43820316,-4.03233003e-13 6.57747119,4.83982684 5.99328789,7.29200577 C4.47873861,7.76523328 3.39691769,8.0878884 3.26709918,8.1309091 C2.42327886,8.38903319 2.40164244,8.41054353 2.29346035,9.20642617 C2.20691468,9.80871573 -8.8817842e-15,26.8018855 -8.8817842e-15,26.8018855 L17.2009527,30.0069265 L26.5262489,28.0064646 C26.5262489,27.9849543 23.2591497,6.00138528 23.2375134,5.85081289 Z M16.2489502,4.12998556 C15.8162219,4.25904762 15.3185842,4.40962001 14.7993102,4.58170274 C14.7993102,4.47415104 14.7993102,4.38810967 14.7993102,4.25904762 C14.7993102,3.31259259 14.6694917,2.5382203 14.4531275,1.9144204 C15.3185842,2.04348244 15.8811311,3.01144781 16.2489502,4.12998556 Z M13.3713065,2.1295238 C13.6093071,2.73181337 13.7607621,3.57071669 13.7607621,4.73227513 C13.7607621,4.79680615 13.7607621,4.83982684 13.7607621,4.90435787 C12.8087597,5.20550265 11.791848,5.50664743 10.7532999,5.82930255 C11.3374832,3.61373737 12.4409406,2.5382203 13.3713065,2.1295238 Z M12.2245764,1.03249639 C12.3976678,1.03249639 12.5707591,1.09702742 12.722214,1.20457913 C11.4673017,1.78535834 10.1474802,3.24806157 9.58493335,6.19497836 C8.76274944,6.45310245 7.96220197,6.68971621 7.20492732,6.92632997 C7.85401988,4.68925445 9.43347841,1.03249639 12.2245764,1.03249639 Z M99.6921657,11.9057239 C99.6921657,11.9057239 100.543042,19.8332466 100.608494,20.8512617 L100.608494,20.8512617 L100.652129,20.8512617 C101.677544,17.6889166 103.990182,11.9057239 103.990182,11.9057239 L103.990182,11.9057239 L107.851852,11.9057239 L103.335662,21.5443785 C101.742996,24.836683 100.172147,27.2625915 98.4922118,28.8221042 C97.1831713,30.0350585 95.6123226,30.6631955 94.870533,30.8148148 L94.870533,30.8148148 L93.8451179,27.6957895 C94.4560034,27.4791905 95.2414278,27.154292 95.9395827,26.6561144 C96.7904591,26.0712972 97.5104314,25.2698809 97.9467783,24.4468049 C98.055865,24.2735257 98.0776824,24.1002464 98.0340476,23.8403277 L98.0340476,23.8403277 L95.8086786,11.9057239 Z M76.0557011,11.2053872 C78.736002,11.2053872 79.8383839,13.4612085 79.8383839,15.9824207 C79.8383839,20.5382952 77.0283909,25.049938 72.7269402,25.049938 C71.343559,25.049938 70.5870225,24.5633883 70.5870225,24.5633883 L70.5870225,24.5633883 L70.5005612,24.5633883 L69.4846406,30.1144781 L65.8316498,30.1144781 L68.3822588,16.4026227 C68.6632581,14.85451 68.9658727,12.7756158 69.1171801,11.4265462 L69.1171801,11.4265462 L72.3594796,11.4265462 L72.1433262,13.4390926 L72.1865569,13.4390926 C72.1865569,13.4390926 73.5915534,11.2053872 76.0557011,11.2053872 Z M11.7053023,10.2819432 C13.2631245,10.2604329 14.0420356,10.7121501 14.0420356,10.7121501 L12.8953054,14.110784 C12.8953054,14.110784 11.8783937,13.5730255 10.6451178,13.5730255 C8.8276587,13.5730255 8.74111303,14.7130735 8.74111303,14.992708 C8.74111303,16.5414526 12.8087597,17.1437422 12.8087597,20.7789899 C12.8087597,23.6398654 10.9913005,25.4897547 8.52474885,25.4897547 C5.56055953,25.4897547 4.06764666,23.6613756 4.06764666,23.6613756 L4.86819413,21.0586244 C4.86819413,21.0586244 6.42601626,22.3922655 7.72420136,22.3922655 C8.5896581,22.3922655 8.93584079,21.725445 8.93584079,21.2307071 C8.93584079,19.2087349 5.60383237,19.1226936 5.60383237,15.7885907 C5.60383237,12.9922463 7.61601927,10.2819432 11.7053023,10.2819432 Z M37.6318261,11.9057239 C39.862083,11.9057239 40.6195287,12.5028058 40.6195287,12.5028058 L40.6195287,12.5028058 L39.7989625,15.0617284 C39.7989625,15.0617284 38.7469545,14.5712683 37.5687057,14.5712683 C36.5587781,14.5712683 35.9065331,15.040404 35.9065331,15.7654321 C35.9065331,16.3411897 36.3694167,16.7676768 37.2741434,17.2581369 C38.6627938,18.0684625 39.8200026,19.1560045 39.8410427,20.7340068 C39.8410427,23.6127947 37.5266253,25.2121212 34.3285212,25.2121212 C32.1193047,25.2121212 30.8148148,24.3164984 30.8148148,24.3164984 L30.8148148,24.3164984 L31.6985015,21.7575757 C31.6985015,21.7575757 33.1292322,22.5465768 34.6230835,22.5465768 C35.6330111,22.5465768 36.1800552,21.9921436 36.1800552,21.3097643 C36.1800552,20.6487093 35.8013324,20.2008979 34.7072441,19.5824916 C33.360674,18.7934905 32.3507464,17.7059483 32.3507464,16.2558923 C32.3507464,13.718294 34.5178827,11.9057239 37.6318261,11.9057239 Z M47.7799348,6.30303031 L46.3864427,13.7269228 L46.4293193,13.7487578 C47.3940447,12.569669 48.6589069,11.7836098 50.2667825,11.7836098 C52.1747949,11.7836098 53.2467121,13.0282035 53.2252737,15.1461964 C53.2252737,15.8012457 53.118082,16.7619847 52.9680136,17.5698789 L52.9680136,17.5698789 L51.553083,25.2121212 L47.9300032,25.2121212 L49.3020571,17.8100636 C49.4092488,17.3078592 49.4521255,16.6746449 49.4521255,16.1724403 C49.4521255,15.3645461 49.1305504,14.7968367 48.3158935,14.7968367 C47.1582229,14.7968367 45.9147991,16.3034502 45.4431556,18.7489677 L45.4431556,18.7489677 L44.2426085,25.2121212 L40.6195287,25.2121212 L44.156855,6.30303031 L47.7799348,6.30303031 Z M61.7318373,11.9057239 C65.0645404,11.9057239 66.5527287,14.3501899 66.5317683,16.9434494 C66.5317683,21.4072568 63.7021147,25.2121212 59.5100352,25.2121212 C56.3240548,25.2121212 54.6262626,22.9589613 54.6262626,20.1743957 C54.6262626,15.8168695 57.4559162,11.9057239 61.7318373,11.9057239 Z M86.1414142,12.6060606 L83.5891308,25.2121212 L79.8383839,25.2121212 L82.3684735,12.6060606 L86.1414142,12.6060606 Z M95.3164134,6.30303031 C96.7067878,6.30303031 97.3468013,6.62607855 97.3468013,6.62607855 L97.3468013,6.62607855 L96.61851,9.4904397 C96.61851,9.4904397 96.0888436,9.29661075 95.4267607,9.29661075 C94.1688028,9.29661075 93.4184421,10.3949748 93.1977478,11.6440947 L93.1977478,11.6440947 L93.0653312,12.2471181 L95.6695244,12.2471181 L95.139858,15.0037965 L92.5577342,15.0037965 L90.5714852,25.2121212 L86.8417509,25.2121212 L88.8279999,15.0037965 L87.0845146,15.0037965 L87.6362504,12.2471181 L89.3797357,12.2471181 L89.4900828,11.6440947 C89.7769856,10.0934631 90.3728602,8.56436806 91.6528875,7.50907711 C92.6680814,6.66915166 93.9922473,6.30303031 95.3164134,6.30303031 Z M61.2497481,14.6690332 C59.3213916,14.6690332 58.2733717,18.0275169 58.2733717,20.0893708 C58.2733717,21.4072568 58.7764213,22.4488119 59.9921243,22.4488119 C61.8575996,22.4488119 62.9265799,19.0478157 62.9265799,16.8371682 C62.9265799,15.774357 62.507372,14.6690332 61.2497481,14.6690332 Z M74.5426279,14.2794968 C73.2673235,14.2794968 72.0784802,15.8276095 71.6461736,18.1718944 L71.6461736,18.1718944 L71.0409445,21.6662059 C71.0409445,21.6662059 71.6029431,22.2191033 72.5540175,22.2191033 C74.6074739,22.2191033 76.0124704,18.7690235 76.0124704,16.3362751 C76.0124704,15.3410597 75.6666251,14.2794968 74.5426279,14.2794968 Z M84.8916421,6.30303031 C86.0756366,6.30303031 86.8417509,7.10669537 86.8417509,8.25478833 C86.8185352,9.67842359 85.7738341,10.5050505 84.5434084,10.5050505 L84.5434084,10.5050505 L84.4969772,10.5050505 C83.3826292,10.5050505 82.6397306,9.70138543 82.6397306,8.55329249 C82.6397306,7.29039025 83.6380006,6.30303031 84.8916421,6.30303031 Z" id="Combined-Shape"></path>
                    </g>
                </g>
            </g>
        </g>
    </g>
</svg>
