<?xml version="1.0" encoding="UTF-8"?>
<svg width="208px" height="31px" viewBox="0 0 208 31" version="1.1" xmlns="http://www.w3.org/2000/svg" xmlns:xlink="http://www.w3.org/1999/xlink">
    <!-- Generator: Sketch 61.2 (89653) - https://sketch.com -->
    <title>SurveyMonkey-logo</title>
    <desc>Created with Sketch.</desc>
    <g id="Website" stroke="none" stroke-width="1" fill="none" fill-rule="evenodd">
        <g id="About-us" transform="translate(-828.000000, -1885.000000)" fill="#000000" fill-rule="nonzero">
            <g id="Logos" transform="translate(120.000000, 1704.000000)">
                <g transform="translate(0.000000, 168.000000)" id="SurveyMonkey-logo">
                    <g transform="translate(708.000000, 13.000000)">
                        <path d="M192.89488,13.2988379 L196.187639,21.302686 L199.480397,13.2988379 L202.32599,13.2988379 L195.171355,30.7472265 L192.285109,30.7472265 L194.764841,24.7843598 L190.049286,13.2988379 L192.89488,13.2988379 Z M110.332012,13.2988379 L113.62477,21.302686 L116.917529,13.2988379 L119.763122,13.2988379 L112.567835,30.7472265 L109.722242,30.7472265 L112.201973,24.7843598 L107.486418,13.2988379 L110.332012,13.2988379 Z M23.3106254,0.0124502388 L23.6285035,0.823259732 C21.6417662,2.28271682 21.5622967,3.86379533 21.5225619,5.24217147 L21.5225619,5.24217147 L21.8801746,5.30298219 L21.8801746,5.30298219 L22.2377874,5.3637929 C27.760917,6.37730477 32.1714737,10.5935141 33.5621897,16.1070187 C33.9198024,16.0259378 34.3171499,15.9853972 34.6747625,15.9853972 C35.231049,15.9853972 35.8270702,16.1070187 36.3038872,16.3502616 C38.6879718,17.2826925 39.8402795,20.0394447 38.9263803,22.4718732 C38.0124812,24.9043017 35.3105185,26.0799755 32.9264338,25.1475445 C32.5290863,26.1610565 32.0125346,27.1340279 31.4165134,28.0259182 L31.4165134,28.0259182 L27.5622432,25.3907874 L27.601978,25.3502469 C28.6748161,23.8097089 29.2708372,21.9853875 29.3503067,20.0799852 C29.469511,17.9313401 28.9529593,15.7826949 27.601978,14.5259401 C24.8205458,12.1340521 21.8007052,13.228645 19.8934374,15.5394521 L19.8934374,15.5394521 L19.3768857,15.5394521 C17.4696179,13.228645 14.4497773,12.0935117 11.6683451,14.5259401 C10.3173638,15.7826949 9.80081214,17.9313401 9.92001637,20.0799852 C9.99948585,21.9853875 10.595507,23.8097089 11.6683451,25.3502469 L11.6683451,25.3502469 L11.7080799,25.3907874 L7.85380962,28.0259182 C7.25778844,27.1340279 6.74123675,26.1610565 6.3438893,25.1475445 C5.46972491,25.5124088 4.47635628,25.5934898 3.52272241,25.3502469 C1.01943346,24.7015993 -0.490486856,22.1475494 0.145269065,19.5934995 C0.781024987,17.0394496 3.28431393,15.4989115 5.78760287,16.1475591 C7.17831896,10.5935141 11.5888757,6.37730477 17.1120052,5.32325242 L17.1120052,5.32325242 L17.0798438,5.12479025 C16.9121151,4.27106164 16.3797507,3.50472256 15.6418196,3.05298584 L15.6418196,3.05298584 L16.0789018,2.32325729 C16.9928009,2.56650015 18.7808645,3.70163343 18.9795383,4.63406436 C19.4166204,1.22866447 23.3106254,0.0124502388 23.3106254,0.0124502388 L23.3106254,0.0124502388 Z M101.591974,13.0587225 C105.4132,13.0587225 107.323813,15.980127 107.323813,19.3817624 C107.323813,19.6218779 107.283161,19.8619933 107.283161,20.142128 L98.5024723,20.142128 C98.7870317,22.0630515 100.169177,23.143571 101.957836,23.143571 C103.177376,23.143571 104.396916,22.6233209 105.209943,21.7428975 L106.795345,23.143571 C105.616457,24.5842636 103.787146,25.3846484 101.917185,25.3446292 C98.4211697,25.3046099 95.7381813,22.8234171 95.7381813,19.2216855 L95.7381813,19.1816662 C95.7381813,15.8200501 98.1772616,13.0587225 101.591974,13.0587225 Z M184.154842,13.0587225 C187.976068,13.0587225 189.886681,15.980127 189.886681,19.3817624 C189.886681,19.6218779 189.846029,19.8619933 189.846029,20.142128 L181.06534,20.142128 C181.3499,22.0630515 182.732045,23.143571 184.520704,23.143571 C185.740244,23.143571 186.959784,22.6233209 187.772812,21.7428975 L189.358214,23.143571 C188.179324,24.5842636 186.350015,25.3846484 184.480053,25.3446292 C180.984038,25.3046099 178.30105,22.8234171 178.30105,19.2216855 L178.30105,19.1816662 C178.30105,15.8200501 180.74013,13.0587225 184.154842,13.0587225 Z M64.5992561,13.2988379 L64.5992561,19.982051 C64.5992561,21.8229361 65.5342369,22.8634363 67.1602904,22.8634363 C68.7863439,22.8634363 69.8432787,21.7829169 69.8432787,19.9420318 L69.8432787,13.2988379 L72.5669184,13.2988379 L72.5669184,25.0644945 L69.8432787,25.0644945 L69.8432787,23.8639173 C68.8676466,24.8643983 67.5261524,25.4246677 66.1033556,25.3046099 C63.4610187,25.3046099 61.8756165,23.5037441 61.8756165,20.7824358 L61.8756165,13.2988379 L64.5992561,13.2988379 Z M145.658025,12.8986455 C149.15404,12.8986455 152.040285,15.6999924 152.040285,19.141647 L152.040285,19.1816662 C152.040285,22.5833017 149.235343,25.3046099 145.779979,25.3046099 L145.658025,25.3046099 L145.658025,25.3046099 C142.243312,25.3846484 139.397719,22.7433786 139.316416,19.3817624 L139.316416,19.1816662 C139.316416,15.7400116 142.16201,12.8986455 145.658025,12.8986455 Z M59.5584902,11.1778182 L58.0543906,13.2588187 C56.6315938,12.2183185 55.2087969,11.6580491 53.7453488,11.6580491 C52.1192952,11.6580491 51.1843144,12.4984531 51.1843144,13.4989342 L51.1843144,13.5389534 C51.1843144,14.7395306 51.9160385,15.2597807 54.9242376,15.980127 C58.2576473,16.7805118 60.0056549,17.981089 60.0056549,20.5423204 L60.0056549,20.5823397 C60.0056549,23.5037441 57.6885286,25.2245715 54.3551188,25.2245715 C51.9566899,25.2645907 49.5989122,24.3841675 47.8102534,22.7833978 L49.4769582,20.8224551 C50.9810577,22.1030707 52.4851573,22.8634363 54.4770728,22.8634363 C56.1844291,22.8634363 57.2820152,22.1030707 57.2820152,20.9024935 L57.2820152,20.8224551 C57.2820152,19.7019163 56.6315938,19.1016278 53.7046974,18.4213007 C50.3306363,17.6209159 48.4200234,16.6604541 48.4200234,13.7790688 L48.4200234,13.7390496 C48.4200234,11.0577605 50.6964984,9.21687547 53.8266514,9.21687547 C55.8998697,9.17685623 57.9730879,9.85718331 59.5584902,11.1778182 Z M86.3883735,13.2988379 L89.5998292,21.4627629 L92.8519362,13.2988379 L95.7381813,13.2988379 L90.8600206,25.144533 L88.3802891,25.144533 L83.4614771,13.2988379 L86.3883735,13.2988379 Z M170.089479,8.77666383 L170.089479,18.5013392 L175.048942,13.2988379 L178.382353,13.2988379 L173.626145,18.1011467 L178.544958,25.0644945 L175.374153,25.0644945 L171.756184,19.982051 L170.089479,21.7028783 L170.089479,25.0644945 L167.365839,25.0644945 L167.365839,8.77666383 L170.089479,8.77666383 Z M160.333158,13.0587225 C163.016146,13.0587225 164.601548,14.8195691 164.601548,17.5808966 L164.601548,25.0644945 L161.877909,25.0644945 L161.877909,18.3812814 C161.877909,16.5403964 160.942928,15.4998962 159.316874,15.4998962 C157.690821,15.4998962 156.633886,16.5804156 156.633886,18.4213007 L156.633886,25.0644945 L153.869595,25.0644945 L153.869595,13.2988379 L156.593235,13.2988379 L156.593235,14.4994151 C157.568867,13.4989342 158.910361,12.9386648 160.333158,13.0587225 Z M124.763237,9.45699091 L129.560095,17.4208197 L134.397604,9.45699091 L137.3245,9.45699091 L137.3245,25.0244753 L134.560209,25.0244753 L134.560209,13.8591073 L129.560095,21.7829169 L129.478792,21.7829169 L124.519329,13.8991266 L124.519329,25.0244753 L121.795689,25.0244753 L121.795689,9.45699091 L124.763237,9.45699091 Z M82.485845,13.0587225 L82.485845,15.4598769 L82.3232396,15.4598769 C79.9248107,15.4598769 78.2581058,17.0206273 78.2581058,20.5823397 L78.2581058,25.0244753 L75.5344661,25.0244753 L75.5344661,13.2988379 L78.2581058,13.2988379 L78.2581058,15.2597807 C78.9898299,13.4989342 80.3719753,12.978684 82.485845,13.0587225 Z M145.658025,15.3798384 C143.503504,15.3798384 142.040056,17.0606465 142.040056,19.1016278 L142.040056,19.141647 C142.040056,21.1826283 143.544155,22.9434748 145.698676,22.9434748 C147.9345,22.983494 149.316645,21.2626667 149.316645,19.2216855 L149.316645,19.1816662 C149.316645,17.1006658 147.812546,15.3798384 145.658025,15.3798384 Z M35.9065397,19.9583637 C35.4694575,19.3097161 34.6350278,19.1475543 33.9992719,19.5934995 C33.9595372,20.3232281 33.9198024,21.0529566 33.8403329,21.7826852 C34.0787415,22.0259279 34.4363541,22.1475494 34.7542321,22.1475494 C35.5091922,22.1475494 36.1052134,21.4989018 36.1449481,20.7286328 C36.1449481,20.48539 36.0654786,20.2016066 35.9065397,19.9583637 Z M4.59556052,19.3502567 C3.88033511,19.3907972 3.32404868,19.9583637 3.28431393,20.6880923 C3.24457919,21.4583614 3.84060037,22.1070089 4.59556052,22.1475494 C4.91343848,22.1475494 5.23131644,21.9853875 5.50945966,21.7826852 C5.42999016,21.0529566 5.35052068,20.3232281 5.35052068,19.5934995 C5.15184696,19.4313376 4.87370374,19.3502567 4.59556052,19.3502567 Z M101.551323,15.2597807 C99.8846178,15.2597807 98.7057289,16.5403964 98.4618209,18.3412622 L104.600173,18.3412622 C104.437568,16.6204349 103.380633,15.2597807 101.551323,15.2597807 Z M184.114191,15.2597807 C182.447486,15.2597807 181.268597,16.5403964 181.024689,18.3412622 L187.163041,18.3412622 C187.000436,16.6204349 185.943501,15.2597807 184.114191,15.2597807 Z M205.374841,13.1787802 C205.700051,13.1787802 206.025262,13.2588187 206.350473,13.4188957 C206.675684,13.5789726 206.919591,13.8190881 207.082197,14.139242 C207.448059,14.7395306 207.448059,15.4598769 207.082197,16.0601655 C207.037481,16.1482078 206.986615,16.2301973 206.929602,16.3061338 L207.364617,16.8205314 L206.708642,16.8205314 L206.575124,16.6482599 C206.505133,16.6971601 206.430249,16.7412441 206.350473,16.7805118 C206.065914,16.9405888 205.700051,17.0206273 205.374841,17.0206273 C205.04963,17.0206273 204.683768,16.9405888 204.399208,16.7805118 C204.073998,16.6204349 203.830089,16.3803194 203.667484,16.0601655 C203.504879,15.7800308 203.423577,15.4198577 203.423577,15.0997038 C203.423577,14.7395306 203.504879,14.4193767 203.708136,14.139242 C203.870741,13.8190881 204.114649,13.5789726 204.43986,13.4188957 C204.683768,13.2588187 205.008979,13.1787802 205.374841,13.1787802 Z M205.933399,15.816275 L205.21779,15.816275 L205.217417,16.7033103 C205.552893,16.7339601 205.898908,16.6663158 206.187867,16.5003771 C206.251748,16.4689335 206.312841,16.4292545 206.371144,16.3834972 L205.933399,15.816275 Z M205.374841,13.4989342 C205.090281,13.4989342 204.805722,13.5789726 204.561815,13.6990304 C204.317906,13.8190881 204.073998,14.0592035 203.952044,14.2993189 C203.830089,14.5394344 203.748787,14.8195691 203.748787,15.0997038 C203.748787,15.3798384 203.830089,15.6599731 203.952044,15.9000885 C204.073998,16.140204 204.317906,16.3403002 204.561815,16.5003771 L204.615,16.5264502 L204.561815,14.0191846 L205.993033,14.0191846 C206.263164,14.0191846 206.499304,14.0794373 206.727116,14.1771984 C206.59368,13.9818677 206.390774,13.798906 206.187867,13.6990304 C205.903308,13.5789726 205.6594,13.4989342 205.374841,13.4989342 Z M205.933399,14.494885 L205.098521,14.494885 L205.098521,15.4462858 L205.933399,15.4462858 C206.309094,15.4462858 206.539878,15.2750337 206.582278,15.0481246 L206.589374,14.9705854 C206.589374,14.6534518 206.350838,14.494885 205.933399,14.494885 Z" id="Combined-Shape"></path>
                    </g>
                </g>
            </g>
        </g>
    </g>
</svg>