<?xml version="1.0" encoding="UTF-8"?>
<svg width="442px" height="312px" viewBox="0 0 442 312" version="1.1" xmlns="http://www.w3.org/2000/svg" xmlns:xlink="http://www.w3.org/1999/xlink">
    <!-- Generator: Sketch 61.2 (89653) - https://sketch.com -->
    <title>Illustration</title>
    <desc>Created with Sketch.</desc>
    <g id="Website" stroke="none" stroke-width="1" fill="none" fill-rule="evenodd">
        <g id="About-us" transform="translate(-174.000000, -1272.000000)">
            <g id="Spotlight" transform="translate(120.000000, 1232.000000)">
                <g id="Illustrations/contact" transform="translate(50.000000, 40.000000)">
                    <g id="taxi-1" transform="translate(4.500000, 0.000000)">
                        <g id="Layer_3" transform="translate(0.000000, 36.513158)" fill="#FECE2F" fill-rule="nonzero">
                            <g id="Layer_6">
                                <path d="M34.4161184,74.4078947 C64.8601974,36.1184211 171.809211,-21.3157895 224.876645,8.28947368 C269.235197,33.0345395 236.71875,64.5394737 250.534539,83.2894737 C264.350329,102.039474 331.455592,76.3815789 354.152961,101.052632 C376.850329,125.723684 307.771382,183.947368 322.574013,206.644737 C337.376645,229.342105 416.324013,249.078947 422.245066,302.368421 C428.166118,355.657895 311.71875,382.302632 237.705592,382.302632 C164.358553,382.302632 67.4753289,348.996711 25.5345395,268.815789 C-20.3042763,181.159539 3.82401316,112.894737 34.4161184,74.4078947 Z" id="Path"></path>
                            </g>
                        </g>
                        <g id="Layer_1_1_" transform="translate(29.605263, 0.000000)" fill-rule="nonzero">
                            <g id="Group" transform="translate(0.000000, 16.776316)">
                                <path d="M109.613487,8.70888158 C108.503289,5.47697368 106.307566,3.13322368 103.075658,1.75164474 C98.4868421,-0.222039474 94.3914474,-0.320723684 90.5921053,1.45559211 C78.6019737,7.05592105 71.5213816,31.0608553 62.5164474,61.40625 C57.0641447,79.8108553 50.8963816,100.657895 42.5328947,121.282895 C33.0592105,144.646382 11.5707237,198.133224 6.53782895,210.690789 C2.07236842,209.950658 0.666118421,210.962171 0.296052632,211.949013 C-0.0246710526,212.763158 0.148026316,214.169408 2.78782895,216.167763 C4.61348684,217.549342 7.17927632,218.930921 10.0657895,220.041118 C13.2730263,221.274671 16.6529605,222.088816 19.1447368,222.088816 C20.9703947,222.088816 22.3273026,221.644737 22.7220395,220.583882 C23.4868421,218.610197 20.4276316,216.365132 18.3799342,215.131579 C23.3388158,204.029605 39.9671053,167.097039 58.6924342,127.5 C65.2055921,113.733553 73.0016447,99.375 80.5263158,85.4851974 C89.4078947,69.1036184 97.7960526,53.6348684 103.470395,40.3618421 C109.909539,25.2384868 111.858553,15.1973684 109.613487,8.70888158 Z" id="Path" fill="#1A1A1A"></path>
                                <path d="M96.4638158,10.2384868 C97.2286184,10.0164474 97.8453947,9.47368421 98.1661184,8.73355263 L98.2648026,8.48684211 C99.4490132,6.09375 98.8569079,4.29276316 97.1546053,3.67598684 C95.7730263,3.18256579 93.4539474,4.07072368 92.4177632,6.95723684 L92.4177632,6.95723684 C91.6282895,9.02960526 93.5526316,11.1019737 95.6743421,10.4851974 L96.4638158,10.2384868 Z" id="Path" fill="#FFFFFF"></path>
                                <path d="M78.4046053,38.8322368 L84.4243421,32.8125 C85.9786184,31.2582237 85.5592105,28.6677632 83.6101974,27.6809211 L83.6101974,27.6809211 C82.1052632,26.9161184 81.4391447,25.1151316 82.1052632,23.5608553 L86.2993421,13.8404605 C87.7302632,10.9046053 87.0888158,8.70888158 85.0904605,7.84539474 C79.6381579,14.4078947 75.1233553,25.8552632 70.5345395,40.1398026 C73.1496711,41.4226974 76.3322368,40.9046053 78.4046053,38.8322368 Z" id="Path" fill="#FFFFFF"></path>
                                <path d="M16.1842105,218.930921 L16.1842105,218.930921 C8.26480263,218.881579 4.71217105,213.947368 4.56414474,213.725329 C4.31743421,213.379934 4.41611842,212.935855 4.73684211,212.689145 C5.08223684,212.467105 5.52631579,212.541118 5.77302632,212.861842 C5.89638158,213.059211 9.07894737,217.401316 16.1842105,217.425987 C16.6036184,217.425987 16.9243421,217.771382 16.9243421,218.166118 C16.9243421,218.585526 16.6036184,218.930921 16.1842105,218.930921 Z" id="Path" fill="#FFFFFF"></path>
                                <path d="M45.4194079,151.208882 C45.2467105,151.208882 45.0740132,151.159539 44.9259868,151.036184 C39.5230263,146.299342 34.4407895,146.768092 34.3914474,146.768092 C33.9720395,146.817434 33.6266447,146.521382 33.5773026,146.101974 C33.5279605,145.707237 33.8240132,145.337171 34.2434211,145.287829 C34.4654605,145.263158 40.0411184,144.745066 45.9128289,149.901316 C46.2088816,150.172697 46.2582237,150.641447 45.9868421,150.9375 C45.8388158,151.110197 45.6414474,151.208882 45.4194079,151.208882 Z" id="Path" fill="#FFFFFF"></path>
                            </g>
                            <g id="Layer_4" transform="translate(14.309211, 0.000000)" fill="#1A1A1A">
                                <g id="Group">
                                    <path d="M76.1595395,363.355263 C69.0789474,363.355263 61.1101974,362.738487 52.4013158,361.060855 C52.0065789,360.986842 51.7351974,360.592105 51.8092105,360.197368 C51.8832237,359.802632 52.2779605,359.53125 52.6726974,359.605263 C72.4095395,363.404605 88.3963816,361.751645 98.3388158,359.679276 C109.120066,357.458882 115.287829,354.276316 115.361842,354.251645 C115.731908,354.054276 116.175987,354.202303 116.348684,354.572368 C116.546053,354.942434 116.398026,355.386513 116.027961,355.559211 C115.78125,355.682566 109.638158,358.840461 98.6842105,361.110197 C93.0098684,362.294408 85.3618421,363.355263 76.1595395,363.355263 Z" id="Path"></path>
                                    <path d="M64.8848684,116.842105 C64.7615132,116.842105 64.6381579,116.817434 64.5148026,116.743421 C64.1694079,116.546053 64.0213816,116.101974 64.21875,115.731908 C83.2401316,81.6365132 90.5427632,65.1315789 90.6167763,64.9835526 C90.7894737,64.6134868 91.2088816,64.4407895 91.6036184,64.6134868 C91.9736842,64.7861842 92.1463816,65.2055921 91.9736842,65.6003289 C91.8996711,65.7730263 84.5970395,82.3026316 65.5509868,116.496711 C65.4029605,116.694079 65.15625,116.842105 64.8848684,116.842105 Z" id="Path"></path>
                                    <path d="M112.623355,29.2351974 C110.304276,29.2351974 108.429276,31.1101974 108.429276,33.4292763 C108.429276,35.7483553 110.304276,37.6233553 112.623355,37.6233553 C114.942434,37.6233553 116.817434,35.7483553 116.817434,33.4292763 C116.817434,31.1101974 114.942434,29.2351974 112.623355,29.2351974 Z" id="Path"></path>
                                    <path d="M105.098684,23.4621711 C102.927632,23.4621711 101.052632,21.8338816 100.805921,19.6134868 C100.337171,15.3700658 98.4375,12.3601974 95.0082237,10.4111842 C92.4177632,8.93092105 89.9259868,8.65953947 89.9013158,8.63486842 C87.5328947,8.41282895 85.78125,6.31578947 86.0032895,3.94736842 C86.2253289,1.57894737 88.3223684,-0.172697368 90.6907895,0.0493421053 C91.1348684,0.0986842105 95.0822368,0.518092105 99.2763158,2.91118421 C103.347039,5.23026316 108.429276,9.86842105 109.391447,18.6759868 C109.638158,21.0444079 107.935855,23.1661184 105.567434,23.4375 C105.419408,23.4375 105.246711,23.4621711 105.098684,23.4621711 Z" id="Path"></path>
                                    <circle id="Oval" cx="8.75822368" cy="344.185855" r="4.58881579"></circle>
                                    <circle id="Oval" cx="8.24013158" cy="372.088816" r="2.39309211"></circle>
                                    <circle id="Oval" cx="24.9177632" cy="357.730263" r="3.28125"></circle>
                                    <path d="M10.3865132,367.401316 C9.62171053,367.401316 8.85690789,367.129934 8.21546053,366.611842 L1.28289474,360.764803 C-0.123355263,359.580592 -0.296052632,357.458882 0.888157895,356.052632 C2.07236842,354.646382 4.19407895,354.473684 5.60032895,355.657895 L12.5328947,361.504934 C13.9391447,362.689145 14.1118421,364.810855 12.9276316,366.217105 C12.2861842,367.006579 11.3240132,367.401316 10.3865132,367.401316 Z" id="Path"></path>
                                </g>
                            </g>
                            <path d="M182.8125,125.106908 C182.8125,125.106908 178.001645,145.337171 158.388158,150.641447 C158.388158,150.641447 141.932566,157.351974 122.541118,142.080592 C122.541118,142.080592 107.935855,151.381579 97.5740132,165.074013 C87.2121711,178.766447 84.1282895,185.304276 84.1282895,185.304276 C84.1282895,185.304276 95.6003289,179.555921 120.024671,194.629934 L137.590461,182.047697 L144.695724,176.422697 C144.695724,176.422697 153.330592,184.194079 161.965461,196.036184 C170.600329,207.878289 178.174342,219.547697 177.705592,232.722039 C177.705592,232.722039 173.684211,235.879934 166.529605,227.985197 C166.529605,227.985197 137.787829,236.990132 125.082237,236.003289 C125.082237,236.003289 132.853618,262.401316 138.651316,269.679276 L146.299342,280.164474 L171.833882,275.970395 C171.833882,275.970395 195.271382,270.296053 223.396382,257.713816 C251.521382,245.131579 269.655739,231.5625 269.655739,231.5625 C269.655739,231.5625 269.901316,210.592105 263.116776,186.907895 C256.332237,163.223684 247.327303,149.161184 241.529605,142.623355 C235.731908,136.085526 221.299342,123.256579 182.8125,125.106908 Z" id="Path" fill="#FFFFFF"></path>
                            <g id="Group" transform="translate(97.203947, 132.976974)" fill="#FECE2F">
                                <g id="Path">
                                    <path d="M53.6101974,129.769737 C53.3388158,129.769737 53.0674342,129.621711 52.9440789,129.350329 C46.9243421,116.521382 43.4703947,102.360197 43.4457237,102.212171 C43.3470395,101.817434 43.59375,101.422697 43.9884868,101.324013 C44.3832237,101.225329 44.7779605,101.472039 44.8766447,101.866776 C44.9013158,102.014803 48.3305921,116.027961 54.2763158,128.733553 C54.4490132,129.103618 54.3009868,129.547697 53.9309211,129.720395 C53.8322368,129.745066 53.7088816,129.769737 53.6101974,129.769737 Z"></path>
                                    <path d="M73.2976974,130.460526 C73.0263158,130.460526 72.7549342,130.3125 72.6315789,130.041118 C66.3157895,116.422697 59.8026316,98.0180921 59.7532895,97.8453947 C59.6052632,97.4506579 59.8273026,97.03125 60.1973684,96.9078947 C60.5921053,96.7845395 61.0115132,96.9819079 61.1348684,97.3519737 C61.2088816,97.5246711 67.6973684,115.855263 73.9638158,129.424342 C74.1365132,129.794408 73.9638158,130.238487 73.59375,130.411184 C73.5197368,130.460526 73.4210526,130.460526 73.2976974,130.460526 Z"></path>
                                    <path d="M85.4111842,117.064145 C85.1151316,117.064145 84.84375,116.891447 84.7203947,116.620066 C80.0822368,105.616776 77.0230263,94.4654605 76.9983553,94.3421053 C76.8996711,93.9473684 77.1217105,93.5526316 77.5164474,93.4292763 C77.9111842,93.3305921 78.3059211,93.5526316 78.4292763,93.9473684 C78.4539474,94.0460526 81.4884868,105.123355 86.1019737,116.027961 C86.25,116.398026 86.0773026,116.842105 85.7072368,116.990132 C85.6085526,117.039474 85.5098684,117.064145 85.4111842,117.064145 Z"></path>
                                    <path d="M107.097039,124.095395 C106.825658,124.095395 106.578947,123.947368 106.455592,123.700658 C99.5476974,110.995066 94.5888158,93.2072368 94.5394737,93.0345395 C94.4407895,92.6398026 94.6628289,92.2450658 95.0575658,92.1217105 C95.4523026,92.0230263 95.8470395,92.2450658 95.9703947,92.6398026 C96.0197368,92.8125 100.953947,110.427632 107.763158,122.985197 C107.960526,123.355263 107.837171,123.799342 107.467105,123.996711 C107.319079,124.070724 107.220395,124.095395 107.097039,124.095395 Z"></path>
                                    <path d="M122.220395,117.138158 C121.949013,117.138158 121.677632,116.990132 121.554276,116.71875 C115.115132,103.371711 109.120066,84.1776316 109.070724,83.9802632 C108.947368,83.5855263 109.169408,83.1661184 109.564145,83.0427632 C109.958882,82.9194079 110.378289,83.1414474 110.501645,83.5361842 C110.550987,83.7335526 116.521382,102.828947 122.911184,116.077303 C123.083882,116.447368 122.935855,116.891447 122.565789,117.064145 C122.442434,117.113487 122.34375,117.138158 122.220395,117.138158 Z"></path>
                                    <path d="M135.690789,102.162829 C135.394737,102.162829 135.123355,101.990132 135,101.694079 C129.473684,87.9029605 124.440789,73.3223684 124.366776,73.1743421 C124.243421,72.7796053 124.440789,72.3601974 124.835526,72.2368421 C125.230263,72.1134868 125.649671,72.3108553 125.773026,72.7055921 C125.822368,72.8536184 130.855263,87.4095395 136.356908,101.175987 C136.504934,101.546053 136.332237,101.990132 135.9375,102.138158 C135.863487,102.138158 135.789474,102.162829 135.690789,102.162829 Z"></path>
                                    <path d="M154.317434,98.8322368 C154.021382,98.8322368 153.75,98.6595395 153.626645,98.3634868 C150.098684,89.5805921 141.315789,68.3634868 135.962171,60.9868421 C135.715461,60.6661184 135.789474,60.1973684 136.134868,59.9506579 C136.455592,59.7039474 136.924342,59.7779605 137.171053,60.1233553 C142.425987,67.3766447 150.592105,86.8667763 155.008224,97.8207237 C155.15625,98.1907895 154.983553,98.6348684 154.588816,98.7828947 C154.514803,98.8075658 154.416118,98.8322368 154.317434,98.8322368 Z"></path>
                                    <path d="M163.371711,89.6792763 C163.075658,89.6792763 162.804276,89.5065789 162.705592,89.2351974 C158.042763,78.6266447 151.110197,63.7746711 144.523026,53.4128289 C144.300987,53.0674342 144.399671,52.5986842 144.745066,52.4013158 C145.090461,52.1792763 145.559211,52.2779605 145.756579,52.6233553 C152.393092,63.0592105 159.375,77.9605263 164.037829,88.6430921 C164.210526,89.0131579 164.037829,89.4572368 163.667763,89.6299342 C163.59375,89.6546053 163.470395,89.6792763 163.371711,89.6792763 Z"></path>
                                    <path d="M169.514803,71.6694079 C169.490132,71.5707237 166.603618,62.8125 155.625,45.5180921 L156.883224,44.7286184 C167.985197,62.1957237 170.822368,70.8552632 170.945724,71.2253289 L169.514803,71.6694079 Z"></path>
                                    <path d="M1.40625,52.03125 L0.0986842105,51.3404605 C0.148026316,51.2664474 3.97203947,43.9391447 9.54769737,35.5756579 C17.0476974,24.3256579 23.9555921,16.6529605 30.0986842,12.8042763 L30.8881579,14.0625 C16.6529605,22.9934211 1.55427632,51.7598684 1.40625,52.03125 Z"></path>
                                    <path d="M11.25,55.78125 L9.96710526,55.0411184 C10.0164474,54.9671053 14.1858553,47.8618421 19.8355263,39.6710526 C27.4588816,28.6430921 33.9967105,20.9950658 39.2763158,16.9490132 L40.1644737,18.1332237 C27.8536184,27.5328947 11.4226974,55.4851974 11.25,55.78125 Z"></path>
                                    <path d="M20.8963816,59.9259868 L19.5888158,59.2351974 C19.6381579,59.1611842 23.90625,50.9210526 29.9506579,41.9161184 C38.1167763,29.7532895 45.4440789,22.03125 51.7598684,18.9473684 L52.4013158,20.2796053 C37.8453947,27.3848684 21.0444079,59.6052632 20.8963816,59.9259868 Z"></path>
                                    <path d="M47.0970395,42.9029605 L46.1595395,41.7434211 C46.4309211,41.5213816 72.9523026,20.1069079 118.445724,0.0986842105 L119.037829,1.45559211 C73.7417763,21.3898026 47.3684211,42.6809211 47.0970395,42.9029605 Z"></path>
                                    <path d="M55.2631579,50.9703947 C55.0657895,50.9703947 54.84375,50.8717105 54.6957237,50.7236842 C54.4243421,50.4029605 54.4736842,49.9588816 54.7697368,49.6875 C54.9177632,49.5641447 70.0904605,36.5871711 97.5986842,22.1299342 C97.96875,21.9325658 98.4128289,22.0805921 98.6101974,22.4506579 C98.8075658,22.8207237 98.6595395,23.2648026 98.2894737,23.4621711 C70.9539474,37.8453947 55.9046053,50.6990132 55.7565789,50.8470395 C55.6085526,50.8963816 55.4358553,50.9703947 55.2631579,50.9703947 Z"></path>
                                    <path d="M62.6644737,59.1118421 C62.4424342,59.1118421 62.2450658,59.0131579 62.0970395,58.8404605 C61.8503289,58.5197368 61.8996711,58.0509868 62.2203947,57.8042763 C62.5164474,57.5575658 93.1578947,33.0098684 124.366776,19.0707237 C124.736842,18.8980263 125.180921,19.0707237 125.353618,19.4407895 C125.526316,19.8108553 125.353618,20.2549342 124.983553,20.4276316 C93.9473684,34.2680921 63.4786184,58.7171053 63.1825658,58.9638158 C62.9851974,59.0378289 62.8371711,59.1118421 62.6644737,59.1118421 Z"></path>
                                    <path d="M139.021382,110.550987 C138.725329,110.550987 138.453947,110.378289 138.330592,110.082237 L136.480263,105.271382 C136.332237,104.901316 136.529605,104.457237 136.899671,104.309211 C137.294408,104.161184 137.713816,104.358553 137.861842,104.728618 L139.712171,109.539474 C139.860197,109.909539 139.662829,110.353618 139.292763,110.501645 C139.194079,110.526316 139.120066,110.550987 139.021382,110.550987 Z"></path>
                                    <path d="M89.9259868,127.697368 C89.6299342,127.697368 89.3585526,127.524671 89.2351974,127.253289 L86.6447368,121.208882 C86.4720395,120.838816 86.6694079,120.394737 87.0394737,120.246711 C87.4095395,120.074013 87.8536184,120.271382 88.0016447,120.641447 L90.5921053,126.685855 C90.7648026,127.055921 90.5674342,127.5 90.1973684,127.648026 C90.1233553,127.672697 90.0246711,127.697368 89.9259868,127.697368 Z"></path>
                                    <path d="M101.891447,21.3651316 C101.620066,21.3651316 101.373355,21.2171053 101.25,20.9703947 C101.052632,20.6003289 101.200658,20.15625 101.546053,19.9588816 L109.761513,15.5180921 C110.131579,15.3207237 110.575658,15.46875 110.773026,15.8141447 C110.970395,16.1842105 110.822368,16.6282895 110.476974,16.8256579 L102.261513,21.2664474 C102.138158,21.3157895 102.014803,21.3651316 101.891447,21.3651316 Z"></path>
                                    <path d="M109.465461,33.0345395 C109.21875,33.0345395 108.972039,32.9111842 108.824013,32.6644737 C108.601974,32.3190789 108.725329,31.8503289 109.070724,31.6529605 C109.909539,31.1595395 117.976974,26.8914474 118.322368,26.6940789 C118.692434,26.4967105 119.136513,26.6447368 119.333882,26.9901316 C119.53125,27.3601974 119.383224,27.8042763 119.037829,28.0016447 C116.151316,29.53125 110.501645,32.5411184 109.860197,32.9111842 C109.712171,33.0098684 109.588816,33.0345395 109.465461,33.0345395 Z"></path>
                                </g>
                                <path d="M69.0789474,68.4868421 C68.8075658,68.4868421 68.5608553,68.3388158 68.4375,68.0921053 C68.2401316,67.7220395 68.3634868,67.2779605 68.7335526,67.0805921 C69.2023026,66.8092105 116.521382,40.6825658 145.509868,23.7828947 C145.855263,23.5855263 146.324013,23.6842105 146.521382,24.0542763 C146.71875,24.3996711 146.620066,24.8684211 146.25,25.0657895 C117.236842,41.9654605 69.9177632,68.1167763 69.4490132,68.3634868 C69.3256579,68.4375 69.2023026,68.4868421 69.0789474,68.4868421 Z" id="Path"></path>
                                <path d="M74.5559211,77.2944079 L73.9884868,75.9375 C74.4572368,75.7401316 120.912829,56.0279605 149.802632,32.5411184 L150.740132,33.7006579 C121.652961,57.3108553 75.0246711,77.0970395 74.5559211,77.2944079 Z" id="Path"></path>
                                <path d="M79.2680921,87.1628289 L78.6266447,85.8305921 C79.0460526,85.6332237 120.912829,65.6496711 143.166118,48.8486842 L144.054276,50.0328947 C121.677632,66.9078947 79.6875,86.9654605 79.2680921,87.1628289 Z" id="Path"></path>
                                <path d="M81.1184211,94.8601974 L80.7483553,93.4292763 C80.9457237,93.3799342 100.805921,88.0016447 136.134868,59.9753289 L137.047697,61.1348684 C118.470395,75.8881579 104.259868,84.2763158 95.6496711,88.6924342 C86.2253289,93.5032895 81.3157895,94.7861842 81.1184211,94.8601974 Z" id="Path"></path>
                            </g>
                            <path d="M182.8125,125.106908 C182.8125,125.106908 206.496711,121.036184 227.047697,131.570724 C227.047697,131.570724 200.230263,124.169408 181.973684,129.424342 L182.8125,125.106908 Z" id="Path" fill="#FECE2F"></path>
                            <path d="M90.0493421,183.700658 C90.0493421,183.700658 107.8125,153.059211 123.848684,144.226974 L121.751645,142.376645 C121.751645,142.376645 108.799342,151.011513 99.5476974,162.853618 C90.2960526,174.695724 84.1282895,185.304276 84.1282895,185.304276 L90.0493421,183.700658 Z" id="Path" fill="#FECE2F"></path>
                            <path d="M128.486842,138.108553 C128.486842,138.108553 141.513158,150.986842 157.401316,144.473684 C173.289474,137.960526 174.424342,128.560855 174.794408,126.587171 C175.411184,126.710526 182.8125,125.106908 182.8125,125.106908 C182.8125,125.106908 178.001645,147.1875 155.797697,151.628289 C133.59375,156.069079 122.294408,140.847039 122.417763,141.463816 C122.541118,142.080592 128.486842,138.108553 128.486842,138.108553 Z" id="Path" fill="#FFFFFF"></path>
                            <path d="M120.148026,249.572368 C120.024671,249.572368 119.901316,249.547697 119.802632,249.473684 L97.8453947,237.384868 C97.4753289,237.1875 97.3519737,236.743421 97.5493421,236.373355 C97.7467105,236.003289 98.1907895,235.879934 98.5608553,236.077303 L120.518092,248.166118 C120.888158,248.363487 121.011513,248.807566 120.814145,249.177632 C120.666118,249.424342 120.419408,249.572368 120.148026,249.572368 Z" id="Path" fill="#FECE2F"></path>
                            <path d="M44.0378289,207.014803 C44.0378289,207.014803 39.1036184,212.565789 38.7335526,223.050987 C38.7335526,223.050987 58.8404605,232.302632 88.9391447,235.756579 C119.037829,239.210526 150.123355,232.549342 150.123355,232.549342 C150.123355,232.549342 169.243421,227.639803 176.644737,223.001645 C176.644737,223.001645 170.353618,206.521382 162.212171,195.542763 C154.070724,184.564145 144.695724,177.409539 144.695724,176.422697 C144.695724,175.435855 122.8125,198.651316 99.3009868,205.657895 C74.8766447,213.182566 44.0378289,207.014803 44.0378289,207.014803 Z" id="Path" fill="#FFFFFF"></path>
                            <path d="M87.1134868,209.087171 C95.2302632,208.519737 107.985197,221.472039 110.995066,215.057566 C113.215461,210.370066 107.985197,208.963816 100.879934,204.646382 L87.1134868,209.087171 Z" id="Path" fill="#FECE2F"></path>
                            <path d="M146.299342,280.164474 C146.299342,280.164474 163.815789,316.677632 153.947368,337.648026 C144.078947,358.618421 123.848684,383.289474 53.0427632,374.161184 C53.0427632,374.161184 50.8223684,383.462171 53.8075658,391.726974 C53.8075658,391.726974 119.901316,410.427632 150.740132,405.740132 C181.578947,401.052632 202.055921,385.756579 214.391447,368.980263 C226.726974,352.203947 234.375,329.013158 232.648026,298.667763 C232.648026,298.667763 255.098684,311.003289 273.355263,348.996711 C291.611842,386.990132 296.792763,434.358553 296.792763,434.358553 C296.792763,434.358553 309.621711,438.552632 318.503289,432.138158 C318.503289,432.138158 327.878289,391.677632 319.983553,350.476974 C312.088816,309.276316 288.404605,246.365132 269.654605,231.5625 C269.654605,231.5625 260.501645,237.705592 248.758224,244.391447 C234.276316,252.631579 215.476974,262.105263 200.822368,267.335526 C168.256579,278.930921 146.299342,280.164474 146.299342,280.164474 Z" id="Path" fill="#FECE2F"></path>
                            <g id="Group" transform="translate(288.898026, 389.555921)" fill="#FFFFFF">
                                <path d="M13.4457237,45.8388158 C13.8898026,17.1710526 8.63486842,1.875 8.63486842,1.875 L0.0246710526,0.0986842105 C0.0246710526,0.0986842105 8.16611842,31.1842105 7.79605263,45.6167763 L13.4457237,45.8388158 Z" id="Path"></path>
                                <path d="M19.1200658,45.9128289 C21.2171053,24.6957237 16.7023026,1.70230263 16.7023026,1.70230263 L25.7565789,0.296052632 C25.7565789,0.296052632 26.8174342,37.0559211 25.0164474,44.2845395 L19.1200658,45.9128289 Z" id="Path"></path>
                            </g>
                            <path d="M52.5493421,378.256579 C52.5493421,378.256579 87.7549342,387.631579 123.429276,377.269737 L123.922697,368.708882 C123.922697,368.708882 106.159539,376.776316 85.4358553,376.110197 C64.7121711,375.444079 52.0559211,374.457237 52.0559211,374.457237 L52.5493421,378.256579 Z" id="Path" fill="#FFFFFF"></path>
                            <path d="M52.3766447,384.350329 C52.3766447,384.350329 73.2730263,394.21875 125.896382,389.284539 L130.509868,398.486842 C130.509868,398.486842 103.371711,402.261513 79.0213816,397.993421 L50.8963816,391.085526 L52.3766447,384.350329 Z" id="Path" fill="#FFFFFF"></path>
                            <path d="M163.939145,83.4128289 L170.353618,89.8273026 C170.353618,89.8273026 177.878289,85.1398026 181.085526,82.1792763 C184.292763,79.21875 186.636513,74.4078947 184.539474,74.53125 C182.442434,74.6546053 171.957237,77.9851974 163.939145,83.4128289 Z" id="Path" fill="#FFFFFF"></path>
                            <path d="M140.699013,96.5131579 L163.939145,83.3881579 C163.939145,83.3881579 154.564145,77.34375 146.126645,82.5246711 C138.824013,87.0394737 140.699013,96.5131579 140.699013,96.5131579 Z" id="Path" fill="#FFFFFF"></path>
                            <path d="M143.289474,89.0871711 C148.026316,89.0871711 151.875,86.2993421 151.875,82.8700658 C151.875,82.0805921 151.677632,81.3404605 151.307566,80.6496711 C149.605263,80.9210526 147.853618,81.5131579 146.151316,82.5493421 C143.4375,84.2269737 141.981908,86.5953947 141.241776,88.9144737 C141.883224,89.0131579 142.574013,89.0871711 143.289474,89.0871711 Z" id="Path" fill="#FECE2F"></path>
                            <path d="M45.0493421,187.376645 C45.0493421,187.376645 48.7746711,174.794408 48.0592105,175.090461 C47.34375,175.386513 44.7779605,172.697368 38.90625,183.947368 L31.5049342,200.625 L36.0197368,205.016447 L47.5657895,207.1875 L53.6595395,201.932566 L45.0493421,187.376645 Z" id="Path" fill="#FECE2F"></path>
                            <path d="M150.246711,363.552632 C150.024671,363.552632 149.827303,363.453947 149.679276,363.28125 C149.407895,362.960526 149.457237,362.491776 149.777961,362.245066 C154.564145,358.199013 158.634868,353.412829 161.817434,348.034539 C162.014803,347.689145 162.483553,347.565789 162.828947,347.787829 C163.174342,347.985197 163.297697,348.453947 163.075658,348.799342 C159.794408,354.300987 155.625,359.210526 150.715461,363.379934 C150.592105,363.478618 150.419408,363.552632 150.246711,363.552632 Z" id="Path" fill="#1A1A1A"></path>
                            <g id="Group" transform="translate(159.375000, 91.776316)">
                                <ellipse id="Oval" fill="#FFFFFF" transform="translate(5.457313, 2.987583) rotate(-7.307654) translate(-5.457313, -2.987583) " cx="5.45731332" cy="2.98758306" rx="4.68760652" ry="2.07241552"></ellipse>
                                <path d="M10.8552632,2.26973684 C10.6578947,0.888157895 8.63486842,-0.271381579 5.10690789,0.172697368 C1.55427632,0.616776316 -0.0986842105,2.26973684 0.0740131579,3.65131579 C0.148026316,4.14473684 0.493421053,5.05756579 2.14638158,5.55098684 C2.8125,5.74835526 3.57730263,5.84703947 4.41611842,5.84703947 C4.88486842,5.84703947 5.35361842,5.82236842 5.82236842,5.77302632 C7.17927632,5.60032895 8.41282895,5.18092105 9.32565789,4.63815789 C10.8059211,3.72532895 10.9292763,2.76315789 10.8552632,2.26973684 Z M2.59046053,4.14473684 C1.89967105,3.94736842 1.57894737,3.65131579 1.55427632,3.47861842 C1.50493421,3.00986842 2.83717105,2.02302632 5.15625,1.67763158 C4.95888158,2.36842105 4.83552632,3.30592105 5.15625,4.34210526 C4.19407895,4.41611842 3.28125,4.34210526 2.59046053,4.14473684 Z" id="Shape" fill="#1A1A1A"></path>
                            </g>
                            <g id="Group" transform="translate(161.101974, 103.618421)">
                                <path d="M1.11019737,0.986842105 L7.54934211,4.81085526 C7.54934211,4.81085526 5.00822368,7.15460526 2.41776316,5.60032895 C-0.222039474,4.07072368 1.11019737,0.986842105 1.11019737,0.986842105 Z" id="Path" fill="#FFFFFF"></path>
                                <path d="M4.29276316,6.88322368 C3.57730263,6.88322368 2.8125,6.71052632 2.02302632,6.24177632 C-0.46875,4.76151316 -0.123355263,1.97368421 0.419407895,0.690789474 C0.493421053,0.493421053 0.666118421,0.345394737 0.863486842,0.271381579 C1.06085526,0.197368421 1.28289474,0.222039474 1.48026316,0.345394737 L7.91940789,4.16940789 C8.11677632,4.29276316 8.26480263,4.49013158 8.28947368,4.73684211 C8.31414474,4.98355263 8.21546053,5.20559211 8.04276316,5.35361842 C7.94407895,5.42763158 6.34046053,6.88322368 4.29276316,6.88322368 Z M1.55427632,2.12171053 C1.43092105,2.96052632 1.48026316,4.21875 2.76315789,4.98355263 C4.04605263,5.74835526 5.35361842,5.32894737 6.16776316,4.88486842 L1.55427632,2.12171053 Z" id="Shape" fill="#1A1A1A"></path>
                            </g>
                            <path d="M304.070724,324.449013 C302.023026,324.449013 300.197368,322.993421 299.827303,320.896382 C299.802632,320.773026 298.470395,313.815789 293.758224,307.598684 C292.327303,305.699013 292.697368,302.985197 294.597039,301.554276 C296.496711,300.123355 299.210526,300.493421 300.641447,302.393092 C306.685855,310.361842 308.264803,319.021382 308.338816,319.391447 C308.758224,321.735197 307.179276,323.980263 304.835526,324.399671 C304.564145,324.424342 304.317434,324.449013 304.070724,324.449013 Z" id="Path" fill="#FFFFFF"></path>
                            <path d="M307.623355,338.215461 C305.476974,338.215461 303.601974,336.611842 303.330592,334.416118 L303.108553,332.615132 C302.837171,330.246711 304.514803,328.100329 306.883224,327.828947 C309.251645,327.557566 311.398026,329.235197 311.669408,331.603618 L311.891447,333.404605 C312.162829,335.773026 310.485197,337.919408 308.116776,338.190789 C307.96875,338.215461 307.796053,338.215461 307.623355,338.215461 Z" id="Path" fill="#FFFFFF"></path>
                            <g id="Group" transform="translate(70.559211, 444.325658)" fill="#1A1A1A">
                                <path d="M78.8486842,2.29440789 L0.764802632,2.29440789 C0.345394737,2.29440789 0.0246710526,2.61513158 0.0246710526,3.03453947 C0.0246710526,3.45394737 0.345394737,3.77467105 0.764802632,3.77467105 L78.8486842,3.77467105 C79.2680921,3.77467105 79.5888158,3.45394737 79.5888158,3.03453947 C79.5888158,2.61513158 79.2680921,2.29440789 78.8486842,2.29440789 Z" id="Path"></path>
                                <circle id="Oval" cx="103.297697" cy="2.86184211" r="2.76315789"></circle>
                                <path d="M119.925987,2.46710526 L112.894737,2.46710526 C112.475329,2.46710526 112.154605,2.78782895 112.154605,3.20723684 C112.154605,3.62664474 112.475329,3.94736842 112.894737,3.94736842 L119.925987,3.94736842 C120.345395,3.94736842 120.666118,3.62664474 120.666118,3.20723684 C120.666118,2.78782895 120.345395,2.46710526 119.925987,2.46710526 Z" id="Path"></path>
                            </g>
                            <path d="M221.299342,340.978618 C221.077303,340.978618 220.879934,340.953947 220.657895,340.929276 C218.289474,340.583882 216.685855,338.388158 217.03125,336.019737 L218.511513,326.151316 C218.856908,323.782895 221.052632,322.179276 223.421053,322.524671 C225.789474,322.870066 227.393092,325.065789 227.047697,327.434211 L225.567434,337.302632 C225.246711,339.424342 223.396382,340.978618 221.299342,340.978618 Z" id="Path" fill="#FFFFFF"></path>
                            <path d="M146.25,100.805921 L146.25,100.805921 C145.657895,100.633224 145.509868,99.84375 146.027961,99.4983553 C146.422697,99.2269737 147.039474,99.0049342 147.902961,98.90625 C148.322368,98.8815789 148.667763,99.1776316 148.717105,99.5723684 C148.741776,99.9671053 148.445724,100.337171 148.050987,100.386513 C147.384868,100.435855 147.014803,100.583882 146.817434,100.707237 C146.644737,100.830592 146.447368,100.855263 146.25,100.805921 Z" id="Path" fill="#1A1A1A"></path>
                            <path d="M24.5230263,218.264803 C26.1513158,218.807566 27.7302632,219.276316 29.1858553,219.621711 C29.7039474,219.917763 38.2154605,224.432566 52.0805921,228.824013 C53.7828947,229.366776 55.6332237,229.909539 57.5822368,230.476974 C57.6069079,230.526316 57.6315789,230.575658 57.65625,230.600329 C57.8536184,230.871711 69.3996711,249.695724 90.46875,264.152961 C99.84375,270.246711 114.325658,269.087171 120.567434,260.205592 C124.786184,254.210526 127.055921,245.970395 127.055921,245.970395 C128.462171,250.583882 134.506579,264.695724 137.34375,269.654605 C140.304276,274.958882 144.868421,279.671053 145.707237,280.583882 C146.225329,281.595395 150.986842,291.044408 153.922697,303.157895 C155.748355,310.633224 156.488487,317.664474 156.192434,324.029605 C155.797697,331.949013 153.774671,338.856908 150.123355,344.605263 C144.671053,353.215461 137.960526,359.925987 129.671053,364.884868 L125.550987,367.129934 C114.202303,372.754934 100.164474,375.46875 82.7220395,375.46875 C73.7911184,375.46875 63.9720395,374.753289 53.1661184,373.371711 L40.4851974,369.103618 C40.1398026,368.980263 39.7697368,369.128289 39.5970395,369.424342 C39.4983553,369.597039 37.2779605,373.569079 37.5246711,385.238487 C37.6480263,390.370066 38.5361842,398.338816 39.8930921,406.036184 C40.5098684,409.613487 41.1759868,412.746711 41.7927632,415.065789 C42.7549342,418.667763 43.3470395,419.407895 43.8404605,419.679276 C43.9884868,419.753289 44.1365132,419.802632 44.3092105,419.802632 C44.4819079,419.802632 44.6792763,419.753289 44.8519737,419.654605 C45.2713816,419.383224 46.1348684,418.840461 50.8470395,405.296053 C50.9457237,405.049342 51.0197368,404.802632 51.09375,404.555921 C50.625,407.837171 50.7976974,410.180921 51.6118421,411.537829 C52.0559211,412.302632 52.7220395,412.796053 53.5608553,412.96875 C53.8075658,413.018092 54.0542763,413.042763 54.2763158,413.042763 C55.2384868,413.042763 55.8799342,412.598684 56.25,412.228618 C56.7680921,411.636513 57.0641447,410.773026 57.2121711,409.712171 C58.2730263,412.401316 59.5805921,414.547697 61.1595395,415.238487 C61.4802632,415.386513 61.875,415.485197 62.34375,415.485197 C62.9605263,415.485197 63.7006579,415.287829 64.4654605,414.671053 C65.6003289,413.807566 66.2664474,412.598684 66.3898026,411.09375 C66.8585526,405.616776 60.1233553,397.105263 56.8174342,393.305921 C91.0608553,402.828947 115.534539,407.171053 135.814145,407.171053 C139.169408,407.171053 142.425987,407.047697 145.559211,406.800987 C171.118421,404.901316 191.595395,394.983553 210,375.616776 C218.634868,366.537829 225.024671,355.534539 228.996711,342.952303 C232.154605,332.911184 233.807566,321.809211 233.881579,309.991776 C233.90625,306.5625 233.782895,303.28125 233.585526,300.172697 C236.817434,302.516447 239.925987,305.082237 242.960526,307.845395 C244.6875,309.547697 246.661184,311.595395 248.930921,314.037829 C250.805921,316.036184 252.606908,318.009868 254.210526,319.810855 C258.552632,325.090461 262.623355,330.912829 266.398026,337.228618 C274.070724,350.106908 280.559211,365.106908 285.666118,381.809211 C293.955592,408.898026 295.879934,431.792763 296.052632,434.161184 C295.78125,434.777961 294.794408,437.195724 293.832237,439.736842 C291.759868,445.189145 291.759868,446.299342 291.883224,446.768092 L196.381579,446.768092 C195.962171,446.768092 195.641447,447.088816 195.641447,447.508224 C195.641447,447.927632 195.962171,448.248355 196.381579,448.248355 L307.055921,448.248355 C308.511513,448.273026 310.065789,448.273026 311.694079,448.273026 C313.199013,448.273026 314.753289,448.273026 316.332237,448.248355 L318.503289,448.248355 C318.577303,448.248355 318.651316,448.223684 318.700658,448.223684 C322.228618,448.174342 325.855263,448.050987 329.358553,447.853618 C344.654605,447.113487 347.245066,445.657895 347.787829,444.498355 C347.935855,444.202303 348.059211,443.659539 347.738487,442.993421 C347.393092,442.253289 346.332237,440.008224 332.245066,435.518092 C329.876645,434.777961 327.532895,434.0625 325.460526,433.495066 C327.039474,433.470395 328.865132,433.421053 330.715461,433.322368 C341.422697,432.754934 342.582237,430.855263 342.976974,430.238487 C343.273026,429.769737 343.495066,429.029605 342.976974,428.067434 C341.620066,425.550987 337.425987,425.526316 330.197368,427.944079 C329.925987,428.042763 329.654605,428.141447 329.383224,428.215461 C332.368421,425.995066 335.131579,423.305921 335.649671,420.740132 C335.921053,419.383224 335.575658,418.149671 334.638158,417.088816 C333.774671,416.101974 332.664474,415.657895 331.455592,415.805921 C328.988487,416.126645 325.929276,418.988487 322.401316,424.317434 C321.5625,425.600329 320.773026,426.858553 320.106908,427.993421 C321.143092,422.442434 322.746711,412.080592 323.412829,398.758224 C323.585526,395.402961 323.684211,391.751645 323.684211,387.828947 C323.708882,387.754934 323.733553,387.680921 323.733553,387.582237 L323.684211,386.225329 C323.610197,368.412829 321.587171,345.444079 314.259868,321.587171 C307.96875,301.208882 297.631579,272.171053 283.988487,249.523026 C276.685855,237.409539 271.578947,232.302632 270.370066,231.192434 C270.444079,227.911184 270.518092,203.560855 260.600329,176.965461 L260.452303,176.546053 C255.912829,164.383224 249.671053,147.730263 235.411184,136.381579 C227.615132,130.189145 218.116776,126.167763 207.138158,124.490132 C194.432566,122.541118 179.309211,123.601974 162.1875,127.672697 C162.138158,127.672697 162.113487,127.697368 162.064145,127.722039 L162.212171,115.978618 C167.763158,115.238487 173.314145,113.215461 175.460526,108.355263 C176.348684,106.307566 176.669408,104.087171 176.447368,101.768092 C176.669408,101.447368 177.853618,100.929276 178.569079,100.608553 C180.197368,99.8930921 181.875,99.1529605 181.40625,97.8453947 C181.085526,97.03125 179.753289,96.3157895 176.743421,94.9342105 C175.460526,94.3421053 173.486842,93.4292763 173.215461,93.0592105 C172.623355,91.9983553 171.981908,91.0115132 171.340461,90.0986842 C172.574013,89.3585526 175.460526,87.5575658 178.322368,85.3865132 C183.527961,81.4144737 186.167763,78.0098684 186.167763,75.3207237 C186.167763,74.7286184 185.921053,74.2598684 185.427632,73.9884868 C184.638158,73.5444079 182.615132,72.4342105 164.481908,82.1052632 C163.791118,81.8092105 161.324013,80.8717105 158.166118,80.3042763 C153.231908,79.4407895 148.939145,80.0082237 145.756579,81.9078947 C142.524671,83.8322368 140.501645,87.0148026 139.909539,91.0855263 C139.564145,93.4539474 139.786184,95.4523026 139.909539,96.2664474 C139.095395,97.0805921 136.529605,99.6710526 134.013158,102.483553 C128.363487,108.848684 127.845395,110.847039 127.96875,111.809211 C128.018092,112.277961 128.264803,112.672697 128.659539,112.894737 C129.078947,113.166118 129.547697,113.264803 130.041118,113.264803 C130.830592,113.264803 131.694079,112.993421 132.557566,112.574013 C132.927632,112.96875 133.889803,113.807566 135.394737,113.980263 C135.567434,114.004934 135.764803,114.004934 135.9375,114.004934 C136.307566,114.004934 136.702303,113.955592 137.072368,113.881579 C137.072368,113.881579 137.072368,113.881579 137.097039,113.881579 C137.195724,113.955592 138.898026,114.942434 141.09375,114.942434 C141.611842,114.942434 142.179276,114.893092 142.722039,114.745066 L139.6875,132.1875 C138.651316,132.508224 134.358553,133.889803 128.141447,137.417763 C128.092105,137.442434 128.067434,137.467105 128.042763,137.491776 C125.871711,138.725329 123.478618,140.230263 120.888158,142.03125 C110.847039,149.037829 96.1677632,162.261513 83.3141447,185.254934 C83.2648026,185.328947 83.2154605,185.427632 83.1907895,185.501645 C82.8700658,186.192434 82.5493421,187.376645 82.7467105,188.4375 C83.1907895,190.657895 85.5592105,192.65625 89.7779605,194.383224 C89.8519737,194.407895 89.9506579,194.432566 90.0493421,194.432566 C90.2467105,194.432566 90.4194079,194.358553 90.5674342,194.235197 L86.9901316,207.730263 C86.3980263,207.804276 85.8059211,207.878289 85.2138158,207.927632 C76.4802632,208.692434 68.6348684,208.667763 61.8503289,208.248355 L61.8503289,208.248355 C56.6447368,205.287829 46.9736842,189.745066 45.5921053,187.5 L48.8240132,175.608553 C48.9226974,175.263158 48.75,174.893092 48.4292763,174.745066 C46.9243421,174.054276 45.3947368,174.597039 43.9638158,175.731908 C41.6447368,177.409539 39.5970395,181.40625 37.4259868,185.945724 C34.2434211,192.631579 30.5427632,200.674342 30.5427632,200.674342 C30.5427632,200.674342 24.3503289,196.233553 19.3174342,195.715461 C18.75,195.740132 18.2565789,195.863487 17.8618421,196.159539 C16.8256579,196.875 16.5049342,198.034539 16.2582237,198.873355 C16.1595395,199.144737 16.0608553,199.490132 15.9868421,199.613487 C13.8157895,201.069079 12.8042763,202.475329 12.9276316,203.930921 C12.9769737,204.325658 13.0016447,204.646382 13.0263158,204.893092 C13.1003289,205.534539 13.1003289,205.608553 13.0509868,205.657895 C12.9276316,205.855263 12.8042763,206.027961 12.6809211,206.200658 C11.7434211,207.606908 11.1019737,208.544408 11.4720395,210.296053 C11.5460526,210.888158 11.9654605,211.554276 12.6809211,212.220395 C17.5657895,216.266447 24.5230263,218.264803 24.5230263,218.264803 Z M13.2730263,210.740132 C13.0509868,210.46875 12.9769737,210.271382 12.9523026,210.172697 C12.9276316,210.148026 12.9276316,210.098684 12.9276316,210.074013 C12.6809211,208.889803 13.0263158,208.396382 13.9144737,207.064145 C14.0378289,206.891447 14.1611842,206.694079 14.2845395,206.496711 C14.6052632,205.978618 14.5559211,205.583882 14.4819079,204.769737 C14.4572368,204.523026 14.4078947,204.202303 14.3832237,203.832237 C14.3338816,203.240132 14.7286184,202.253289 16.8256579,200.847039 C17.3190789,200.526316 17.4671053,199.958882 17.6644737,199.292763 C17.8618421,198.651316 18.0838816,197.886513 18.6019737,197.442434 C16.7023026,202.203947 14.9013158,206.694079 13.2730263,210.740132 Z M176.965461,77.5904605 C183.330592,74.7779605 184.514803,75.1973684 184.6875,75.2960526 C184.6875,75.2960526 184.6875,75.2960526 184.6875,75.3207237 C184.6875,79.6381579 174.84375,86.3240132 170.452303,88.9144737 C168.355263,86.25 166.282895,84.375 165.172697,83.4621711 C169.884868,80.9457237 173.832237,78.9720395 176.965461,77.5904605 Z M141.291118,95.3042763 C141.192434,94.3667763 141.143092,92.8865132 141.389803,91.2582237 C141.932566,87.6069079 143.659539,84.8684211 146.521382,83.1661184 C148.717105,81.8338816 151.282895,81.3898026 153.75,81.3898026 C157.376645,81.3898026 160.805921,82.3766447 162.65625,83.0180921 L160.830592,84.0789474 C152.319079,88.7417763 144.054276,93.6513158 141.291118,95.3042763 Z M139.416118,133.865132 L139.169408,135.271382 C139.095395,135.690789 139.366776,136.060855 139.761513,136.134868 C139.810855,136.134868 139.835526,136.134868 139.884868,136.134868 C140.230263,136.134868 140.550987,135.888158 140.625,135.542763 L144.325658,114.226974 C144.572368,114.078947 144.794408,113.930921 145.016447,113.758224 C145.090461,113.708882 145.139803,113.684211 145.213816,113.634868 C145.287829,113.585526 145.337171,113.536184 145.386513,113.462171 C148.569079,110.600329 149.629934,104.506579 149.679276,104.210526 C149.728618,103.963816 149.654605,103.741776 149.481908,103.569079 C149.309211,103.396382 149.0625,103.322368 148.840461,103.347039 C148.026316,103.470395 145.657895,103.544408 144.547697,102.557566 C144.128289,102.1875 143.90625,101.669408 143.930921,100.978618 C143.955592,100.065789 144.251645,99.3996711 144.819079,98.9555921 C146.077303,97.96875 148.519737,98.2401316 149.432566,98.4375 C149.506579,98.4621711 149.580592,98.4621711 149.654605,98.4621711 C149.925987,98.4621711 150.172697,98.3141447 150.296053,98.0921053 L152.565789,93.6513158 C153.527961,93.6019737 155.945724,93.3552632 158.511513,92.5411184 C162.508224,91.2582237 165.148026,89.1365132 166.184211,86.3486842 C167.911184,88.0263158 170.15625,90.5674342 171.957237,93.7746711 C172.351974,94.4407895 173.536184,95.0328947 176.175987,96.2664474 C177.409539,96.8338816 179.383224,97.7713816 179.950658,98.2648026 C179.605263,98.5608553 178.618421,98.9802632 178.001645,99.2516447 C176.398026,99.9671053 174.868421,100.633224 174.991776,101.842105 C175.213816,103.914474 174.917763,105.912829 174.128289,107.738487 C172.796053,110.797697 169.6875,112.894737 164.876645,114.004934 C160.682566,114.967105 156.069079,114.967105 152.935855,114.769737 C152.8125,114.769737 152.689145,114.794408 152.565789,114.84375 L152.565789,114.84375 C152.541118,114.868421 152.491776,114.868421 152.467105,114.893092 C152.442434,114.893092 152.442434,114.917763 152.417763,114.917763 C152.393092,114.917763 152.393092,114.942434 152.368421,114.967105 C152.34375,114.991776 152.319079,115.016447 152.294408,115.041118 L152.294408,115.041118 C152.245066,115.090461 152.220395,115.139803 152.195724,115.213816 C152.047697,115.559211 152.171053,115.953947 152.491776,116.151316 C152.541118,116.175987 159.473684,120.444079 160.509868,126.587171 C160.534539,126.685855 160.559211,126.784539 160.633224,126.858553 L160.559211,132.212171 C160.559211,132.606908 160.879934,132.952303 161.299342,132.952303 C161.694079,132.952303 162.014803,132.631579 162.039474,132.212171 L162.088816,129.054276 C162.236842,129.128289 162.409539,129.152961 162.557566,129.103618 C166.554276,128.141447 170.378289,127.376645 174.054276,126.784539 C173.659539,127.993421 172.722039,130.509868 170.822368,133.297697 C168.379934,136.924342 163.766447,141.784539 155.699013,144.523026 C149.259868,146.694079 142.820724,146.200658 136.578947,143.067434 C133.199013,141.365132 130.805921,139.317434 129.720395,138.28125 C134.358553,135.715461 137.837171,134.383224 139.416118,133.865132 Z M128.338816,139.046053 C129.300987,140.008224 131.916118,142.376645 135.838816,144.350329 C138.824013,145.855263 142.96875,147.286184 147.853618,147.286184 C150.444079,147.286184 153.207237,146.891447 156.167763,145.904605 C164.629934,143.042763 169.490132,137.886513 172.080592,134.0625 C174.547697,130.411184 175.460526,127.327303 175.657895,126.513158 C177.804276,126.192434 179.901316,125.896382 181.949013,125.674342 C181.850329,126.143092 181.677632,126.809211 181.430921,127.648026 C179.950658,132.434211 174.84375,144.152961 159.375,149.703947 C148.963816,153.429276 139.662829,151.036184 133.692434,148.371711 C128.486842,146.052632 124.835526,143.116776 123.552632,142.03125 C125.230263,140.896382 126.833882,139.909539 128.338816,139.046053 Z M43.5690789,178.149671 C44.7779605,176.817434 46.0608553,175.855263 47.1957237,175.953947 L44.0871711,187.450658 C44.0378289,187.648026 44.0625,187.845395 44.1611842,188.018092 C44.4325658,188.486842 48.6513158,195.370066 53.1907895,201.340461 C52.9194079,201.537829 49.8601974,203.807566 47.1217105,206.570724 C42.5082237,205.78125 39.0542763,204.917763 36.9819079,204.325658 L40.4358553,193.519737 C40.5592105,193.199013 40.4111842,192.853618 40.1398026,192.680921 C39.0789474,191.990132 37.6480263,191.817434 36.4144737,192.113487 C37.8947368,188.90625 39.4243421,185.550987 41.0279605,182.097039 C41.6694079,180.666118 42.5328947,179.333882 43.5690789,178.149671 Z M29.8519737,218.314145 C29.7532895,218.264803 29.6299342,218.240132 29.5065789,218.215461 C28.1003289,217.894737 26.5953947,217.450658 25.0904605,216.932566 C27.9523026,210.592105 31.4802632,202.870066 35.4276316,194.210526 C35.4523026,194.185855 35.4769737,194.161184 35.5016447,194.161184 C36.3404605,193.371711 37.7960526,193.297697 38.8075658,193.692434 L35.5263158,203.930921 C35.2055921,203.832237 34.9835526,203.758224 34.8355263,203.708882 C34.4407895,203.585526 34.0213816,203.782895 33.8980263,204.177632 C33.7746711,204.572368 33.9720395,204.991776 34.3667763,205.115132 C35.1315789,205.361842 38.0674342,206.299342 42.8289474,207.286184 C41.3240132,209.161184 38.3141447,213.898026 37.8700658,222.039474 C32.7631579,219.893092 29.9013158,218.338816 29.8519737,218.314145 Z M110.131579,236.077303 C86.1019737,236.422697 65.5509868,231.5625 52.5493421,227.442434 C47.3190789,225.789474 42.8536184,224.111842 39.3256579,222.65625 C39.5476974,217.253289 40.9539474,213.429276 42.1134868,211.134868 C43.1003289,209.210526 44.0625,208.050987 44.4819079,207.606908 C50.8717105,208.840461 60,210.049342 71.2253289,210.049342 C75.6414474,210.049342 80.3536184,209.876645 85.3125,209.407895 C98.9802632,208.199013 114.399671,199.514803 124.909539,192.458882 C135.345395,185.452303 143.190789,178.59375 144.449013,177.483553 C148.618421,180.616776 154.564145,186.5625 162.631579,197.615132 C164.210526,199.761513 165.641447,201.883224 166.949013,203.980263 C166.134868,204.251645 164.703947,204.84375 161.990132,206.077303 C158.980263,207.434211 155.328947,209.136513 152.787829,210.320724 C150.172697,211.554276 148.59375,214.194079 148.766447,217.080592 C148.914474,219.375 147.606908,221.521382 145.509868,222.458882 L136.998355,226.258224 C134.0625,227.565789 132.384868,230.699013 132.952303,233.881579 L133.075658,234.572368 C126.340461,235.386513 118.692434,235.953947 110.131579,236.077303 Z M138.157895,266.768092 C138.034539,266.669408 137.886513,266.644737 137.738487,266.644737 C130.633224,253.741776 126.685855,239.358553 125.995066,236.743421 C141.661184,235.435855 153.305921,232.672697 160.904605,230.328947 C161.916118,230.008224 162.878289,229.712171 163.791118,229.391447 C164.605263,229.144737 165.394737,228.898026 166.159539,228.626645 C167.072368,229.638158 171.611842,234.276316 175.460526,234.276316 C176.398026,234.276316 177.310855,234.004934 178.075658,233.314145 C179.235197,232.845395 185.945724,230.15625 194.753289,225.320724 C195.740132,227.195724 199.194079,232.549342 206.496711,232.549342 C212.417763,232.549342 213.898026,229.120066 215.032895,226.332237 C215.674342,224.901316 216.192434,223.667763 217.228618,223.001645 C218.018092,222.483553 219.152961,221.965461 220.460526,221.373355 C224.555921,219.547697 230.180921,217.006579 231.365132,211.430921 C231.661184,210.049342 231.907895,208.766447 232.105263,207.65625 C232.919408,203.264803 233.338816,200.871711 236.225329,199.070724 C238.544408,197.639803 240.690789,194.876645 242.121711,191.496711 C243.330592,188.659539 244.588816,184.046053 243.725329,178.125 C243.675987,177.804276 243.404605,177.532895 243.059211,177.508224 C242.985197,177.508224 242.911184,177.508224 242.861842,177.532895 C242.615132,177.557566 242.393092,177.730263 242.269737,177.952303 C238.470395,186.069079 232.722039,193.963816 225.148026,201.414474 C219.078947,207.384868 211.850329,213.083882 203.634868,218.338816 C192.113487,225.715461 181.850329,230.15625 178.519737,231.537829 C178.692434,228.947368 178.199013,226.011513 177.384868,223.125 C177.434211,222.952303 177.384868,222.754934 177.286184,222.582237 C177.286184,222.557566 177.261513,222.557566 177.261513,222.557566 C177.212171,222.409539 177.138158,222.1875 177.014803,221.891447 C176.274671,219.498355 175.361842,217.179276 174.473684,215.180921 C174.054276,214.21875 173.585526,213.256579 173.116776,212.269737 C172.03125,209.901316 170.871711,207.606908 169.736842,205.929276 C167.886513,202.722039 165.863487,199.588816 163.766447,196.726974 C155.230263,185.032895 147.927632,177.458882 142.105263,174.202303 C140.353618,173.215461 138.996711,172.796053 137.935855,172.623355 C156.340461,157.746711 171.365132,149.185855 180.838816,144.572368 C191.447368,139.440789 197.590461,138.009868 197.639803,137.985197 C198.059211,137.886513 198.305921,137.491776 198.207237,137.097039 C198.108553,136.677632 197.713816,136.430921 197.319079,136.529605 C197.072368,136.578947 191.003289,137.985197 180.271382,143.190789 C170.402961,147.976974 154.588816,157.03125 135.222039,172.944079 C135.172697,172.993421 135.123355,173.042763 135.098684,173.092105 C134.753289,173.388158 134.161184,174.054276 133.963816,175.189145 C133.667763,177.088816 134.555921,179.383224 136.652961,182.047697 C133.322368,184.6875 129.004934,187.944079 124.095395,191.25 C122.911184,192.039474 121.652961,192.853618 120.370066,193.692434 C120.370066,193.692434 120.345395,193.692434 120.345395,193.667763 C107.319079,187.006579 97.2039474,183.527961 90.2713816,183.330592 C88.3223684,183.256579 86.8914474,183.478618 85.8552632,183.799342 C98.2401316,162.458882 112.080592,150.024671 121.652961,143.314145 C121.875,143.166118 122.072368,143.018092 122.294408,142.870066 C123.330592,143.782895 127.203947,147.064145 133.050987,149.679276 C136.973684,151.430921 142.277961,153.083882 148.396382,153.083882 C151.998355,153.083882 155.847039,152.516447 159.868421,151.085526 C175.978618,145.3125 181.282895,133.075658 182.837171,128.092105 C183.207237,126.883224 183.404605,125.970395 183.503289,125.526316 C205.904605,123.404605 221.274671,128.067434 232.203947,135.814145 C225.641447,140.625 209.0625,139.095395 210.715461,145.707237 C212.590461,153.157895 222.532895,144.671053 239.333882,147.384868 C241.381579,147.65625 244.095395,149.185855 245.699013,149.481908 C252.1875,158.634868 255.986842,168.799342 259.095395,177.064145 L259.243421,177.483553 C269.0625,203.708882 269.013158,227.689145 268.939145,231.118421 C265.633224,233.116776 239.013158,248.881579 217.129934,252.754934 C212.763158,253.519737 208.889803,255.9375 205.115132,258.28125 C200.871711,260.921053 196.480263,263.634868 191.398026,264.078947 C187.746711,264.399671 184.712171,264.202303 181.751645,264.029605 C176.175987,263.684211 170.921053,263.363487 162.828947,266.472039 C147.088816,272.516447 138.256579,266.842105 138.157895,266.768092 Z M156.241776,306.784539 C155.995066,305.476974 155.699013,304.144737 155.378289,302.8125 C152.861842,292.376645 148.988487,283.914474 147.557566,280.953947 C147.680921,280.953947 147.804276,280.953947 147.927632,280.953947 C151.578947,280.953947 161.472039,280.238487 181.702303,274.268092 C182.146382,277.006579 183.429276,288.305921 177.138158,296.792763 C172.796053,302.615132 165.764803,305.970395 156.241776,306.784539 Z M55.1151316,411.241776 C54.9424342,411.463816 54.5970395,411.710526 53.8075658,411.5625 C53.3881579,411.463816 53.0921053,411.241776 52.8453947,410.822368 C51.4884868,408.478618 52.8700658,401.990132 54.0296053,397.919408 C54.2269737,398.585526 54.3996711,399.276316 54.5723684,399.991776 C54.7944079,401.151316 55.0411184,402.360197 55.3371711,403.59375 C55.9292763,407.023026 56.0773026,410.131579 55.1151316,411.241776 Z M59.7039474,399.350329 C63.3305921,404.358553 65.1315789,408.379934 64.9095395,410.995066 C64.8108553,412.080592 64.3914474,412.919408 63.5773026,413.511513 C62.6644737,414.177632 62.0723684,414.054276 61.7023026,413.881579 C60.7154605,413.4375 58.7417763,411.488487 56.7927632,403.273026 C56.5953947,402.113487 56.3486842,400.978618 56.0773026,399.942434 C55.5345395,397.154605 55.1891447,394.736842 55.0411184,393.601974 C56.1759868,394.860197 57.9523026,396.957237 59.7039474,399.350329 Z M55.0657895,391.307566 C52.2286184,385.386513 53.2894737,377.319079 53.6842105,374.975329 C64.2927632,376.332237 73.9391447,376.998355 82.7467105,376.998355 C98.7088816,376.998355 111.858553,374.753289 122.763158,370.115132 C122.763158,372.138158 122.935855,376.924342 124.021382,382.722039 C125.279605,389.407895 128.092105,398.684211 134.235197,405.715461 C113.955592,405.493421 89.4078947,400.978618 55.0657895,391.307566 Z M146.521382,405.271382 C134.827303,393.207237 132.927632,367.870066 132.754934,364.761513 C137.220395,361.825658 141.217105,358.322368 144.794408,354.276316 C145.164474,357.236842 146.126645,363.947368 147.927632,371.768092 C151.776316,388.643092 156.685855,398.141447 160.263158,403.248355 C155.847039,404.210526 151.282895,404.876645 146.521382,405.271382 Z M267.65625,336.513158 C265.830592,333.429276 263.90625,330.493421 261.932566,327.65625 C262.080592,327.557566 262.203947,327.409539 262.253289,327.236842 L263.486842,322.894737 C264.177632,320.526316 263.684211,317.935855 262.228618,315.962171 L258.527961,310.978618 C256.850329,308.733553 255.814145,306.044408 255.518092,303.256579 L254.950658,297.631579 C254.407895,292.376645 251.398026,287.590461 246.907895,284.802632 L229.095395,273.799342 C228.848684,273.651316 228.552632,273.651316 228.305921,273.824013 C228.231908,273.873355 228.182566,273.922697 228.133224,273.996711 C227.960526,274.169408 227.911184,274.440789 227.985197,274.6875 C227.985197,274.6875 228.009868,274.761513 228.034539,274.835526 L231.907895,298.519737 C231.883224,298.692434 231.932566,298.889803 232.03125,299.037829 C232.277961,302.491776 232.450658,306.167763 232.425987,310.041118 C232.351974,321.710526 230.723684,332.639803 227.590461,342.557566 C223.692434,354.917763 217.401316,365.723684 208.939145,374.629934 C202.055921,381.883224 194.975329,387.705592 187.5,392.294408 C187.277961,392.171053 187.055921,392.047697 186.833882,391.949013 L169.070724,385.041118 C166.850329,384.177632 164.358553,385.287829 163.470395,387.508224 C162.606908,389.728618 163.717105,392.220395 165.9375,393.108553 L177.458882,397.574013 C172.475329,399.819079 167.294408,401.570724 161.842105,402.853618 C150.172697,386.792763 146.447368,355.608553 146.126645,352.722039 C148.001645,350.452303 149.777961,348.034539 151.430921,345.419408 C151.578947,345.172697 151.726974,344.925987 151.875,344.703947 C159.152961,341.077303 175.805921,347.541118 175.953947,340.509868 C176.126645,332.861842 164.481908,340.707237 156.833882,331.603618 C157.302632,329.210526 157.598684,326.71875 157.722039,324.103618 C157.944079,319.169408 157.549342,313.840461 156.537829,308.215461 C161.990132,307.722039 166.652961,306.439145 170.526316,304.342105 C170.871711,307.080592 171.981908,318.108553 168.725329,331.134868 C168.626645,331.529605 168.873355,331.924342 169.268092,332.023026 C169.317434,332.047697 169.391447,332.047697 169.440789,332.047697 C169.761513,332.047697 170.057566,331.825658 170.180921,331.480263 C173.856908,316.825658 172.105263,304.588816 171.957237,303.527961 C174.498355,301.949013 176.644737,299.975329 178.371711,297.631579 C185.230263,288.404605 183.651316,276.463816 183.182566,273.824013 C183.898026,273.601974 184.638158,273.379934 185.378289,273.157895 C192.286184,271.184211 199.786184,268.692434 207.582237,265.608553 C242.319079,252.458882 265.953947,235.238487 269.629934,232.450658 C271.085526,233.881579 275.995066,239.0625 282.730263,250.238487 C296.324013,272.738487 306.611842,301.652961 312.853618,321.957237 C316.652961,334.268092 319.021382,346.332237 320.427632,357.582237 C316.504934,359.037829 298.421053,365.131579 279.868421,361.060855 C276.217105,352.253289 272.146382,344.013158 267.65625,336.513158 Z M280.534539,362.787829 C284.802632,363.651316 289.046053,363.996711 293.092105,363.996711 C306.118421,363.996711 317.097039,360.419408 320.600329,359.136513 C321.291118,365.082237 321.735197,370.756579 321.981908,376.110197 C310.78125,382.5 289.169408,379.613487 286.381579,379.194079 C284.580592,373.544408 282.631579,368.042763 280.534539,362.787829 Z M317.861842,431.792763 C317.763158,431.842105 317.664474,431.866776 317.541118,431.916118 C315.123355,432.828947 306.587171,435.838816 300.197368,434.679276 C299.259868,434.481908 298.322368,434.210526 297.458882,433.815789 C297.212171,430.855263 295.608553,413.141447 289.761513,390.9375 C291.291118,391.184211 295.189145,391.751645 300.542763,391.751645 C306.414474,391.751645 314.037829,391.085526 322.203947,388.59375 C322.179276,392.171053 322.080592,395.550987 321.932566,398.634868 C321.069079,416.940789 318.379934,429.547697 317.861842,431.792763 Z M320.304276,432.039474 C320.279605,432.039474 320.279605,432.064145 320.304276,432.039474 C320.032895,431.990132 319.810855,431.940789 319.638158,431.891447 C322.03125,427.302632 327.754934,417.804276 331.652961,417.286184 C332.368421,417.1875 332.985197,417.434211 333.527961,418.075658 C334.144737,418.791118 334.366776,419.580592 334.194079,420.46875 C333.379934,424.588816 324.671053,429.819079 320.822368,431.792763 C320.476974,431.940789 320.304276,432.039474 320.304276,432.039474 Z M330.666118,429.350329 C336.759868,427.302632 340.78125,427.105263 341.694079,428.782895 C341.891447,429.152961 341.842105,429.325658 341.743421,429.473684 C341.398026,430.041118 339.621711,431.398026 330.666118,431.866776 C328.199013,431.990132 325.756579,432.014803 323.90625,432.014803 C325.707237,431.225329 328.174342,430.213816 330.666118,429.350329 Z" id="Shape" fill="#1A1A1A"></path>
                            <path d="M31.5789474,202.5 C31.3322368,202.845395 30.8881579,202.919408 30.5427632,202.672697 C25.8799342,199.366776 20.0328947,196.40625 18.7006579,197.368421 C18.1085526,197.787829 17.8618421,198.601974 17.6644737,199.292763 C17.4671053,199.958882 17.3190789,200.526316 16.8256579,200.847039 C14.7286184,202.253289 14.3338816,203.240132 14.3832237,203.832237 C14.4078947,204.202303 14.4572368,204.523026 14.4819079,204.769737 C14.5559211,205.583882 14.6052632,205.978618 14.2845395,206.496711 C14.1611842,206.694079 14.0378289,206.891447 13.9144737,207.064145 C13.0263158,208.396382 12.6809211,208.889803 12.9276316,210.074013 C12.9276316,210.098684 12.9276316,210.148026 12.9523026,210.172697 C12.9769737,210.616776 14.1365132,212.047697 18.3059211,214.144737 C21.7105263,215.847039 25.8799342,217.376645 29.5065789,218.215461 C29.6299342,218.215461 29.7286184,218.240132 29.8519737,218.314145 C29.9013158,218.338816 32.7631579,219.893092 37.8700658,222.039474 C38.3141447,213.898026 41.3240132,209.161184 42.8289474,207.286184 C38.0674342,206.299342 35.1315789,205.361842 34.3667763,205.115132 C33.9720395,204.991776 33.7746711,204.572368 33.8980263,204.177632 C34.0213816,203.782895 34.4407895,203.585526 34.8355263,203.708882 C34.8601974,203.708882 35.5016447,203.930921 35.5263158,203.930921 L37.7467105,197.023026 L38.8075658,193.692434 C37.7960526,193.297697 36.3404605,193.371711 35.5016447,194.161184 C35.4523026,194.210526 35.3782895,194.259868 35.3042763,194.284539 C34.2434211,196.184211 32.2450658,200.822368 31.6776316,202.105263 C31.7269737,202.228618 31.6776316,202.376645 31.5789474,202.5 Z" id="Path" fill="#FECE2F"></path>
                            <path d="M86.0032895,207.878289 C88.3717105,196.504934 92.4671053,185.476974 92.4917763,185.353618 C92.6398026,184.958882 93.0592105,184.786184 93.4539474,184.909539 C93.8486842,185.057566 94.0213816,185.476974 93.8980263,185.871711 C93.8486842,185.995066 89.9506579,196.455592 87.6315789,207.705592 L86.0032895,207.878289 Z" id="Path" fill="#FECE2F"></path>
                            <g id="Group" transform="translate(18.996711, 174.917763)">
                                <path d="M15.9375,7.69736842 C16.2828947,7.57401316 16.6036184,7.40131579 16.8256579,7.10526316 C17.0476974,6.78453947 17.2697368,6.26644737 16.9736842,5.45230263 C16.4802632,3.97203947 11.2253289,-0.271381579 8.31414474,0.222039474 C6.5625,0.518092105 5.74835526,2.56578947 5.50164474,3.25657895 C4.90953947,3.52796053 4.44078947,3.94736842 4.19407895,4.51480263 C3.87335526,5.20559211 3.60197368,5.94572368 3.87335526,6.66118421 C3.89802632,6.71052632 3.89802632,6.73519737 3.92269737,6.78453947 C3.72532895,6.78453947 3.52796053,6.80921053 3.35526316,6.85855263 C2.56578947,7.05592105 1.94901316,7.52467105 1.55427632,8.21546053 C1.06085526,9.10361842 1.13486842,9.89309211 1.52960526,10.6085526 C0.370065789,12.0888158 -0.222039474,13.2976974 0.444078947,14.4325658 C1.13486842,15.6167763 5.82236842,17.7878289 8.4375,17.7878289 C8.75822368,17.7878289 9.05427632,17.7631579 9.30098684,17.6891447 C10.1151316,17.4424342 10.5592105,16.7763158 10.4851974,15.9375 C10.4605263,15.7648026 10.4111842,15.5921053 10.3618421,15.4440789 C10.6332237,15.46875 10.8799342,15.4934211 11.1266447,15.4934211 C11.8914474,15.4934211 12.5575658,15.3207237 13.0016447,14.9259868 C13.2730263,14.6792763 13.3963816,14.3092105 13.3717105,13.8898026 C13.3223684,13.0509868 12.5575658,11.8667763 11.3980263,10.6825658 C12.2121711,10.9786184 12.9769737,11.2006579 13.6430921,11.3733553 C14.4325658,11.5707237 15.0740132,11.6694079 15.5921053,11.6694079 C16.3815789,11.6694079 16.8503289,11.4473684 17.0970395,10.9786184 C17.5411184,10.1644737 17.0723684,8.98026316 15.9375,7.69736842 Z M8.58552632,1.67763158 C10.6332237,1.33223684 15.2467105,4.98355263 15.5921053,5.89638158 C15.5921053,5.92105263 15.5921053,5.94572368 15.6167763,5.94572368 C15.6907895,6.11842105 15.6661184,6.19243421 15.6661184,6.19243421 C15.5674342,6.29111842 15.1233553,6.38980263 14.6792763,6.36513158 C14.6546053,6.36513158 14.6052632,6.36513158 14.5805921,6.36513158 C14.0131579,5.87171053 13.3470395,5.40296053 12.6069079,4.93421053 C10.6825658,3.70065789 8.75822368,3.00986842 7.25328947,2.96052632 C7.54934211,2.39309211 8.01809211,1.77631579 8.58552632,1.67763158 Z M9.05427632,16.0608553 C9.07894737,16.2088816 9.05427632,16.2335526 8.95559211,16.2582237 C7.47532895,16.8009868 2.29440789,14.4572368 1.77631579,13.6924342 C1.77631579,13.6924342 1.77631579,13.6677632 1.75164474,13.6677632 C1.65296053,13.5197368 1.45559211,13.1743421 2.54111842,11.7434211 C3.40460526,12.5082237 4.56414474,13.1496711 5.50164474,13.6677632 C5.64967105,13.7417763 5.79769737,13.8404605 5.94572368,13.9144737 C6.34046053,14.1365132 6.80921053,14.3585526 7.30263158,14.5559211 C8.19078947,15.0986842 9.00493421,15.7894737 9.05427632,16.0608553 Z M11.9161184,13.9144737 C11.3733553,14.1611842 9.69572368,13.9638158 7.96875,13.2730263 C7.87006579,13.2236842 7.77138158,13.1743421 7.69736842,13.125 C7.62335526,13.0756579 7.54934211,13.0756579 7.47532895,13.0509868 C7.20394737,12.9276316 6.93256579,12.7796053 6.66118421,12.6315789 C6.51315789,12.5575658 6.36513158,12.4588816 6.19243421,12.3848684 C3.99671053,11.1759868 2.24506579,10.0904605 2.86184211,8.93092105 C3.05921053,8.58552632 3.30592105,8.38815789 3.70065789,8.28947368 C3.84868421,8.26480263 4.02138158,8.24013158 4.19407895,8.24013158 C5.32894737,8.24013158 6.85855263,8.95559211 8.01809211,9.74506579 C10.6085526,11.5460526 11.7927632,13.3470395 11.9161184,13.9144737 Z M8.93092105,8.09210526 L8.31414474,7.82072368 C6.63651316,7.08059211 5.42763158,6.53782895 5.27960526,6.14309211 C5.23026316,5.99506579 5.30427632,5.64967105 5.55098684,5.13157895 C5.69901316,4.83552632 5.94572368,4.63815789 6.31578947,4.51480263 C6.53782895,4.44078947 6.78453947,4.41611842 7.05592105,4.41611842 C8.28947368,4.41611842 10.0657895,5.05756579 11.8174342,6.16776316 C14.5559211,7.91940789 15.6661184,9.54769737 15.7894737,10.1644737 C15.0493421,10.2631579 12.5822368,9.72039474 8.93092105,8.09210526 Z" id="Shape" fill="#1A1A1A"></path>
                                <path d="M8.93092105,16.2828947 C9.02960526,16.2335526 9.05427632,16.2335526 9.02960526,16.0855263 C9.00493421,15.7894737 8.16611842,15.0986842 7.25328947,14.6052632 C6.75986842,14.4078947 6.29111842,14.1858553 5.89638158,13.9638158 C5.74835526,13.8898026 5.60032895,13.7911184 5.45230263,13.7171053 C4.51480263,13.1990132 3.37993421,12.5575658 2.49177632,11.7927632 C1.40625,13.2236842 1.60361842,13.5690789 1.70230263,13.7171053 C1.70230263,13.7171053 1.70230263,13.7417763 1.72697368,13.7417763 C2.29440789,14.4819079 7.45065789,16.8256579 8.93092105,16.2828947 Z" id="Path" fill="#FECE2F"></path>
                                <path d="M7.47532895,13.0509868 C7.54934211,13.0509868 7.62335526,13.0756579 7.69736842,13.125 C7.77138158,13.1496711 7.87006579,13.1990132 7.96875,13.2730263 C9.69572368,13.9638158 11.3733553,14.1611842 11.9161184,13.9144737 C11.7927632,13.3470395 10.6085526,11.5460526 8.04276316,9.74506579 C6.90789474,8.95559211 5.35361842,8.24013158 4.21875,8.24013158 C4.04605263,8.24013158 3.87335526,8.26480263 3.72532895,8.28947368 C3.33059211,8.38815789 3.08388158,8.58552632 2.88651316,8.93092105 C2.26973684,10.0904605 4.02138158,11.1759868 6.21710526,12.3848684 C6.36513158,12.4835526 6.53782895,12.5575658 6.68585526,12.6315789 C6.90789474,12.8042763 7.20394737,12.9276316 7.47532895,13.0509868 Z" id="Path" fill="#FECE2F"></path>
                                <path d="M15.7894737,10.1644737 C15.6661184,9.57236842 14.5559211,7.91940789 11.8174342,6.16776316 C10.0657895,5.05756579 8.28947368,4.41611842 7.05592105,4.41611842 C6.78453947,4.41611842 6.53782895,4.44078947 6.31578947,4.51480263 C5.94572368,4.61348684 5.69901316,4.81085526 5.55098684,5.13157895 C5.30427632,5.64967105 5.23026316,5.97039474 5.27960526,6.14309211 C5.42763158,6.53782895 6.63651316,7.08059211 8.31414474,7.82072368 L8.93092105,8.09210526 C12.5822368,9.72039474 15.0493421,10.2631579 15.7894737,10.1644737 Z" id="Path" fill="#FECE2F"></path>
                                <path d="M15.6414474,6.19243421 C15.6414474,6.19243421 15.6414474,6.11842105 15.5921053,5.94572368 C15.5921053,5.92105263 15.5674342,5.89638158 15.5674342,5.89638158 C15.2220395,4.95888158 10.6085526,1.33223684 8.56085526,1.67763158 C7.99342105,1.77631579 7.52467105,2.39309211 7.22861842,2.98519737 C8.75822368,3.03453947 10.6578947,3.72532895 12.5822368,4.95888158 C13.3223684,5.42763158 13.9638158,5.89638158 14.5559211,6.38980263 C14.5805921,6.38980263 14.6299342,6.38980263 14.6546053,6.38980263 C15.0986842,6.38980263 15.5674342,6.29111842 15.6414474,6.19243421 Z" id="Path" fill="#FECE2F"></path>
                            </g>
                        </g>
                        <g id="Layer_2" transform="translate(336.266447, 38.980263)" fill-rule="nonzero">
                            <g id="Layer_5">
                                <g id="Group">
                                    <polygon id="Path" fill="#FECE2F" points="0.986842105 46.0361842 62.6644737 19.8848684 67.5986842 62.8125 14.3092105 77.6151316"></polygon>
                                    <path d="M27.8782895,44.5559211 C35.9210526,44.5559211 42.4342105,38.5855263 42.4342105,31.2335526 C42.4342105,30.3207237 42.3355263,29.4325658 42.1381579,28.59375 L16.4555921,39.4736842 C19.1200658,42.5575658 23.2401316,44.5559211 27.8782895,44.5559211 Z" id="Path" fill="#FFFFFF"></path>
                                    <path d="M39.6217105,16.875 C39.3256579,16.875 39.0296053,16.6776316 38.9309211,16.3815789 C38.7828947,15.9868421 38.9802632,15.5674342 39.375,15.4440789 L81.5625,0.271381579 C81.9572368,0.123355263 82.3766447,0.320723684 82.5,0.715460526 C82.6480263,1.11019737 82.4506579,1.52960526 82.0559211,1.65296053 L39.8684211,16.8256579 C39.7944079,16.8503289 39.6957237,16.875 39.6217105,16.875 Z" id="Path" fill="#1A1A1A"></path>
                                    <path d="M75.1480263,14.6546053 C74.8273026,14.6546053 74.5559211,14.4572368 74.4325658,14.1365132 C74.3092105,13.7417763 74.5065789,13.3223684 74.9013158,13.1990132 L90.7894737,8.01809211 C91.1842105,7.89473684 91.6036184,8.09210526 91.7269737,8.48684211 C91.8503289,8.88157895 91.6529605,9.30098684 91.2582237,9.42434211 L75.3700658,14.6052632 C75.2960526,14.6546053 75.2220395,14.6546053 75.1480263,14.6546053 Z" id="Path" fill="#1A1A1A"></path>
                                    <path d="M78.4786184,57.9523026 C78.1578947,57.9523026 77.8371711,57.7302632 77.7631579,57.3848684 C77.6644737,56.9901316 77.9111842,56.5953947 78.3059211,56.4967105 L103.815789,50.2055921 C104.210526,50.1069079 104.605263,50.3536184 104.703947,50.7483553 C104.802632,51.1430921 104.555921,51.5378289 104.161184,51.6365132 L78.6513158,57.9276316 C78.6019737,57.9523026 78.5279605,57.9523026 78.4786184,57.9523026 Z" id="Path" fill="#1A1A1A"></path>
                                    <path d="M55.9046053,76.0855263 C55.5838816,76.0855263 55.2631579,75.8634868 55.1891447,75.5180921 C55.0904605,75.1233553 55.3371711,74.7286184 55.7319079,74.6299342 L99.375,63.8980263 C99.7697368,63.7993421 100.164474,64.0460526 100.263158,64.4407895 C100.361842,64.8355263 100.115132,65.2302632 99.7203947,65.3289474 L56.0773026,76.0608553 C56.0279605,76.0855263 55.9539474,76.0855263 55.9046053,76.0855263 Z" id="Path" fill="#1A1A1A"></path>
                                    <path d="M68.3388158,62.7384868 L63.4046053,19.8848684 C63.4292763,19.6628289 63.3305921,19.4407895 63.1578947,19.2927632 C62.8865132,19.0460526 62.4671053,19.0460526 62.1957237,19.2927632 L0.888157895,45.2960526 C0.592105263,45.3453947 0.345394737,45.5427632 0.271381579,45.8634868 C0.271381579,45.8881579 0.271381579,45.9128289 0.246710526,45.9375 L0.246710526,45.9375 C0.222039474,46.0361842 0.222039474,46.1101974 0.246710526,46.2088816 C0.246710526,46.2335526 0.246710526,46.2582237 0.271381579,46.2582237 C0.271381579,46.2828947 0.271381579,46.3075658 0.296052632,46.3075658 C0.296052632,46.3322368 0.296052632,46.3322368 0.296052632,46.3569079 L13.6184211,77.9358553 C13.6677632,78.0345395 13.7417763,78.1332237 13.8157895,78.2072368 C13.8898026,78.28125 13.9884868,78.3305921 14.0871711,78.3552632 C14.1611842,78.3799342 14.2351974,78.3799342 14.3092105,78.3799342 C14.3832237,78.3799342 14.4325658,78.3799342 14.5065789,78.3552632 L67.7960526,63.5526316 C68.1414474,63.4292763 68.3881579,63.1085526 68.3388158,62.7384868 Z M6.73519737,57.7796053 C6.04440789,55.2631579 4.63815789,47.1710526 16.3815789,50.8470395 L15.4440789,50.5509868 L21.8338816,52.2039474 L14.2105263,75.5180921 L6.73519737,57.7796053 Z M33.0592105,53.5608553 L3.33059211,45.8388158 L60.0740132,21.7845395 L33.0592105,53.5608553 Z M23.2894737,52.5986842 L33.1085526,55.1398026 C33.1825658,55.1644737 33.2319079,55.1644737 33.3059211,55.1644737 C33.5279605,55.1644737 33.7253289,55.0657895 33.8733553,54.8684211 L42.0888158,45.2220395 L65.9210526,62.5164474 L15.46875,76.5296053 L23.2894737,52.5986842 Z M43.0509868,44.0871711 L45.5921053,41.1019737 C45.3207237,41.4473684 45.1726974,41.6447368 45.1726974,41.6447368 C45.1726974,41.6447368 54.4736842,30.3947368 58.5690789,33.8486842 C62.6891447,37.3026316 65.6496711,52.4259868 65.6496711,52.4259868 C65.6496711,52.4259868 65.6003289,51.9819079 65.5509868,51.2417763 L66.6858553,61.2088816 L43.0509868,44.0871711 Z" id="Shape" fill="#1A1A1A"></path>
                                    <circle id="Oval" fill="#FFFFFF" cx="46.6529605" cy="59.4325658" r="4.81085526"></circle>
                                </g>
                            </g>
                        </g>
                    </g>
                </g>
            </g>
        </g>
    </g>
</svg>