<?xml version="1.0" encoding="UTF-8"?>
<svg width="599px" height="456px" viewBox="0 0 599 456" version="1.1" xmlns="http://www.w3.org/2000/svg" xmlns:xlink="http://www.w3.org/1999/xlink">
    <!-- Generator: Sketch 63 (92445) - https://sketch.com -->
    <title>taxi-waiting</title>
    <desc>Created with Sketch.</desc>
    <g id="Illustrations" stroke="none" stroke-width="1" fill="none" fill-rule="evenodd">
        <g id="Illustrations/waiting" transform="translate(0.000000, -72.000000)" fill-rule="nonzero">
            <g id="taxi-waiting" transform="translate(0.000000, 72.000000)">
                <path d="M384.001109,46.1163535 C326.04844,-17.1076795 214.541297,-9.50785969 158.917083,34.4740763 C98.4095818,82.3044317 135.632529,130.102447 28.2648618,275.081138 C-23.4785923,344.934801 -11.092503,447.322161 129.164597,452.302468 C275.339855,457.476814 522.188471,480.729028 539.231471,289.310588 C550.873748,158.658366 455.148358,123.731535 384.001109,46.1163535 Z" id="Path" fill="#FECE2F"></path>
                <path d="M164.93226,179.711484 C164.93226,179.711484 173.663968,176.800915 180.1319,167.907509 C186.599831,159.014102 191.612478,154.874626 195.169841,155.295042 C204.548342,156.39459 215.382128,184.85349 224.275534,185.694321 L196.625126,220.653492 L164.93226,179.711484 Z" id="Path" fill="#1A1A1A"></path>
                <path d="M197.854033,221.041568 L332.74275,48.7035262 C333.066146,48.2831106 333.001467,47.6686571 332.581051,47.3452605 C332.160636,47.0218639 331.546182,47.0865432 331.222786,47.5069588 L196.592786,219.456925 L61.995126,47.5069588 C61.6717294,47.0865432 61.0572758,47.0218639 60.6368603,47.3452605 C60.2164447,47.6686571 60.1517654,48.2831106 60.475162,48.7035262 L195.363879,221.041568 L60.475162,393.37961 C60.1517654,393.800025 60.2164447,394.414479 60.6368603,394.737876 C60.7985586,394.867234 61.0249362,394.931913 61.2189741,394.931913 C61.5100311,394.931913 61.801088,394.802555 61.995126,394.543838 L196.592786,222.593872 L331.190446,394.543838 C331.384484,394.802555 331.675541,394.931913 331.966598,394.931913 C332.160636,394.931913 332.387013,394.867234 332.548712,394.737876 C332.969127,394.414479 333.033806,393.800025 332.71041,393.37961 L197.854033,221.041568 Z" id="Path" fill="#FFFFFF"></path>
                <path d="M101.38483,387.752509 C101.38483,387.752509 103.810305,381.96371 110.92503,376.983403 C118.039755,372.003095 125.15448,364.564974 128.226747,357.32089 C131.299015,350.076807 140.192421,331.675541 148.924129,324.237419 C157.655837,316.799298 166.710941,309.361176 170.753399,299.626939 C174.795856,289.892702 189.510401,261.789538 196.463427,261.982576 C203.416454,262.177614 200.505885,272.752682 207.135515,276.051328 C213.765145,279.349973 218.93949,288.663795 222.496853,296.71637 C226.054215,304.768945 233.492337,321.132812 241.415553,323.590626 C249.338769,326.04844 256.130098,337.237962 262.112935,350.464883 C268.095772,363.691803 280.384842,366.181957 290.895231,387.881868 L101.38483,387.752509 Z" id="Path" fill="#1A1A1A"></path>
                <path d="M112.606692,114.514732 C112.315635,114.514732 112.024578,114.385373 111.83054,114.126656 L60.475162,48.7035262 C60.1517654,48.2831106 60.2164447,47.6686571 60.6368603,47.3452605 C61.0572758,47.0218639 61.6717294,47.0865432 61.995126,47.5069588 L113.350504,112.962428 C113.673901,113.382844 113.609221,113.997297 113.188806,114.320694 C113.027108,114.450053 112.83307,114.514732 112.606692,114.514732 Z" id="Path" fill="#FECE2F"></path>
                <path d="M196.431088,232.522147 C196.366408,232.522147 196.269389,232.522147 196.20471,232.489807 C196.140031,232.457468 196.075351,232.457468 196.010672,232.392788 C195.945993,232.360449 195.881313,232.328109 195.816634,232.26343 C195.751955,232.19875 195.687275,232.166411 195.654936,232.101731 C195.428558,231.843014 195.331539,231.454938 195.331539,231.066862 C195.331539,230.678786 195.460898,230.32305 195.654936,230.031993 C195.719615,229.967314 195.751955,229.902635 195.816634,229.837955 C195.881313,229.773276 195.945993,229.740936 196.010672,229.708597 C196.075351,229.676257 196.140031,229.643917 196.20471,229.611578 C196.366408,229.579238 196.495767,229.579238 196.657465,229.611578 C196.722145,229.643917 196.819164,229.676257 196.883843,229.708597 C196.948522,229.740936 197.013202,229.805616 197.077881,229.837955 C197.14256,229.902635 197.207239,229.967314 197.239579,230.031993 C197.465957,230.29071 197.562976,230.678786 197.562976,231.066862 C197.562976,231.454938 197.433617,231.810674 197.239579,232.101731 C197.1749,232.166411 197.14256,232.23109 197.077881,232.26343 C197.013202,232.328109 196.948522,232.360449 196.883843,232.392788 C196.819164,232.425128 196.754484,232.457468 196.657465,232.489807 C196.592786,232.522147 196.528107,232.522147 196.431088,232.522147 Z" id="Path" fill="#1A1A1A"></path>
                <path d="M196.431088,245.005255 C195.881313,245.005255 195.460898,244.455481 195.460898,243.776348 L195.460898,241.997667 C195.460898,241.318534 195.881313,240.76876 196.431088,240.76876 C196.980862,240.76876 197.401277,241.318534 197.401277,241.997667 L197.401277,243.776348 C197.401277,244.455481 196.980862,245.005255 196.431088,245.005255 Z" id="Path" fill="#1A1A1A"></path>
                <path d="M196.431088,256.162437 C195.881313,256.162437 195.460898,255.612663 195.460898,254.93353 L195.460898,250.794054 C195.460898,250.114921 195.881313,249.565147 196.431088,249.565147 C196.980862,249.565147 197.401277,250.114921 197.401277,250.794054 L197.401277,254.93353 C197.401277,255.612663 196.980862,256.162437 196.431088,256.162437 Z" id="Path" fill="#1A1A1A"></path>
                <path d="M325.304628,386.491263 L62.1244846,386.491263 C51.9698317,386.491263 43.7232187,394.737876 43.7232187,404.892528 L43.7232187,413.624236 C43.7232187,414.23869 44.2083136,414.723785 44.8227671,414.723785 L342.671025,414.723785 C343.285478,414.723785 343.770573,414.23869 343.770573,413.624236 L343.770573,404.892528 C343.738234,394.770215 335.459281,386.491263 325.304628,386.491263 Z" id="Path" fill="#1A1A1A"></path>
                <g id="Group" transform="translate(44.952126, 384.195147)" fill="#FECE2F">
                    <path d="M192.259272,30.1729017 C179.808503,23.6079509 158.529008,16.1051501 127.93569,17.5927744 C91.94165,19.3714556 72.3761564,26.162784 63.9355055,30.043543 C63.4504106,30.2699207 63.224033,30.8520345 63.4504106,31.3371294 C63.6767882,31.8222243 64.2589021,32.0486019 64.743997,31.8222243 C73.0876289,27.9738049 92.3944052,21.3118352 128.032709,19.5331539 C158.205611,18.0455296 179.12937,25.4189718 191.386101,31.8869036 C191.51546,31.9515829 191.677158,31.9839226 191.838856,31.9839226 C192.194592,31.9839226 192.517989,31.7898846 192.712027,31.466488 C192.906065,31.0137328 192.744367,30.3992793 192.259272,30.1729017 Z" id="Path"></path>
                    <path d="M300.144373,14.0030723 C299.885656,13.5179774 299.303542,13.3562791 298.818447,13.6149964 L297.848258,14.1324309 C282.907335,22.1203266 267.481318,30.3992793 245.652048,21.5705524 C224.728289,13.1299015 216.643374,11.3188806 191.677158,9.44318037 C184.465414,8.89340617 179.323408,6.46793176 176.251141,2.23143646 L246.363521,2.23143646 C246.913295,2.23143646 247.333711,1.81102089 247.333711,1.26124669 C247.333711,0.711472494 246.913295,0.291056929 246.363521,0.291056929 L58.858179,0.291056929 C58.3084048,0.291056929 57.8879893,0.711472494 57.8879893,1.26124669 C57.8879893,1.81102089 58.3084048,2.23143646 58.858179,2.23143646 L108.790612,2.23143646 C105.524307,10.5103891 88.8693824,15.4583569 60.475162,16.6225846 C43.9172567,17.3017175 23.4462526,16.6549243 1.19656738,14.8115637 C0.646793176,14.7792241 0.194037953,15.1673 0.159815645,15.6847345 C0.129358635,16.2345087 0.517434541,16.6872639 1.03486908,16.7196036 C17.5280951,18.1102089 33.083471,18.7893418 46.7954863,18.7893418 C51.6140955,18.7893418 56.206327,18.6923228 60.5398413,18.5306245 C90.9067809,17.3017175 107.852762,11.8039755 110.86035,2.1990968 L126.318707,2.1990968 C126.286368,3.07226759 126.512745,3.8484194 126.99784,4.52755223 C128.841201,7.08238528 134.015546,7.6968388 141.841744,8.57000959 C150.508772,9.57253901 162.377427,10.9308047 174.019704,15.8787725 C184.78881,20.471004 196.528107,21.79693 206.844458,22.9934974 C219.036509,24.3841027 228.641388,25.5159908 231.422598,31.2077708 C231.584297,31.563507 231.940033,31.757545 232.295769,31.757545 C232.425128,31.757545 232.586826,31.7252053 232.716185,31.660526 C233.20128,31.4341484 233.395318,30.8520345 233.16894,30.3669396 C229.934974,23.7049699 219.845001,22.5407422 207.070835,21.0531179 C196.883843,19.8888902 185.306245,18.5306245 174.795856,14.0677516 C162.894861,9.02276481 150.864508,7.63215948 142.100461,6.62963006 C135.309132,5.85347825 129.973089,5.23902473 128.614823,3.36332452 C128.453125,3.13694691 128.259087,2.78121066 128.291427,2.16675714 L173.987364,2.16675714 C177.25367,7.59981982 183.171828,10.6720874 191.580139,11.2865409 C216.287638,13.1299015 224.275534,14.9409224 244.972916,23.2845543 C251.440847,25.9040667 257.747081,27.1976531 264.053314,27.1976531 C267.643016,27.1976531 271.232718,26.7772375 274.85476,25.9364064 C283.586468,23.8990079 291.347986,19.7595315 298.818447,15.7494138 L299.788637,15.2319793 C300.209053,15.0379413 300.403091,14.4558275 300.144373,14.0030723 Z" id="Path"></path>
                    <path d="M245.425671,12.515448 C245.425671,16.2345087 254.383756,18.1748883 263.212483,18.1748883 C272.04121,18.1748883 280.999295,16.2345087 280.999295,12.515448 C280.999295,8.7963872 272.04121,6.85600767 263.212483,6.85600767 C254.351417,6.85600767 245.425671,8.7963872 245.425671,12.515448 Z M263.212483,8.7963872 C273.464155,8.7963872 279.058916,11.2542013 279.058916,12.515448 C279.058916,13.7766947 273.464155,16.2345087 263.212483,16.2345087 C252.960811,16.2345087 247.36605,13.7766947 247.36605,12.515448 C247.36605,11.2542013 252.960811,8.7963872 263.212483,8.7963872 Z" id="Shape"></path>
                </g>
                <path d="M237.858191,25.1925942 L208.105704,25.1925942 C207.491251,25.1925942 207.006156,24.7074993 207.006156,24.0930458 C207.006156,23.4785923 207.491251,22.9934974 208.105704,22.9934974 L237.858191,22.9934974 C238.472644,22.9934974 238.957739,23.4785923 238.957739,24.0930458 C238.957739,24.7074993 238.472644,25.1925942 237.858191,25.1925942 Z" id="Path" fill="#FECE2F"></path>
                <g id="Group" transform="translate(230.581767, 143.911482)">
                    <path d="M49.4149987,192.712027 C54.5246648,185.694321 57.8556496,174.40778 57.8556496,161.698294 C57.8556496,149.150506 54.6216837,137.993324 49.6090366,130.975618 C49.6090366,130.975618 41.6858202,145.851861 42.0092168,164.447165 C42.3326134,183.042469 49.4149987,192.712027 49.4149987,192.712027 Z" id="Path" fill="#FFFFFF"></path>
                    <path d="M198.759543,74.1548377 L198.759543,74.1548377 C193.714556,75.2543861 189.833797,79.2645038 188.895947,84.3418302 L174.504799,161.698294 L181.942921,158.367309 L194.781765,79.4585417 L198.759543,74.1548377 Z" id="Path" fill="#FFFFFF"></path>
                    <path d="M41.8475185,222.658551 C52.0991904,217.387187 81.0755247,205.777249 81.0755247,205.777249 L71.8263822,205.033437 C50.902623,200.9263 41.6534806,190.577609 41.2007253,165.579053 C40.7803098,140.580497 55.2037976,120.077153 55.2037976,120.077153 C55.2037976,120.077153 73.8637807,114.547072 94.2701055,122.761345 C112.962428,130.296485 120.303531,132.72196 125.833612,143.555745 C127.256557,142.326838 123.957912,148.891789 115.355563,147.986279 L113.318164,152.513831 C113.318164,152.513831 136.441021,155.068664 136.279322,154.421871 C136.117624,153.775078 142.973632,155.230362 142.973632,155.230362 L149.991338,138.510759 L155.877155,127.418256 L159.111121,90.2276481 C159.111121,90.2276481 145.269747,89.9042515 139.545628,80.946166 C133.821508,71.9880805 132.430903,63.0623347 132.430903,63.0623347 C132.430903,63.0623347 114.094316,64.1942228 101.611208,70.1770596 C89.09576,76.1598965 81.5606195,80.849147 70.0153613,88.5136462 C58.4701031,96.1781453 47.3776002,110.504614 36.8025317,124.410667 C26.2274633,138.316721 15.3613379,165.579053 12.7741652,174.537139 C10.1869925,183.495224 3.07226759,209.237593 1.29358635,232.19875 C1.29358635,232.19875 1.66533454e-16,249.662166 0.646793176,252.734434 C0.614453518,252.734434 15.6523949,236.079509 41.8475185,222.658551 Z" id="Path" fill="#FFFFFF"></path>
                    <path d="M150.088357,118.912925 C149.926658,118.912925 149.76496,118.880586 149.603262,118.783567 C145.916541,116.649149 143.717444,112.639032 143.814463,108.402536 C143.911482,105.297929 145.205068,102.419699 147.468844,100.285282 C149.73262,98.1508645 152.707869,97.0189764 155.780137,97.1159954 C156.329911,97.1159954 156.750326,97.5687506 156.717987,98.1185248 C156.717987,98.6359594 156.265231,99.056375 155.747797,99.056375 C155.747797,99.056375 155.715457,99.056375 155.715457,99.056375 C153.128284,98.9916956 150.67047,99.9295457 148.762431,101.708227 C146.88673,103.486908 145.787182,105.880043 145.722503,108.499555 C145.625484,112.056918 147.468844,115.355563 150.541112,117.166584 C150.993867,117.425301 151.155565,118.039755 150.896848,118.49251 C150.767489,118.718888 150.444093,118.912925 150.088357,118.912925 Z" id="Path" fill="#FECE2F"></path>
                    <path d="M109.857821,91.5859138 C100.188263,91.5859138 92.2003673,84.0184336 91.6829327,74.3488756 C91.6505931,73.7991014 92.0710087,73.3463462 92.5884432,73.3140065 C93.1382174,73.2816669 93.5909726,73.7020824 93.6233123,74.219517 C94.0760675,82.8542059 101.190792,89.6131946 109.857821,89.6131946 C118.815906,89.6131946 126.09233,82.3367713 126.09233,73.3786859 C126.09233,70.0800407 125.0898,66.8784144 123.24644,64.1618831 C122.955383,63.7091279 123.052402,63.127014 123.505157,62.8036174 C123.957912,62.5125605 124.540026,62.6095795 124.863423,63.0623347 C126.965501,66.1022626 128.065049,69.6596251 128.065049,73.3786859 C128.032709,83.4039801 119.883115,91.5859138 109.857821,91.5859138 Z" id="Path" fill="#FECE2F"></path>
                    <path d="M101.352491,125.542556 C100.802717,125.542556 100.382301,125.12214 100.382301,124.572366 C100.382301,114.935147 108.208498,107.10895 117.845717,107.10895 C125.574895,107.10895 132.301544,112.089257 134.56532,119.4627 C134.727019,119.980134 134.435962,120.529908 133.918527,120.659267 C133.401093,120.820965 132.851318,120.529908 132.72196,120.012474 C130.716901,113.447523 124.734064,109.01699 117.878056,109.01699 C109.308047,109.01699 102.35502,115.970017 102.35502,124.540026 C102.32268,125.0898 101.902265,125.542556 101.352491,125.542556 Z" id="Path" fill="#FECE2F"></path>
                    <path d="M91.1978379,122.405609 C91.1008189,122.405609 91.0361396,122.405609 90.9391206,122.373269 C90.4216861,122.24391 90.1306291,121.694136 90.2599878,121.176702 C90.5510447,120.141833 90.6804033,119.074624 90.6804033,118.007415 C90.6804033,111.442464 85.3443596,106.13876 78.8117485,106.13876 C72.2467978,106.13876 66.9430938,111.474804 66.9430938,118.007415 C66.9430938,118.557189 66.5226782,118.977605 65.972904,118.977605 C65.4231298,118.977605 65.0027142,118.557189 65.0027142,118.007415 C65.0027142,110.375256 71.2119287,104.198381 78.8117485,104.198381 C86.443908,104.198381 92.6207829,110.407595 92.6207829,118.007415 C92.6207829,119.268662 92.4590846,120.497569 92.135688,121.694136 C92.0063293,122.146891 91.6182534,122.405609 91.1978379,122.405609 Z" id="Path" fill="#FECE2F"></path>
                    <path d="M47.7009968,208.49378 C39.1309872,208.49378 32.1456209,201.508414 32.1456209,192.938404 C32.1456209,186.664511 35.8646816,181.03741 41.6534806,178.611936 C42.1385754,178.417898 42.7206893,178.644275 42.9147272,179.12937 C43.1087652,179.614465 42.8823876,180.196579 42.3972927,180.390617 C37.3523059,182.525034 34.0860004,187.440663 34.0860004,192.938404 C34.0860004,200.441205 40.1981959,206.553401 47.7009968,206.553401 C52.2608886,206.553401 56.4650443,204.289625 59.0198773,200.505885 C59.3109343,200.053129 59.9253878,199.95611 60.378143,200.247167 C60.8308982,200.538224 60.9279172,201.152678 60.6368603,201.605433 C57.726291,205.906608 52.8753422,208.49378 47.7009968,208.49378 Z" id="Path" fill="#FECE2F"></path>
                    <path d="M27.1006341,232.26343 C26.7448978,232.26343 26.3891616,232.069392 26.2274633,231.713655 C22.4760629,223.887458 14.4558275,218.810132 5.78879893,218.810132 C4.98030746,218.810132 4.13947633,218.842471 3.33098486,218.93949 C2.81355032,219.00417 2.32845543,218.616094 2.26377612,218.066319 C2.1990968,217.548885 2.58717271,217.06379 3.13694691,216.999111 C4.01011769,216.902092 4.91562814,216.869752 5.82113859,216.869752 C15.2319793,216.869752 23.9636872,222.367494 28.0061445,230.872824 C28.2325221,231.357919 28.0384842,231.940033 27.5533893,232.166411 C27.391691,232.26343 27.2623324,232.26343 27.1006341,232.26343 Z" id="Path" fill="#FECE2F"></path>
                    <path d="M12.5801273,186.664511 C11.7392962,186.664511 10.898465,186.632171 10.0576339,186.535152 C9.54019935,186.470473 9.15212345,186.017718 9.1844631,185.467943 C9.24914242,184.950509 9.7342373,184.562433 10.2516718,184.594773 C11.0278237,184.659452 11.8039755,184.724131 12.5801273,184.724131 C24.8691976,184.724131 34.8944919,174.698837 34.8944919,162.409767 C34.8944919,154.971645 31.2077708,148.083298 25.0632356,143.911482 C24.6104804,143.620425 24.5134614,143.005971 24.8045183,142.553216 C25.0955752,142.100461 25.7100288,142.003442 26.162784,142.294499 C32.8570934,146.822051 36.8672111,154.324852 36.8672111,162.409767 C36.8348714,175.766046 25.968746,186.664511 12.5801273,186.664511 Z" id="Path" fill="#FECE2F"></path>
                    <path d="M337.593698,248.36858 L329.993879,246.880955 L177.835784,225.407422 C177.835784,225.407422 180.746353,221.559003 158.399649,242.903177 C136.052945,264.247352 119.39802,268.968942 119.39802,268.968942 L333.227844,269.680415 C338.466869,265.088183 338.143473,252.960811 337.593698,248.36858 Z" id="Path" fill="#FECE2F"></path>
                    <path d="M168.910038,233.557016 L338.563888,252.281678 L337.593698,248.400919 L177.835784,225.439762 C176.024763,227.121424 170.915097,232.069392 168.910038,233.557016 Z" id="Path" fill="#FFFFFF"></path>
                    <path d="M367.637241,224.922327 C364.435615,222.949608 358.420439,226.183574 349.235976,234.818263 C347.780691,236.176528 346.390086,237.567134 345.06416,238.925399 C345.290537,238.375625 345.516915,237.825851 345.710953,237.276077 C347.133898,233.20128 347.424955,229.320521 346.454765,227.153764 C345.807972,225.666139 344.546725,224.922327 343.026761,225.181044 C341.086382,225.504441 339.631097,227.47716 338.628567,231.196221 C337.884755,227.186103 336.49415,224.049156 334.58611,222.949608 C333.809958,222.496853 332.257655,222.011758 330.511313,223.66108 C325.919082,227.962255 332.548712,241.803629 335.329922,247.107333 L294.74365,241.286194 C294.678971,241.286194 294.581952,241.286194 294.517273,241.286194 L177.965142,224.469572 C177.447708,224.404893 176.930273,224.760629 176.865594,225.278063 C176.833254,225.439762 176.865594,225.60146 176.897934,225.730819 C173.50227,229.805616 167.81049,234.333168 164.382486,237.793511 C143.814463,258.458553 123.375798,266.866865 118.363151,268.742565 L115.226204,268.742565 C114.67643,268.742565 114.256015,269.16298 114.256015,269.712755 C114.256015,270.262529 114.67643,270.682944 115.226204,270.682944 L333.195505,270.682944 L352.922697,270.844643 C352.922697,270.844643 352.922697,270.844643 352.922697,270.844643 C353.343112,270.844643 353.731188,270.585925 353.860547,270.16551 L368.025317,226.021875 C368.187016,225.60146 368.025317,225.148705 367.637241,224.922327 Z M331.869579,225.019346 C332.387013,224.534251 332.775089,224.404893 333.066146,224.404893 C333.324863,224.404893 333.518901,224.501912 333.64826,224.566591 C336.267772,226.086555 338.466869,235.723773 336.688188,245.393331 C332.872108,238.052229 328.991349,227.735877 331.869579,225.019346 Z M190.286552,258.393874 C183.818621,257.423684 171.141474,251.667225 170.300643,241.835969 C169.524492,232.360449 175.34563,227.541839 177.28601,226.215913 C177.415368,226.280593 177.544727,226.345272 177.674086,226.377612 L301.664337,244.261443 C301.696677,244.261443 301.761356,244.261443 301.793696,244.261443 C301.826036,244.261443 301.858375,244.261443 301.890715,244.261443 L329.023689,248.142202 C329.250066,250.27662 329.89686,259.881498 325.692704,268.742565 L213.409409,268.742565 C214.088541,263.762257 206.909137,260.916367 190.286552,258.393874 Z M332.807429,268.742565 L327.891801,268.742565 C331.70788,260.140216 331.319805,251.343828 331.061087,248.400919 L336.558829,249.177071 C336.655848,249.24175 336.752867,249.30643 336.849886,249.371109 C337.529019,252.08764 339.34004,261.886557 332.807429,268.742565 Z M339.146002,241.318534 C339.146002,241.156836 339.178342,240.962798 339.178342,240.8011 C339.663437,234.10679 340.957023,227.44482 343.350158,227.056745 C343.447177,227.056745 343.544196,227.024405 343.641215,227.024405 C344.02929,227.024405 344.385027,227.186103 344.676084,227.865236 C345.96967,230.840485 344.06163,239.701551 338.984304,244.875897 C339.016643,243.744009 339.048983,242.515101 339.146002,241.318534 Z" id="Shape" fill="#1A1A1A"></path>
                    <path d="M270.068491,246.557559 L278.185745,254.836511 C278.832538,255.224587 283.845185,257.973458 291.96244,255.515644 C298.689089,253.478246 300.079694,250.988092 300.370751,250.114921 C298.915466,248.562618 292.93263,242.062346 284.783036,233.233619 C278.767859,240.73642 272.332267,245.134614 270.068491,246.557559 Z" id="Path" fill="#FECE2F"></path>
                    <path d="M291.347986,238.82838 L251.667225,196.075351 C251.667225,196.075351 216.514016,153.160624 202.931359,153.807417 C189.348702,154.454211 181.166769,159.20814 181.166769,159.20814 L138.704797,179.905522 L114.353034,194.781765 C114.353034,194.781765 99.0240353,204.936418 81.5606195,205.421513 C81.5606195,205.421513 60.7662189,213.732805 39.2603458,224.566591 C17.7544727,235.400377 11.1248426,242.6768 11.1248426,242.6768 C11.1248426,242.6768 13.5826567,252.411037 18.9510401,261.045726 C22.6054215,266.931544 28.4912394,271.038681 35.2502281,272.558645 C42.558991,274.175627 53.9102112,276.083667 65.4554694,275.695591 C88.7400238,274.91944 104.780495,272.526305 104.780495,272.526305 L124.701724,266.769846 L145.98122,254.707153 L193.455839,210.046084 L251.21447,253.154849 L269.680415,247.269031 L278.056387,256.033079 L290.604174,257.908779 L302.052413,250.502997 L294.614292,242.159365" id="Path" fill="#FECE2F"></path>
                    <path d="M215.705524,159.757915 C215.705524,159.757915 215.705524,159.725575 215.705524,159.757915 C210.757557,156.038854 206.230004,153.678059 202.963699,153.839757 C199.471016,154.001455 196.334069,154.454211 193.617537,155.003985 C189.995496,155.101004 187.861078,156.39459 187.505342,156.620968 C183.430545,157.946894 181.199108,159.24048 181.199108,159.24048 L138.737136,179.937862 L138.737136,179.937862 C143.749783,181.97526 149.376884,181.813562 154.260173,179.485106 C163.509315,175.119252 179.226389,167.713471 190.351232,162.474446 C198.015731,158.852404 207.167854,160.534066 213.053672,166.613922 L281.031635,236.823322 L285.30047,232.554487 C285.26813,232.586826 229.158822,170.138945 215.705524,159.757915 Z" id="Path" fill="#FFFFFF"></path>
                    <path d="M66.7167161,211.307331 C66.6196972,211.048613 66.4256592,210.854575 66.1992816,210.757557 C65.972904,210.660538 65.6818471,210.660538 65.4554694,210.757557 L63.5474296,211.566048 C63.127014,211.760086 62.9006364,212.180501 62.9653157,212.633257 C63.029995,212.891974 67.8809439,240.121967 55.6242132,246.298842 C55.2684769,246.46054 55.074439,246.816276 55.1067786,247.204352 C55.1067786,247.592428 55.3654959,247.915824 55.7212321,248.077523 L62.0921449,250.664695 C62.2215036,250.697035 62.3508622,250.729375 62.4478812,250.729375 C62.7065984,250.729375 62.9329761,250.632356 63.127014,250.438318 C67.6222266,245.975445 70.0153613,239.733891 70.2740786,231.940033 C70.5974752,221.364965 66.8784144,211.727746 66.7167161,211.307331 Z" id="Path" fill="#1A1A1A"></path>
                    <path d="M265.023504,248.465599 L201.573093,180.649334 C197.045541,175.830725 189.478061,175.280951 184.303716,179.388087 C173.243552,188.184475 151.511302,205.195135 130.361165,220.297756 C104.780495,238.569663 87.6081357,248.659637 79.3938624,250.341299 C74.1548377,251.408508 68.9804923,250.826394 64.1295434,249.403449 C67.9779628,245.037595 70.047701,239.184117 70.2740786,232.004712 C70.6298149,221.397304 66.9107541,211.760086 66.7490558,211.33967 C66.5550178,210.854575 66.0052436,210.595858 65.4878091,210.789896 C65.0027142,210.983934 64.743997,211.533708 64.9380349,212.051143 C64.9703746,212.148162 68.6894353,221.753041 68.3336991,231.940033 C68.1073215,239.022418 66.0052436,244.681859 62.0921449,248.756656 C56.6267426,246.816276 51.6787748,243.873367 47.7656761,241.059817 C39.2280061,234.947621 33.5038865,228.123953 33.4392072,228.059274 C33.083471,227.638858 32.4690175,227.606519 32.0809415,227.929915 C31.660526,228.285652 31.6281863,228.900105 31.9515829,229.288181 C32.1779605,229.579238 37.8697405,236.338227 46.6014484,242.579781 C56.0446287,249.338769 65.3584505,252.831453 73.8961204,252.831453 C75.9011792,252.831453 77.8738984,252.637415 79.7819383,252.249339 C99.1857336,248.3039 160.21067,201.055659 185.532623,180.940391 C189.930816,177.447708 196.366408,177.932803 200.182488,182.0076 L263.632899,249.823864 C263.988635,250.21194 264.603088,250.24428 264.991164,249.856204 C265.346901,249.468128 265.37924,248.853675 265.023504,248.465599 Z" id="Path" fill="#FFFFFF"></path>
                    <path d="M285.26813,232.586826 C285.26813,232.586826 280.352502,245.037595 271.944191,249.468128 L269.712686,247.301371 C269.680415,247.333711 281.031635,240.380684 285.26813,232.586826 Z" id="Path" fill="#1A1A1A"></path>
                    <path d="M350.497222,248.821335 C350.044467,248.045183 349.041938,247.786466 348.298125,248.239221 C347.521974,248.691976 347.263256,249.694506 347.716012,250.438318 C349.688731,253.769303 351.952507,257.617722 354.50734,261.918897 L355.833266,257.81176 C353.860547,254.545455 352.081866,251.505527 350.497222,248.821335 Z" id="Path" fill="#FECE2F"></path>
                    <path d="M357.126852,245.684388 C355.703907,243.388272 354.345642,241.221515 353.116735,238.86072 C352.696319,238.084568 351.726129,237.761172 350.917638,238.181587 C350.141486,238.602003 349.818089,239.572193 350.238505,240.380684 C351.532091,242.838498 352.987376,245.166953 354.377981,247.39839 C355.41285,249.080052 356.480059,250.794054 357.482589,252.572735 L358.808515,248.433259 C358.25874,247.495409 357.708966,246.589898 357.126852,245.684388 Z" id="Path" fill="#FECE2F"></path>
                    <ellipse id="Oval" fill="#FFFFFF" transform="translate(191.271522, 39.720688) rotate(-84.574165) translate(-191.271522, -39.720688) " cx="191.271522" cy="39.7206876" rx="2.84583443" ry="5.4976347"></ellipse>
                    <path d="M195.848974,37.255287 C194.749425,36.5438145 193.229461,36.0587196 191.612478,35.9293609 C187.925757,35.5736247 185.015188,36.9318904 184.82115,39.0986475 C184.724131,40.2305356 185.370924,41.330084 186.664511,42.1385754 C187.764059,42.8500479 189.284023,43.3351428 190.901006,43.4645014 C191.289082,43.4968411 191.677158,43.5291808 192.032894,43.5291808 C195.169841,43.5291808 197.530636,42.2355944 197.692334,40.2952149 C197.821693,39.1956665 197.14256,38.0961181 195.848974,37.255287 Z M191.095044,41.5564616 C189.801458,41.4271029 188.572551,41.039027 187.731719,40.5215925 C187.084926,40.1011769 186.72919,39.6484217 186.76153,39.2926855 C186.826209,38.6135526 188.281494,37.8374008 190.51293,37.8374008 C190.803987,37.8374008 191.127384,37.8374008 191.45078,37.8697405 C191.547799,37.8697405 191.612478,37.9020801 191.709497,37.9020801 C191.062704,38.290156 190.642289,38.8075906 190.577609,39.4220441 C190.51293,40.2305356 191.095044,41.0066874 192.097573,41.6211409 C191.774177,41.5888012 191.45078,41.5888012 191.095044,41.5564616 Z" id="Shape" fill="#1A1A1A"></path>
                    <path d="M175.216271,39.0663079 L174.310761,35.638304 C174.472459,35.4766057 174.601818,35.3149074 174.763516,35.1855488 C175.151592,34.7974729 175.151592,34.1830194 174.763516,33.8272831 C174.37544,33.4392072 173.760987,33.4392072 173.405251,33.8272831 C170.462342,36.7701921 170.397662,36.96423 170.300643,37.2229473 C170.138945,37.7403818 170.397662,38.290156 170.915097,38.4518543 C171.012116,38.484194 171.109135,38.5165337 171.206154,38.5165337 C171.52955,38.5165337 171.852947,38.3224957 172.046985,38.0314388 C172.144004,37.9020801 172.402721,37.6433629 172.726118,37.2876266 L173.340571,39.5837424 C173.46993,40.004158 173.858006,40.2952149 174.278421,40.2952149 C174.37544,40.2952149 174.44012,40.2952149 174.537139,40.2628752 C175.054573,40.1335166 175.37797,39.5837424 175.216271,39.0663079 Z" id="Path" fill="#1A1A1A"></path>
                    <path d="M321.973643,257.261986 C315.66741,254.189718 310.848801,252.184659 307.485476,250.891073 C310.040309,250.794054 312.78918,250.27662 315.473372,249.27409 C319.515829,247.786466 322.717455,245.555029 323.817004,243.452952 C324.560816,241.997667 324.334438,240.574722 323.20255,239.572193 C321.747266,238.278606 319.289451,238.407965 315.764429,239.960268 C318.416281,236.855661 319.936245,233.783394 319.612848,231.616636 C319.483489,230.743466 318.869036,229.223502 316.508241,228.900105 C310.040309,228.026934 303.216641,242.967857 301.114563,248.012843 C292.479874,238.666682 232.683845,173.890345 220.297756,161.957011 C210.240122,152.255114 197.498296,150.508772 183.495224,156.912025 C183.236507,157.041383 182.91311,157.170742 182.589714,157.33244 L195.493238,80.1376745 C195.751955,79.8789573 196.043012,79.5879003 196.398748,79.2645038 C198.177429,77.5828415 200.861621,75.0603481 202.284566,71.470646 C204.030907,67.0077731 203.933888,63.6121089 201.89649,61.0572758 C200.570564,59.3756136 199.08294,58.6964808 198.015731,58.4701031 C198.824222,56.6914219 199.471016,54.7187027 199.95611,52.6166249 C200.182488,52.325568 201.185017,51.7111144 201.92883,51.2906989 C203.739851,50.2234901 206.003627,48.8652245 207.232534,46.9248449 C207.652949,46.2457121 207.62061,45.6312586 207.491251,45.2431827 C207.070835,43.8525774 205.195135,42.9794066 203.222416,42.0738961 C202.252226,41.6211409 200.667583,40.9096684 200.441205,40.4892528 C200.085469,33.0511313 198.371467,26.8419168 197.336598,23.6402906 C199.632714,20.2446264 201.055659,16.6549243 201.379055,13.2592601 C201.767131,8.99042515 200.344186,5.43306268 197.239579,2.94290895 C193.197122,-0.291056929 187.602361,-0.582113859 181.03741,2.03739851 C177.868123,3.33098486 175.183932,4.98030746 173.696308,5.98283688 C173.631628,6.0475162 173.599289,6.07985586 173.534609,6.14453518 L167.228376,10.6720874 C167.066677,10.801446 166.872639,10.8661254 166.678602,10.8661254 C166.387545,10.8661254 166.064148,10.7367667 165.90245,10.4457098 C165.579053,10.0252942 165.676072,9.41084072 166.128827,9.08744413 L170.494681,5.95049722 C166.8403,5.23902473 163.088899,5.53008166 159.596216,6.85600767 C157.655837,7.59981982 155.812476,8.66702856 154.066135,10.0576339 L151.446622,6.40325245 C151.123226,5.98283688 150.541112,5.85347825 150.088357,6.17687483 C149.667941,6.50027142 149.538582,7.08238528 149.861979,7.5351405 L152.57851,11.3512202 C152.222774,11.6746168 151.899377,11.9980134 151.543641,12.3537497 L147.953939,12.1273721 C147.436505,12.0950324 146.95141,12.515448 146.91907,13.0328825 C146.88673,13.5826567 147.307146,14.0354119 147.82458,14.0677516 L149.958998,14.1971102 C148.730091,15.7494138 147.598203,17.4634158 146.595673,19.3714556 C143.491066,25.3219529 142.359178,30.9813931 143.264689,36.2204179 C144.04084,40.7156305 146.142918,44.0466153 147.88926,46.4720897 C148.147977,46.827826 148.406694,47.1512226 148.730091,47.5069588 L132.624941,61.7687483 C130.78158,61.801088 122.567307,62.1568242 110.633973,65.8435454 C98.3772421,69.6272854 79.814278,77.8415588 60.8632379,95.3373142 C42.461972,112.315635 27.1006341,135.664869 16.3638674,162.927201 C5.23902473,191.159723 -0.388075906,222.496853 0.0970189764,253.542925 C0.0970189764,253.866322 0.129358635,256.000739 1.84336055,257.682401 C3.20162622,259.040667 5.20668507,259.68746 7.79385777,259.68746 C8.0849147,259.68746 8.37597163,259.68746 8.69936822,259.655121 C12.3860893,259.525762 14.5851861,258.523233 15.6847345,257.81176 C19.048059,263.729918 22.8641388,267.901734 27.0036151,270.197849 C35.5736247,274.951779 49.7707349,276.504083 64.5822987,276.504083 C74.2518566,276.504083 84.1801319,275.85729 92.9765191,274.984119 C104.26306,273.884571 115.290884,271.038681 125.671914,266.543468 C136.085284,262.015916 145.657823,255.93606 154.163154,248.400919 C156.847345,246.007785 159.596216,243.517631 162.345087,240.930458 C181.587184,222.78791 191.289082,213.571107 193.649877,211.307331 L217.290168,229.029464 C217.354847,229.094143 217.419526,229.126483 217.516545,229.158822 L250.438318,253.769303 C250.632356,253.898661 250.858733,253.963341 251.085111,253.963341 C251.440847,253.931001 259.75214,253.251868 269.098301,248.206881 L276.568762,255.806701 L273.043739,269.389358 C272.97906,269.680415 273.043739,270.003811 273.205438,270.230189 C273.367136,270.456567 273.658193,270.618265 273.981589,270.618265 L333.324863,270.618265 C333.583581,270.618265 333.842298,270.521246 334.036336,270.294868 C334.230374,270.10083 334.327393,269.842113 334.295053,269.551056 C334.198034,269.357018 333.551241,262.889087 321.973643,257.261986 Z M200.279507,62.2861829 C201.86415,64.2912417 201.89649,66.9754334 200.376526,70.7915131 C199.115279,73.9931394 196.625126,76.3539345 194.975803,77.9062381 C194.523048,78.3589933 194.102632,78.7147296 193.779236,79.0704658 C193.649877,79.1998244 193.552858,79.3938624 193.520518,79.5555607 L180.358277,158.367309 C177.738765,159.628556 174.149063,161.374897 170.138945,163.315277 C170.106605,163.250598 170.041926,163.218258 169.977247,163.185918 C169.65385,162.959541 161.892332,157.36478 151.123226,155.586099 C149.376884,155.295042 147.210127,154.971645 144.816992,154.680588 C146.142918,152.546171 148.924129,146.530994 156.491609,129.390975 C157.203082,127.773992 157.882214,126.189349 158.529008,124.734064 C159.757915,121.952853 161.310218,118.395491 163.088899,114.320694 C169.395133,99.8648664 181.134429,72.9259306 182.783752,71.3089477 C184.109678,70.2093993 184.950509,69.2715492 185.209226,68.6570957 C185.306245,68.6570957 185.403264,68.6570957 185.500283,68.6570957 C185.564962,69.3685682 185.661981,69.7889837 185.661981,69.7889837 C185.694321,69.9183424 185.759,70.047701 185.82368,70.1770596 C186.244095,70.7268338 186.72919,70.8561925 187.052587,70.8561925 C187.117266,70.8561925 187.214285,70.8561925 187.246625,70.8561925 C187.796399,70.7591735 188.281494,70.4034372 188.734249,69.6272854 C188.798928,70.5651355 188.928287,71.1472494 188.928287,71.1795891 C188.960626,71.3089477 189.025306,71.4383063 189.089985,71.567665 C189.510401,72.1174392 189.995496,72.2467978 190.318892,72.2467978 C190.415911,72.2467978 190.51293,72.2467978 190.577609,72.2144581 C191.321422,72.0527598 192.032894,71.4059667 192.906065,69.1421905 C193.132442,70.0153613 193.455839,70.5004562 193.520518,70.5974752 C193.973274,71.2119287 194.490708,71.3412873 194.878784,71.3412873 C194.975803,71.3412873 195.072822,71.3412873 195.169841,71.3089477 C196.560446,71.0178908 197.336598,68.9158129 198.468486,64.6146383 C198.533165,64.3235814 198.597845,64.0648641 198.662524,63.8708262 C198.791883,63.3533916 198.500826,62.8359571 197.983391,62.6742588 C197.465957,62.5449002 196.948522,62.8359571 196.786824,63.3533916 C196.722145,63.5797692 196.657465,63.8384865 196.592786,64.1295434 C196.334069,65.1644125 195.590257,68.0103025 194.975803,69.0775112 C194.717086,68.3660387 194.264331,66.4579989 195.331539,63.0623347 C195.363879,62.9653157 195.363879,62.8682967 195.363879,62.7389381 C195.913653,61.995126 196.431088,61.1866345 196.916183,60.3134637 C197.659995,60.378143 199.01826,60.6691999 200.279507,62.2861829 Z M106.688534,165.967129 C106.688534,165.999469 106.688534,166.031808 106.688534,166.064148 C106.688534,166.096488 106.688534,166.096488 106.720874,166.128827 C106.720874,166.161167 106.753214,166.193507 106.753214,166.225846 C106.753214,166.258186 106.785553,166.258186 106.785553,166.290526 C106.785553,166.322865 106.817893,166.355205 106.817893,166.387545 C106.817893,166.419884 106.850233,166.419884 106.850233,166.452224 C106.882572,166.484564 106.882572,166.516903 106.914912,166.549243 C106.947252,166.581583 106.947252,166.581583 106.979591,166.613922 C107.011931,166.646262 107.044271,166.646262 107.044271,166.678602 C107.07661,166.710941 107.07661,166.710941 107.10895,166.710941 C107.10895,166.710941 107.14129,166.743281 107.14129,166.743281 C107.14129,166.743281 107.173629,166.743281 107.173629,166.775621 C107.205969,166.775621 107.205969,166.80796 107.238309,166.80796 C107.270648,166.80796 107.302988,166.8403 107.335328,166.8403 C107.367667,166.8403 107.367667,166.8403 107.400007,166.872639 C107.464686,166.904979 107.561705,166.904979 107.626385,166.904979 C107.691064,166.904979 107.755743,166.904979 107.820422,166.872639 C107.820422,166.872639 107.852762,166.872639 107.852762,166.872639 C107.917441,166.872639 107.982121,166.8403 108.0468,166.80796 C108.0468,166.80796 108.0468,166.80796 108.07914,166.80796 C108.143819,166.775621 108.176159,166.743281 108.240838,166.710941 C108.240838,166.710941 108.273178,166.710941 108.273178,166.678602 C108.337857,166.646262 108.370197,166.581583 108.402536,166.549243 C108.402536,166.549243 108.402536,166.549243 108.402536,166.549243 C108.499555,166.452224 117.328282,155.48908 131.557732,155.068664 C138.672457,155.844816 146.239937,156.782666 150.832169,157.526478 C159.369839,158.949423 166.096488,162.959541 168.166226,164.350146 C154.939305,170.818078 138.510759,179.000012 138.252041,179.097031 C138.252041,179.097031 138.252041,179.097031 138.219702,179.097031 C138.187362,179.097031 138.187362,179.097031 138.155022,179.12937 L116.746168,192.226932 C113.512202,194.134972 110.342916,195.913653 107.594045,197.336598 C103.228191,199.276978 95.0462573,202.510944 86.6056063,203.998568 C80.0729952,204.871739 72.5701944,204.807059 65.1967522,202.316906 C57.2088564,199.341657 52.4549266,194.652406 52.3902473,194.587727 C52.2932283,194.490708 52.1962093,194.426029 52.0668507,194.393689 C46.633788,188.766589 43.4321618,180.649334 42.7853686,170.527021 C41.9121978,157.429459 45.404881,142.1328 52.8430025,126.286368 C53.651494,124.572366 54.4599854,122.923043 55.2684769,121.30606 C55.3978356,121.241381 65.6818471,115.549601 88.3196082,122.082212 C88.7076841,122.211571 89.09576,122.340929 89.4838359,122.470288 C102.743096,127.094859 110.957369,133.336413 116.940206,142.068121 L112.703711,151.802358 C112.574352,151.899377 112.444994,152.028736 112.380314,152.222774 L106.720874,165.579053 L106.720874,165.579053 L106.720874,165.579053 L106.720874,165.579053 C106.688534,165.643732 106.688534,165.708412 106.656195,165.740751 C106.656195,165.773091 106.656195,165.773091 106.656195,165.805431 C106.656195,165.83777 106.656195,165.90245 106.656195,165.934789 C106.688534,165.90245 106.688534,165.934789 106.688534,165.967129 Z M157.655837,121.952853 L160.534066,90.1629688 L165.708412,79.3291831 C165.740751,79.2645038 165.773091,79.2321641 165.805431,79.1674848 L172.564419,64.9703746 C175.636687,66.5226782 179.420427,68.0103025 182.97779,68.4630577 C182.686733,68.7864543 182.266317,69.2068699 181.587184,69.7566441 C180.06722,71.0502304 173.566949,85.5060579 161.342558,113.479863 C159.951953,116.681489 158.723045,119.527379 157.655837,121.952853 Z M190.706968,67.0724524 C191.127384,66.8460748 191.51546,66.5873575 191.903535,66.2963006 C191.418441,67.8809439 191.030365,68.8511336 190.739308,69.4332475 C190.706968,68.818794 190.674628,68.0103025 190.706968,67.0724524 Z M149.991338,48.8975641 C152.513831,51.0966609 155.909495,52.5842852 159.563877,52.5842852 C161.504256,52.5842852 163.541655,52.1638697 165.546713,51.2260196 C167.228376,50.4175281 168.651321,49.5120176 169.783209,48.5094882 C171.852947,46.6661277 172.144004,43.4968411 170.462342,41.2977443 C169.071736,39.5190631 168.618981,37.2876266 169.233435,35.2178885 C169.68619,33.6009055 170.753399,32.3073192 171.949966,31.8545639 C173.049514,31.4341484 174.116723,31.4341484 174.925215,31.8222243 C175.604347,32.1456209 176.121782,32.7600744 176.412839,33.6009055 C176.865594,34.9915108 177.835784,36.0587196 179.16171,36.5761541 C180.325938,37.0289093 181.619524,37.0289093 182.557374,36.5114748 C187.925757,33.6655848 192.517989,29.7848258 195.816634,25.5483305 C196.819164,28.911655 198.11275,34.312378 198.436146,40.5862718 C198.500826,42.0092168 200.279507,42.8500479 202.349245,43.787898 C203.287095,44.2083136 205.486192,45.2431827 205.583211,45.7606172 C205.583211,45.7606172 205.583211,45.7929569 205.550871,45.8576362 C204.580682,47.4099398 202.543283,48.6388469 200.893961,49.6090366 C199.309317,50.5468867 198.242109,51.1936799 198.048071,52.13153 C197.757014,53.4251164 197.401277,54.6540234 196.980862,55.8182511 L189.219344,57.0794978 C188.701909,57.1765168 188.346173,57.6616117 188.410852,58.1790462 C188.475532,58.6641411 188.895947,58.9875377 189.381042,58.9875377 C189.445721,58.9875377 189.478061,58.9875377 189.54274,58.9875377 L196.107691,57.9203289 C193.746896,63.029995 190.027835,66.2639609 185.920699,66.5873575 C180.1319,67.0401127 172.370381,62.7712778 168.942378,60.6368603 L167.131357,59.4726326 C167.099017,59.4402929 167.034338,59.4079532 167.001998,59.4079532 C167.001998,59.4079532 166.969658,59.4079532 166.969658,59.4079532 C166.937319,59.3756136 166.872639,59.3756136 166.8403,59.3756136 C166.80796,59.3756136 166.80796,59.3756136 166.775621,59.3756136 C166.743281,59.3756136 166.710941,59.3756136 166.646262,59.3756136 C166.613922,59.3756136 166.613922,59.3756136 166.581583,59.3756136 C166.549243,59.3756136 166.484564,59.3756136 166.452224,59.3756136 C166.452224,59.3756136 166.419884,59.3756136 166.419884,59.3756136 C166.355205,59.3756136 166.322865,59.4079532 166.258186,59.4079532 C166.258186,59.4079532 166.225846,59.4079532 166.225846,59.4402929 C166.193507,59.4726326 166.161167,59.4726326 166.096488,59.5049722 C166.064148,59.5049722 166.064148,59.5373119 166.031808,59.5373119 C166.031808,59.5373119 165.999469,59.5696515 165.999469,59.5696515 C165.967129,59.5696515 165.967129,59.6019912 165.967129,59.6019912 C165.967129,59.6019912 165.934789,59.6343309 165.934789,59.6343309 C165.90245,59.6666705 165.87011,59.7313498 165.83777,59.7636895 C165.83777,59.7636895 165.83777,59.7636895 165.83777,59.7636895 C165.83777,59.7636895 165.83777,59.7636895 165.83777,59.7636895 C165.805431,59.7960292 165.773091,59.8607085 165.740751,59.9253878 C165.740751,59.9577274 165.740751,59.9577274 165.708412,59.9900671 C165.708412,60.0224068 165.676072,60.0547464 165.676072,60.0870861 C165.676072,60.1194257 165.676072,60.1194257 165.676072,60.1517654 C165.676072,60.1841051 165.676072,60.2487844 165.676072,60.281124 C165.676072,60.281124 165.676072,60.3134637 165.676072,60.3134637 C165.676072,60.378143 165.676072,60.4428223 165.676072,60.475162 C165.676072,60.475162 165.676072,60.5075016 165.676072,60.5075016 C165.676072,60.5398413 165.676072,60.572181 165.708412,60.6045206 C165.740751,60.6691999 168.101547,68.3013594 164.253127,78.0679364 L159.014102,88.9987411 C158.367309,89.0634204 157.009044,89.09576 155.133343,88.7400238 C152.64319,88.2549289 148.697751,86.9613426 144.07318,83.4363197 C136.085284,77.3888035 134.306603,65.5848281 133.983206,63.0946744 L149.991338,48.8975641 Z M90.0336101,76.7096707 C90.0982895,76.6773311 90.1629688,76.6126517 90.2276481,76.5803121 C98.1508645,72.3114771 105.297929,69.5302665 111.054388,67.7515852 C121.758815,64.4206004 129.552673,63.8384865 132.075167,63.7414675 C132.495582,67.104792 134.532981,78.7147296 142.876613,85.020963 C149.73262,90.2276481 155.262702,91.0037999 158.011573,91.0037999 C158.108592,91.0037999 158.205611,91.0037999 158.27029,91.0037999 L138.187362,153.807417 C136.052945,153.5487 133.886188,153.322322 131.75177,153.063605 L131.75177,153.063605 L131.75177,153.063605 C124.507686,152.255114 117.748698,151.575981 115.129185,151.317264 L116.422772,148.342015 C116.746168,148.374355 117.263603,148.374355 117.910396,148.374355 C118.46017,148.374355 119.074624,148.342015 119.753757,148.309675 C122.534967,148.083298 124.475347,147.307146 125.542556,146.01356 C125.865952,145.625484 126.05999,145.172728 126.189349,144.655294 C126.221688,144.590615 126.286368,144.525935 126.286368,144.428916 L139.933704,106.882572 C140.127742,106.365138 139.869024,105.815364 139.35159,105.653665 C138.834155,105.459627 138.284381,105.718345 138.122683,106.235779 L125.542556,140.903893 C123.828554,137.47589 118.169113,131.104977 99.7355078,123.796214 C75.642462,114.256015 61.9627863,116.810848 56.8207805,118.557189 C65.0997332,102.613737 73.0552893,92.5237639 78.5530313,86.6056063 C85.31202,79.2968434 89.9689308,76.7096707 90.0336101,76.7096707 Z M9.83125628,242.547441 C9.83125628,242.547441 9.83125628,242.547441 9.83125628,242.547441 C9.60487867,242.741479 4.9479678,246.49288 1.90748536,250.405978 C1.84336055,220.621152 7.43812153,190.674628 18.0778693,163.638674 C28.717617,136.667398 43.9172567,113.544542 62.0921449,96.7602592 C67.7515852,91.5535741 73.3463462,87.1877202 78.7794089,83.5009991 C78.2619743,84.0507733 77.7122001,84.6005475 77.1624259,85.1826613 C70.6944942,92.0710087 60.9602569,104.651136 51.1936799,125.380857 C37.1906076,155.165683 37.4816646,182.654393 51.3230385,196.20471 C52.1962093,197.368938 54.783382,200.473545 59.1815756,203.610492 C61.7687483,205.453852 65.2290918,207.458911 69.5949458,208.946536 C68.3660387,209.43163 67.0401127,209.949065 65.6495074,210.531179 C56.206327,214.476617 41.2977443,221.494323 23.7373096,232.554487 C17.7868123,236.305887 13.2915998,239.669211 9.8959356,242.515101 C9.86359594,242.547441 9.83125628,242.547441 9.83125628,242.547441 Z M268.742565,246.234162 C260.592971,250.794054 252.928472,251.861263 251.21447,252.055301 L219.295226,228.188633 L220.718171,226.798027 C221.364965,226.183574 221.720701,225.310403 221.688361,224.404893 C221.656022,223.499382 221.267946,222.658551 220.588813,222.076437 L214.2179,216.643374 C213.959183,216.416997 213.797484,216.0936 213.797484,215.737864 C213.797484,215.382128 213.926843,215.058731 214.153221,214.800014 C214.767674,214.18556 215.12341,213.31239 215.091071,212.406879 C215.058731,211.533708 214.638316,210.692877 213.959183,210.110763 L204.386644,202.090528 C203.125397,201.055659 201.314376,201.120338 200.150148,202.252226 L192.809046,209.334612 C192.615008,209.49631 183.171828,218.519075 160.922142,239.507513 C158.205611,242.062346 155.45674,244.58484 152.804888,246.945635 C144.461256,254.319077 135.050415,260.301914 124.831083,264.732447 C114.611751,269.16298 103.810305,271.944191 92.7178018,273.043739 C52.8430025,276.892159 35.4442661,272.688003 27.8767859,268.483847 C22.4437232,265.44392 18.3365865,259.170026 15.5877155,253.607604 C14.4881671,251.085111 12.8065049,247.010314 11.6099375,243.58231 C14.8115637,240.930458 19.1127384,237.728832 24.7721787,234.13913 C45.3402017,221.170927 62.4802208,213.668126 72.6348737,209.787367 C75.8041603,210.595858 79.3291831,211.113293 83.2422818,211.113293 C83.4686594,211.113293 83.695037,211.113293 83.9214146,211.113293 C93.1058777,210.983934 105.23325,205.777249 119.980134,195.687275 C130.296485,188.63723 138.316721,181.522505 139.254571,180.681674 C141.615366,179.517446 177.091972,161.924672 184.206697,158.658366 C197.433617,152.61085 209.43163,154.227833 218.874811,163.315277 C227.994595,172.111664 262.921426,209.658008 284.071563,232.489807 C282.551599,234.527206 276.698121,241.771289 268.742565,246.234162 Z M297.201465,253.316548 C295.972557,254.06036 294.290895,254.804172 291.9301,255.515644 C291.089269,255.774362 290.280778,255.9684 289.504626,256.130098 C289.472286,256.130098 289.472286,256.130098 289.439946,256.130098 C283.004354,256.679872 279.802728,255.612663 278.67084,255.095229 C278.444462,254.96587 278.250424,254.868851 278.185745,254.836511 L273.270117,249.823864 C276.601102,247.818806 279.738049,244.487821 282.583939,239.863249 C284.039223,237.534794 285.041753,235.465056 285.623867,234.203809 C293.126668,242.288724 298.62441,248.271561 300.209053,249.985563 C299.788637,250.729375 298.850787,252.055301 297.201465,253.316548 Z M315.861448,230.808145 C315.958467,230.808145 316.087825,230.808145 316.184844,230.840485 C317.51077,231.034523 317.607789,231.681316 317.640129,231.940033 C318.125224,234.947621 312.013028,242.709139 303.410679,247.463069 C306.644645,240.057287 311.980689,230.808145 315.861448,230.808145 Z M305.286379,248.918354 C306.224229,248.174542 307.194419,247.463069 308.196949,246.751597 C308.326307,246.654578 308.423326,246.589898 308.552685,246.49288 C314.050427,242.61212 320.065603,239.442834 321.876624,241.027477 C322.23236,241.350874 322.491078,241.73895 322.070662,242.579781 C320.583038,245.425671 312.530463,249.565147 305.286379,248.918354 Z" id="Shape" fill="#1A1A1A"></path>
                    <path d="M292.350516,268.742565 C295.131726,265.961354 297.65422,263.438861 299.885656,261.207424 C300.532449,260.592971 300.532449,259.558102 299.885656,258.911308 C299.271203,258.264515 298.236334,258.264515 297.58954,258.911308 C294.74365,261.757198 291.412666,265.055844 287.758284,268.742565 L292.350516,268.742565 L292.350516,268.742565 Z" id="Path" fill="#FECE2F"></path>
                    <path d="M298.203994,268.742565 L302.763886,268.742565 C303.378339,268.095772 303.992793,267.481318 304.607246,266.834525 C306.482947,264.861806 308.261628,263.018445 310.234347,261.239764 C310.88114,260.62531 310.94582,259.622781 310.363706,258.943648 C309.749252,258.296855 308.746723,258.232176 308.06759,258.81429 C306.030191,260.65765 304.122152,262.662709 302.278791,264.570749 C300.952865,265.993694 299.626939,267.384299 298.203994,268.742565 Z" id="Path" fill="#FECE2F"></path>
                </g>
                <path d="M311.430914,57.629272 C311.236876,57.2411961 310.848801,57.0148185 310.460725,57.0148185 L293.8058,57.0148185 C293.417724,57.0148185 293.094328,57.2088564 292.86795,57.532253 L223.175985,168.230905 C222.852589,168.716 222.981948,169.362793 223.467042,169.718529 C223.66108,169.847888 223.887458,169.912567 224.081496,169.912567 C224.404893,169.912567 224.728289,169.750869 224.954667,169.492152 L311.301556,58.7934997 C311.592613,58.4377635 311.624952,58.0173479 311.430914,57.629272 Z" id="Path" fill="#FFFFFF"></path>
                <path d="M134.953396,318.319262 C134.532981,318.028205 133.983206,318.092884 133.65981,318.48096 L85.9911528,375.560458 C85.7647752,375.851515 85.7000959,376.239591 85.8617942,376.595327 C86.0234925,376.951063 86.346889,377.145101 86.7349649,377.145101 L99.8001871,377.24212 C99.8001871,377.24212 99.8001871,377.24212 99.8001871,377.24212 C100.123584,377.24212 100.44698,377.080422 100.641018,376.789365 L135.244453,319.612848 C135.470831,319.160093 135.373812,318.610319 134.953396,318.319262 Z" id="Path" fill="#FFFFFF"></path>
                <path d="M272.235248,75.7718206 C272.04121,75.4160844 271.685474,75.2220464 271.265058,75.2220464 L263.600559,75.2220464 C263.180143,75.2220464 262.824407,75.448424 262.630369,75.8041603 L249.177071,101.44951 C249.015373,101.772906 249.015373,102.160982 249.177071,102.484379 C249.338769,102.807775 249.694506,103.034153 250.050242,103.034153 L255.612663,103.486908 C255.645003,103.486908 255.677343,103.486908 255.709682,103.486908 C256.097758,103.486908 256.453494,103.29287 256.647532,102.937134 L272.235248,76.8390293 C272.429286,76.5156328 272.429286,76.0952172 272.235248,75.7718206 Z" id="Path" fill="#FFFFFF"></path>
                <g id="Group" transform="translate(45.275522, 19.403795)">
                    <path d="M299.174184,1.55230362 L1.32592601,1.55230362 C0.711472494,1.55230362 0.226377612,2.03739851 0.226377612,2.65185202 L0.226377612,11.3835599 C0.226377612,21.5382128 8.47299061,29.7848258 18.6276435,29.7848258 L281.807787,29.7848258 C291.96244,29.7848258 300.209053,21.5382128 300.209053,11.3835599 L300.209053,2.65185202 C300.273732,2.03739851 299.756298,1.55230362 299.174184,1.55230362 Z" id="Path" fill="#1A1A1A"></path>
                    <g transform="translate(0.646793, 0.000000)" fill="#FECE2F">
                        <path d="M126.254028,32.1456209 C125.801273,32.1456209 125.413197,31.8222243 125.316178,31.3694691 C125.057461,30.140562 125.251499,29.0733533 125.898292,28.1678428 C127.773992,25.5159908 133.110036,24.8045183 141.162611,23.7373096 C149.73262,22.6054215 161.439577,21.0531179 172.920156,16.2021691 C183.689262,11.6099375 195.428558,10.2840115 205.744909,9.08744413 C217.936961,7.6968388 227.541839,6.56495074 230.32305,0.873170788 C230.549428,0.388075906 231.131542,0.194037953 231.616636,0.420415565 C232.101731,0.646793176 232.295769,1.22890704 232.069392,1.71400192 C228.835426,8.37597163 218.745452,9.54019935 205.971287,11.0278237 C195.784294,12.1920514 184.206697,13.550317 173.696308,18.01319 C161.989351,22.9934974 150.120696,24.545801 141.453668,25.7100288 C134.435962,26.6478789 128.90588,27.3593514 127.515275,29.3320705 C127.191878,29.7848258 127.094859,30.3346 127.256557,31.0137328 C127.353576,31.5311673 127.03018,32.0486019 126.512745,32.1779605 C126.383387,32.1132812 126.318707,32.1456209 126.254028,32.1456209 Z" id="Path"></path>
                        <path d="M108.855292,31.9192433 C108.434876,31.9192433 108.0468,31.660526 107.917441,31.2077708 C103.131172,14.8762431 49.6413763,13.2592601 1.19656738,17.1723588 C0.646793176,17.2046985 0.194037953,16.8166226 0.161698294,16.299188 C0.129358635,15.7494138 0.517434541,15.2966586 1.03486908,15.264319 C11.0601633,14.4558275 36.96423,12.7094859 60.7338793,13.9383929 C90.4863654,15.4906966 106.979591,21.1177972 109.793142,30.6903362 C109.95484,31.2077708 109.663783,31.757545 109.146349,31.8869036 C109.04933,31.9192433 108.952311,31.9192433 108.855292,31.9192433 Z" id="Path"></path>
                        <path d="M134.662339,14.6822051 C132.107506,14.6822051 129.520334,14.6175258 126.803802,14.4881671 C111.927559,13.744355 84.0184336,11.2542013 64.2265624,2.65185202 C63.7414675,2.42547441 63.5150899,1.87570021 63.7091279,1.39060533 C63.9355055,0.905510447 64.4852797,0.679132835 64.9703746,0.873170788 C84.5035285,9.3461614 112.153937,11.8039755 126.900821,12.5477876 C157.073723,14.0354119 177.997482,6.66196972 190.254213,0.194037953 C190.739308,-0.0646793176 191.321422,0.129358635 191.580139,0.614453518 C191.838856,1.0995484 191.644818,1.68166226 191.159723,1.94037953 C179.776163,7.92321641 161.083841,14.6822051 134.662339,14.6822051 Z" id="Path"></path>
                        <path d="M173.211213,32.1132812 C173.049514,32.1132812 172.887816,32.0809415 172.758457,31.9839226 C172.273363,31.7252053 172.111664,31.1430914 172.370381,30.6579966 C175.539668,24.7074993 181.619524,21.3765145 190.448251,20.6973816 C215.15575,18.8863607 223.143646,17.0753399 243.841027,8.73170788 C253.963341,4.62457121 263.729918,3.78374008 273.690533,6.07985586 C282.42224,8.11725436 290.183759,12.2567307 297.65422,16.2668484 L298.62441,16.7842829 C299.109504,17.0430002 299.271203,17.6251141 299.012485,18.1102089 C298.753768,18.5953038 298.171654,18.7570021 297.686559,18.4982848 L296.71637,17.9808503 C281.775447,9.99295457 266.34943,1.71400192 244.52016,10.5427288 C223.596401,18.9833797 215.511486,20.7944006 190.54527,22.6701008 C182.395676,23.2845543 176.865594,26.2921426 174.019704,31.5958467 C173.890345,31.9192433 173.566949,32.1132812 173.211213,32.1132812 Z" id="Path"></path>
                        <path d="M262.112935,25.2249339 C253.284208,25.2249339 244.326122,23.2845543 244.326122,19.5654936 C244.326122,15.8464328 253.284208,13.9060533 262.112935,13.9060533 C270.941662,13.9060533 279.899747,15.8464328 279.899747,19.5654936 C279.899747,23.2845543 270.941662,25.2249339 262.112935,25.2249339 Z M262.112935,15.8464328 C251.861263,15.8464328 246.266502,18.3042469 246.266502,19.5654936 C246.266502,20.8267403 251.861263,23.2845543 262.112935,23.2845543 C272.364607,23.2845543 277.959368,20.8267403 277.959368,19.5654936 C277.959368,18.3042469 272.364607,15.8464328 262.112935,15.8464328 Z" id="Shape"></path>
                    </g>
                </g>
            </g>
        </g>
    </g>
</svg>